STARTFONT 2.3
FONT -FontForge-Open Sans-Book-I-Normal-Sans--9-90-72-72-P-48-ISO10646-1
SIZE 9 72 72  4
FONTBOUNDINGBOX 16 13 -5 -3
COMMENT "Generated by fontforge, http://fontforge.sourceforge.net"
COMMENT "Digitized data copyright (c) 2010-2011, Google Corporation."
STARTPROPERTIES 42
FOUNDRY "FontForge"
FAMILY_NAME "Open Sans"
WEIGHT_NAME "Book"
SLANT "I"
SETWIDTH_NAME "Normal"
ADD_STYLE_NAME "Sans"
PIXEL_SIZE 9
POINT_SIZE 90
RESOLUTION_X 72
RESOLUTION_Y 72
SPACING "P"
AVERAGE_WIDTH 48
CHARSET_REGISTRY "ISO10646"
CHARSET_ENCODING "1"
FONTNAME_REGISTRY ""
CHARSET_COLLECTIONS "ISO8859-2 ISO8859-5 ISO8859-7 ISO8859-9 ISO8859-4 ISO10646-1"
BITS_PER_PIXEL 4
FONT_NAME "OpenSans-Italic"
FACE_NAME "Open Sans Italic"
COPYRIGHT "Digitized data copyright (c) 2010-2011, Google Corporation."
FONT_VERSION "1.10"
FONT_ASCENT 7
FONT_DESCENT 2
UNDERLINE_POSITION -1
UNDERLINE_THICKNESS 1
X_HEIGHT 4
CAP_HEIGHT 6
RAW_ASCENT 799
RAW_DESCENT 200
ITALIC_ANGLE 4992
NORM_SPACE 2
RELATIVE_WEIGHT 40
RELATIVE_SETWIDTH 50
SUPERSCRIPT_X 0
SUPERSCRIPT_Y 4
SUPERSCRIPT_SIZE 5
SUBSCRIPT_X 0
SUBSCRIPT_Y 1
SUBSCRIPT_SIZE 5
FIGURE_WIDTH 5
AVG_LOWERCASE_WIDTH 47
AVG_UPPERCASE_WIDTH 54
ENDPROPERTIES
CHARS 936
STARTCHAR space
ENCODING 32
SWIDTH 259 0
DWIDTH 2 0
BBX 1 1 0 0
BITMAP
00
ENDCHAR
STARTCHAR exclam
ENCODING 33
SWIDTH 258 0
DWIDTH 2 0
BBX 3 7 0 0
BITMAP
0850
0B10
0B00
0900
3500
1000
A300
ENDCHAR
STARTCHAR quotedbl
ENCODING 34
SWIDTH 386 0
DWIDTH 3 0
BBX 3 2 1 5
BITMAP
B480
8620
ENDCHAR
STARTCHAR numbersign
ENCODING 35
SWIDTH 645 0
DWIDTH 6 0
BBX 6 7 0 0
BITMAP
006372
009090
19C9C7
045540
6C8C83
090900
091800
ENDCHAR
STARTCHAR dollar
ENCODING 36
SWIDTH 550 0
DWIDTH 5 0
BBX 5 8 0 -1
BITMAP
001800
05CB60
0B6200
09C100
00BC00
008A10
7AC700
063000
ENDCHAR
STARTCHAR percent
ENCODING 37
SWIDTH 792 0
DWIDTH 7 0
BBX 7 7 0 0
BITMAP
07A40820
18364600
36649000
1B886970
00469090
01909270
0910A910
ENDCHAR
STARTCHAR ampersand
ENCODING 38
SWIDTH 669 0
DWIDTH 6 0
BBX 6 7 0 0
BITMAP
01AB50
065290
048A30
07D300
752A47
A108B0
4B98B2
ENDCHAR
STARTCHAR quotesingle
ENCODING 39
SWIDTH 216 0
DWIDTH 2 0
BBX 1 2 1 5
BITMAP
B0
80
ENDCHAR
STARTCHAR parenleft
ENCODING 40
SWIDTH 285 0
DWIDTH 3 0
BBX 4 8 0 -1
BITMAP
0091
0830
1A00
6500
9200
9200
7300
3600
ENDCHAR
STARTCHAR parenright
ENCODING 41
SWIDTH 285 0
DWIDTH 3 0
BBX 4 8 -1 -1
BITMAP
0090
0091
0083
0092
00B0
0290
0920
5600
ENDCHAR
STARTCHAR asterisk
ENCODING 42
SWIDTH 551 0
DWIDTH 5 0
BBX 4 4 1 3
BITMAP
0190
9884
2994
61A0
ENDCHAR
STARTCHAR plus
ENCODING 43
SWIDTH 550 0
DWIDTH 5 0
BBX 5 5 0 0
BITMAP
007000
009000
49D960
009000
003000
ENDCHAR
STARTCHAR comma
ENCODING 44
SWIDTH 240 0
DWIDTH 2 0
BBX 3 2 -1 -1
BITMAP
0B20
3700
ENDCHAR
STARTCHAR hyphen
ENCODING 45
SWIDTH 312 0
DWIDTH 3 0
BBX 3 1 0 2
BITMAP
7A40
ENDCHAR
STARTCHAR period
ENCODING 46
SWIDTH 252 0
DWIDTH 2 0
BBX 2 2 0 0
BITMAP
10
A2
ENDCHAR
STARTCHAR slash
ENCODING 47
SWIDTH 350 0
DWIDTH 3 0
BBX 5 7 -1 0
BITMAP
0002A0
000920
002900
009200
029000
092000
290000
ENDCHAR
STARTCHAR zero
ENCODING 48
SWIDTH 550 0
DWIDTH 5 0
BBX 5 7 0 0
BITMAP
02AB40
0B21B0
2900B0
5602A0
740470
660A20
1BA600
ENDCHAR
STARTCHAR one
ENCODING 49
SWIDTH 550 0
DWIDTH 5 0
BBX 3 7 1 0
BITMAP
07C0
67A0
0470
0740
0A10
0B00
1A00
ENDCHAR
STARTCHAR two
ENCODING 50
SWIDTH 550 0
DWIDTH 5 0
BBX 5 7 0 0
BITMAP
05AB40
0101A0
000480
001B10
01B200
1B2000
CCAA10
ENDCHAR
STARTCHAR three
ENCODING 51
SWIDTH 550 0
DWIDTH 5 0
BBX 5 7 0 0
BITMAP
06AB50
0002A0
001850
04B800
000A20
000B10
8AA600
ENDCHAR
STARTCHAR four
ENCODING 52
SWIDTH 550 0
DWIDTH 5 0
BBX 5 7 0 0
BITMAP
000790
004A70
01A740
0A2A10
750B00
9ABD80
004700
ENDCHAR
STARTCHAR five
ENCODING 53
SWIDTH 550 0
DWIDTH 5 0
BBX 5 7 0 0
BITMAP
04CA70
073000
0A0000
099B10
000750
000930
7AA700
ENDCHAR
STARTCHAR six
ENCODING 54
SWIDTH 550 0
DWIDTH 5 0
BBX 5 7 0 0
BITMAP
008A80
076000
0B0000
4D9B20
670470
560750
1AA900
ENDCHAR
STARTCHAR seven
ENCODING 55
SWIDTH 550 0
DWIDTH 5 0
BBX 5 7 0 0
BITMAP
09AAD0
000570
000B00
006600
00B000
075000
1B0000
ENDCHAR
STARTCHAR eight
ENCODING 56
SWIDTH 550 0
DWIDTH 5 0
BBX 5 7 0 0
BITMAP
02AB70
0830C0
066670
06BB00
570840
840750
2B9900
ENDCHAR
STARTCHAR nine
ENCODING 57
SWIDTH 550 0
DWIDTH 5 0
BBX 5 7 0 0
BITMAP
04AB30
0B0290
280290
1B1780
058940
001B00
6AA200
ENDCHAR
STARTCHAR colon
ENCODING 58
SWIDTH 252 0
DWIDTH 2 0
BBX 2 5 0 0
BITMAP
1C
01
00
10
A2
ENDCHAR
STARTCHAR semicolon
ENCODING 59
SWIDTH 252 0
DWIDTH 2 0
BBX 3 6 -1 -1
BITMAP
01C0
0010
0000
0000
0B20
3700
ENDCHAR
STARTCHAR less
ENCODING 60
SWIDTH 550 0
DWIDTH 5 0
BBX 5 4 0 1
BITMAP
001760
178200
397100
002860
ENDCHAR
STARTCHAR equal
ENCODING 61
SWIDTH 550 0
DWIDTH 5 0
BBX 5 3 0 1
BITMAP
499950
000000
499960
ENDCHAR
STARTCHAR greater
ENCODING 62
SWIDTH 550 0
DWIDTH 5 0
BBX 5 4 0 1
BITMAP
581000
017820
016940
593000
ENDCHAR
STARTCHAR question
ENCODING 63
SWIDTH 426 0
DWIDTH 4 0
BBX 4 7 0 0
BITMAP
0AA9
000B
002A
03A1
0910
0100
3900
ENDCHAR
STARTCHAR at
ENCODING 64
SWIDTH 847 0
DWIDTH 8 0
BBX 8 7 0 0
BITMAP
00699A60
08400083
37299745
73A07372
73989970
39000000
05A99300
ENDCHAR
STARTCHAR A
ENCODING 65
SWIDTH 555 0
DWIDTH 5 0
BBX 6 7 -1 0
BITMAP
0004C0
000AB0
0047A1
00B183
04CAC4
0B1056
480038
ENDCHAR
STARTCHAR B
ENCODING 66
SWIDTH 598 0
DWIDTH 5 0
BBX 6 7 0 0
BITMAP
05BAA1
083084
0B02B1
0DAC40
2901C0
5602B0
8BAA20
ENDCHAR
STARTCHAR C
ENCODING 67
SWIDTH 584 0
DWIDTH 5 0
BBX 6 7 0 0
BITMAP
007BA6
077000
1C0000
480000
570000
2B0000
07BA50
ENDCHAR
STARTCHAR D
ENCODING 68
SWIDTH 666 0
DWIDTH 6 0
BBX 6 7 0 0
BITMAP
05BAA1
083067
0B002A
0B002A
290066
5602C1
8BAA20
ENDCHAR
STARTCHAR E
ENCODING 69
SWIDTH 511 0
DWIDTH 5 0
BBX 5 7 0 0
BITMAP
05CA90
083000
0B0000
0DAA20
290000
560000
8CA700
ENDCHAR
STARTCHAR F
ENCODING 70
SWIDTH 472 0
DWIDTH 4 0
BBX 5 7 0 0
BITMAP
05CA90
083000
0B0000
0DAA10
280000
560000
830000
ENDCHAR
STARTCHAR G
ENCODING 71
SWIDTH 676 0
DWIDTH 6 0
BBX 6 7 0 0
BITMAP
007BA9
077000
1C0000
4805C8
570065
2B0092
06BAB0
ENDCHAR
STARTCHAR H
ENCODING 72
SWIDTH 678 0
DWIDTH 6 0
BBX 7 7 0 0
BITMAP
05600A10
08300B00
0B001A00
0DAAC700
29008400
5600A100
8300B000
ENDCHAR
STARTCHAR I
ENCODING 73
SWIDTH 272 0
DWIDTH 2 0
BBX 3 7 0 0
BITMAP
0560
0830
0B00
0B00
2900
5600
8300
ENDCHAR
STARTCHAR J
ENCODING 74
SWIDTH 267 0
DWIDTH 2 0
BBX 5 9 -2 -2
BITMAP
000560
000830
000B00
000B00
002900
005700
007400
00B100
4B7000
ENDCHAR
STARTCHAR K
ENCODING 75
SWIDTH 557 0
DWIDTH 5 0
BBX 6 7 0 0
BITMAP
056085
083760
0B6800
0DC300
293900
560B00
830750
ENDCHAR
STARTCHAR L
ENCODING 76
SWIDTH 474 0
DWIDTH 4 0
BBX 4 7 0 0
BITMAP
0560
0830
0B00
0B00
2900
5600
8CA7
ENDCHAR
STARTCHAR M
ENCODING 77
SWIDTH 836 0
DWIDTH 8 0
BBX 8 7 0 0
BITMAP
05D000D7
08B005C4
0B910AA1
0B7365B0
2955A1B0
563C5480
831C0750
ENDCHAR
STARTCHAR N
ENCODING 78
SWIDTH 702 0
DWIDTH 6 0
BBX 7 7 0 0
BITMAP
05A00740
08B10A10
0A560B00
0B1A1A00
290A5700
5605C400
8300E100
ENDCHAR
STARTCHAR O
ENCODING 79
SWIDTH 720 0
DWIDTH 6 0
BBX 7 7 0 0
BITMAP
009AB500
09500C00
1B000920
48000A20
57000C00
2B007800
06BA8000
ENDCHAR
STARTCHAR P
ENCODING 80
SWIDTH 565 0
DWIDTH 5 0
BBX 5 7 0 0
BITMAP
05BA70
0830C0
0B10B0
0C05A0
2D9600
570000
840000
ENDCHAR
STARTCHAR Q
ENCODING 81
SWIDTH 720 0
DWIDTH 6 0
BBX 7 8 0 -1
BITMAP
009AB500
09500C00
1B000920
48000A20
57000C00
2B006700
06BB8000
00059000
ENDCHAR
STARTCHAR R
ENCODING 82
SWIDTH 568 0
DWIDTH 5 0
BBX 6 7 0 0
BITMAP
05BA90
0820B1
0A03B0
0CAB10
280B00
560A10
830660
ENDCHAR
STARTCHAR S
ENCODING 83
SWIDTH 501 0
DWIDTH 5 0
BBX 5 7 0 0
BITMAP
05BA60
0C0000
0C1000
04C400
001D00
000C00
9AB500
ENDCHAR
STARTCHAR T
ENCODING 84
SWIDTH 498 0
DWIDTH 4 0
BBX 6 7 0 0
BITMAP
1ACCA2
008300
00B000
00B000
029000
056000
084000
ENDCHAR
STARTCHAR U
ENCODING 85
SWIDTH 675 0
DWIDTH 6 0
BBX 7 7 0 0
BITMAP
07500A10
0A200B00
0B001A00
1B004700
38007400
3800B000
0AAA4000
ENDCHAR
STARTCHAR V
ENCODING 86
SWIDTH 547 0
DWIDTH 5 0
BBX 6 7 0 0
BITMAP
290058
0B00B1
0B0480
0B0A10
0B3800
09A100
088000
ENDCHAR
STARTCHAR W
ENCODING 87
SWIDTH 852 0
DWIDTH 8 0
BBX 8 7 1 0
BITMAP
B00D2083
B05C30B0
B0A73560
B3864A10
B9257800
A904C200
C304B000
ENDCHAR
STARTCHAR X
ENCODING 88
SWIDTH 519 0
DWIDTH 5 0
BBX 7 7 -1 0
BITMAP
00B00A20
00747500
002B9000
001E1000
00A76000
0661A000
2A00B100
ENDCHAR
STARTCHAR Y
ENCODING 89
SWIDTH 502 0
DWIDTH 5 0
BBX 6 7 0 0
BITMAP
1A00B2
0B0660
093B00
05D300
039000
056000
083000
ENDCHAR
STARTCHAR Z
ENCODING 90
SWIDTH 530 0
DWIDTH 5 0
BBX 6 7 0 0
BITMAP
07AAE1
000760
003A00
01B100
094000
580000
EBAA00
ENDCHAR
STARTCHAR bracketleft
ENCODING 91
SWIDTH 286 0
DWIDTH 3 0
BBX 4 8 0 -1
BITMAP
07A2
0A00
0A00
2900
5600
8200
B000
D700
ENDCHAR
STARTCHAR backslash
ENCODING 92
SWIDTH 350 0
DWIDTH 3 0
BBX 2 7 1 0
BITMAP
A0
A0
A0
82
64
46
28
ENDCHAR
STARTCHAR bracketright
ENCODING 93
SWIDTH 286 0
DWIDTH 3 0
BBX 4 8 -1 -1
BITMAP
01A9
0056
0083
00A0
00B0
0290
0550
5C20
ENDCHAR
STARTCHAR asciicircum
ENCODING 94
SWIDTH 517 0
DWIDTH 5 0
BBX 5 4 0 2
BITMAP
005700
024800
080710
730460
ENDCHAR
STARTCHAR underscore
ENCODING 95
SWIDTH 394 0
DWIDTH 4 0
BBX 4 1 -1 -2
BITMAP
7997
ENDCHAR
STARTCHAR grave
ENCODING 96
SWIDTH 554 0
DWIDTH 5 0
BBX 2 1 2 5
BITMAP
28
ENDCHAR
STARTCHAR a
ENCODING 97
SWIDTH 564 0
DWIDTH 5 0
BBX 5 5 0 0
BITMAP
06A8A0
2A0590
750660
840D30
3B8A00
ENDCHAR
STARTCHAR b
ENCODING 98
SWIDTH 577 0
DWIDTH 5 0
BBX 5 7 0 0
BITMAP
065000
092000
0B7B60
1E21B0
3902A0
670750
97A900
ENDCHAR
STARTCHAR c
ENCODING 99
SWIDTH 450 0
DWIDTH 4 0
BBX 4 5 0 0
BITMAP
06AA
3A00
7500
8400
2B94
ENDCHAR
STARTCHAR d
ENCODING 100
SWIDTH 577 0
DWIDTH 5 0
BBX 6 7 0 0
BITMAP
000074
0000A1
06A8B0
2A0490
750560
840D30
4B8B00
ENDCHAR
STARTCHAR e
ENCODING 101
SWIDTH 493 0
DWIDTH 4 0
BBX 5 5 0 0
BITMAP
06AB10
392B10
7A7200
840000
2B9600
ENDCHAR
STARTCHAR f
ENCODING 102
SWIDTH 312 0
DWIDTH 3 0
BBX 5 9 -1 -2
BITMAP
001B80
007400
03D810
00B000
029000
056000
083000
0B0000
A70000
ENDCHAR
STARTCHAR g
ENCODING 103
SWIDTH 500 0
DWIDTH 5 0
BBX 6 7 -1 -2
BITMAP
0099E6
0470B0
02B960
054000
07B820
5614A0
4A9A30
ENDCHAR
STARTCHAR h
ENCODING 104
SWIDTH 577 0
DWIDTH 5 0
BBX 5 7 0 0
BITMAP
065000
092000
0B7A60
1E22A0
390470
650740
A20A10
ENDCHAR
STARTCHAR i
ENCODING 105
SWIDTH 253 0
DWIDTH 2 0
BBX 3 7 0 0
BITMAP
0540
0000
0B00
1B00
3800
6500
A200
ENDCHAR
STARTCHAR j
ENCODING 106
SWIDTH 253 0
DWIDTH 2 0
BBX 5 9 -2 -2
BITMAP
000540
000000
000B00
001A00
004700
007400
00A100
00B000
1A6000
ENDCHAR
STARTCHAR k
ENCODING 107
SWIDTH 487 0
DWIDTH 4 0
BBX 5 7 0 0
BITMAP
065000
092000
0B0930
1A9300
3DB000
759300
A12A00
ENDCHAR
STARTCHAR l
ENCODING 108
SWIDTH 253 0
DWIDTH 2 0
BBX 3 7 0 0
BITMAP
0650
0920
0B00
1B00
3800
7400
A100
ENDCHAR
STARTCHAR m
ENCODING 109
SWIDTH 872 0
DWIDTH 8 0
BBX 8 5 0 0
BITMAP
0A7B59C2
1E14B075
39065092
650920B0
A20B01B0
ENDCHAR
STARTCHAR n
ENCODING 110
SWIDTH 577 0
DWIDTH 5 0
BBX 5 5 0 0
BITMAP
0A7A60
1E22A0
390470
650740
A20A10
ENDCHAR
STARTCHAR o
ENCODING 111
SWIDTH 561 0
DWIDTH 5 0
BBX 5 5 0 0
BITMAP
07AB20
390380
740480
840840
2AA700
ENDCHAR
STARTCHAR p
ENCODING 112
SWIDTH 577 0
DWIDTH 5 0
BBX 6 7 -1 -2
BITMAP
00A7B6
01E21B
04902A
077075
0A8A90
0B0000
1A0000
ENDCHAR
STARTCHAR q
ENCODING 113
SWIDTH 577 0
DWIDTH 5 0
BBX 5 7 0 -2
BITMAP
06A890
2A0590
750660
840D30
3B8B00
000B00
003800
ENDCHAR
STARTCHAR r
ENCODING 114
SWIDTH 395 0
DWIDTH 4 0
BBX 4 5 0 0
BITMAP
0A87
1E10
3800
6500
A200
ENDCHAR
STARTCHAR s
ENCODING 115
SWIDTH 428 0
DWIDTH 4 0
BBX 4 5 0 0
BITMAP
2BA6
5700
0990
00A3
A9A0
ENDCHAR
STARTCHAR t
ENCODING 116
SWIDTH 324 0
DWIDTH 3 0
BBX 4 6 0 0
BITMAP
0820
4D81
1A00
4700
6500
4B30
ENDCHAR
STARTCHAR u
ENCODING 117
SWIDTH 577 0
DWIDTH 5 0
BBX 5 5 0 0
BITMAP
0B00B0
1A0290
470660
740C30
4B8A00
ENDCHAR
STARTCHAR v
ENCODING 118
SWIDTH 461 0
DWIDTH 4 0
BBX 5 5 0 0
BITMAP
830750
651B00
467400
38A000
1E4000
ENDCHAR
STARTCHAR w
ENCODING 119
SWIDTH 716 0
DWIDTH 6 0
BBX 7 5 0 0
BITMAP
741E0380
647A1A20
65974A00
5A46A300
5C06B000
ENDCHAR
STARTCHAR x
ENCODING 120
SWIDTH 478 0
DWIDTH 4 0
BBX 6 5 -1 0
BITMAP
0190A3
009850
006A00
029A10
1B1560
ENDCHAR
STARTCHAR y
ENCODING 121
SWIDTH 461 0
DWIDTH 4 0
BBX 6 7 -1 -2
BITMAP
074075
0561A0
038830
01AA00
00D200
039000
8A1000
ENDCHAR
STARTCHAR z
ENCODING 122
SWIDTH 443 0
DWIDTH 4 0
BBX 5 5 -1 0
BITMAP
0089C0
000A20
007500
048000
1E8810
ENDCHAR
STARTCHAR braceleft
ENCODING 123
SWIDTH 349 0
DWIDTH 3 0
BBX 4 8 0 -1
BITMAP
00A5
0370
0640
1A10
9600
1A00
4700
3B00
ENDCHAR
STARTCHAR bar
ENCODING 124
SWIDTH 550 0
DWIDTH 5 0
BBX 1 9 2 -2
BITMAP
90
90
90
90
90
90
90
90
90
ENDCHAR
STARTCHAR braceright
ENCODING 125
SWIDTH 349 0
DWIDTH 3 0
BBX 4 8 -1 -1
BITMAP
0095
0037
0065
0065
005B
00A0
0470
3B20
ENDCHAR
STARTCHAR asciitilde
ENCODING 126
SWIDTH 550 0
DWIDTH 5 0
BBX 5 2 0 3
BITMAP
4A7040
405A60
ENDCHAR
STARTCHAR nonbreakingspace
ENCODING 160
SWIDTH 259 0
DWIDTH 2 0
BBX 1 1 0 0
BITMAP
00
ENDCHAR
STARTCHAR exclamdown
ENCODING 161
SWIDTH 258 0
DWIDTH 2 0
BBX 3 7 0 -2
BITMAP
0B10
0100
0800
3600
7400
B100
D000
ENDCHAR
STARTCHAR cent
ENCODING 162
SWIDTH 550 0
DWIDTH 5 0
BBX 4 7 1 0
BITMAP
0080
1AA6
9300
C000
C000
7A90
0800
ENDCHAR
STARTCHAR sterling
ENCODING 163
SWIDTH 550 0
DWIDTH 5 0
BBX 6 7 0 0
BITMAP
008AA1
039000
065000
4D9700
0B0000
290000
DBAA20
ENDCHAR
STARTCHAR currency
ENCODING 164
SWIDTH 550 0
DWIDTH 5 0
BBX 5 5 0 1
BITMAP
250160
0B8B20
090540
0B9C20
250160
ENDCHAR
STARTCHAR yen
ENCODING 165
SWIDTH 550 0
DWIDTH 5 0
BBX 6 7 0 0
BITMAP
0A0093
083650
039800
19D910
00A000
3AC800
055000
ENDCHAR
STARTCHAR brokenbar
ENCODING 166
SWIDTH 550 0
DWIDTH 5 0
BBX 1 9 2 -2
BITMAP
90
90
90
00
00
00
90
90
90
ENDCHAR
STARTCHAR section
ENCODING 167
SWIDTH 485 0
DWIDTH 4 0
BBX 5 7 0 0
BITMAP
05A920
093000
099800
380B00
09B400
006600
79A200
ENDCHAR
STARTCHAR dieresis
ENCODING 168
SWIDTH 554 0
DWIDTH 5 0
BBX 3 1 2 6
BITMAP
8440
ENDCHAR
STARTCHAR copyright
ENCODING 169
SWIDTH 832 0
DWIDTH 7 0
BBX 8 7 0 0
BITMAP
01777700
08100270
344A9061
52A00043
34599061
08100270
01777700
ENDCHAR
STARTCHAR ordfeminine
ENCODING 170
SWIDTH 334 0
DWIDTH 3 0
BBX 4 3 0 4
BITMAP
0885
2562
29A0
ENDCHAR
STARTCHAR guillemotleft
ENCODING 171
SWIDTH 467 0
DWIDTH 4 0
BBX 4 3 0 1
BITMAP
0738
75A2
1845
ENDCHAR
STARTCHAR logicalnot
ENCODING 172
SWIDTH 550 0
DWIDTH 5 0
BBX 5 2 0 1
BITMAP
499990
000090
ENDCHAR
STARTCHAR uni00AD
ENCODING 173
SWIDTH 312 0
DWIDTH 3 0
BBX 3 1 0 2
BITMAP
7A40
ENDCHAR
STARTCHAR registered
ENCODING 174
SWIDTH 832 0
DWIDTH 7 0
BBX 8 7 0 0
BITMAP
01777700
083BA370
34368261
523B9043
34369061
08366670
01777700
ENDCHAR
STARTCHAR overscore
ENCODING 175
SWIDTH 381 0
DWIDTH 3 0
BBX 4 1 1 6
BITMAP
8995
ENDCHAR
STARTCHAR degree
ENCODING 176
SWIDTH 428 0
DWIDTH 4 0
BBX 3 3 1 4
BITMAP
8840
8080
8840
ENDCHAR
STARTCHAR plusminus
ENCODING 177
SWIDTH 550 0
DWIDTH 5 0
BBX 5 5 0 0
BITMAP
009000
009000
49D960
009000
499960
ENDCHAR
STARTCHAR twosuperior
ENCODING 178
SWIDTH 350 0
DWIDTH 3 0
BBX 4 4 0 3
BITMAP
0693
0062
0560
5C70
ENDCHAR
STARTCHAR threesuperior
ENCODING 179
SWIDTH 350 0
DWIDTH 3 0
BBX 4 4 0 3
BITMAP
06A2
0063
0590
4790
ENDCHAR
STARTCHAR acute
ENCODING 180
SWIDTH 554 0
DWIDTH 5 0
BBX 2 1 2 5
BITMAP
38
ENDCHAR
STARTCHAR mu
ENCODING 181
SWIDTH 583 0
DWIDTH 5 0
BBX 6 7 -1 -2
BITMAP
00B00B
01B01A
048057
0750C4
0AA8A1
0B0000
190000
ENDCHAR
STARTCHAR paragraph
ENCODING 182
SWIDTH 654 0
DWIDTH 6 0
BBX 6 8 0 -1
BITMAP
08EEB4
1FFD34
1FFD34
09ED34
000834
000834
000834
000834
ENDCHAR
STARTCHAR periodcentered
ENCODING 183
SWIDTH 252 0
DWIDTH 2 0
BBX 2 2 0 3
BITMAP
01
2A
ENDCHAR
STARTCHAR cedilla
ENCODING 184
SWIDTH 205 0
DWIDTH 2 0
BBX 2 2 -1 -2
BITMAP
18
58
ENDCHAR
STARTCHAR onesuperior
ENCODING 185
SWIDTH 350 0
DWIDTH 3 0
BBX 2 4 1 3
BITMAP
5A
18
36
62
ENDCHAR
STARTCHAR ordmasculine
ENCODING 186
SWIDTH 335 0
DWIDTH 3 0
BBX 4 3 0 4
BITMAP
0792
3543
2980
ENDCHAR
STARTCHAR guillemotright
ENCODING 187
SWIDTH 467 0
DWIDTH 4 0
BBX 4 3 0 1
BITMAP
2762
0B2A
7381
ENDCHAR
STARTCHAR onequarter
ENCODING 188
SWIDTH 741 0
DWIDTH 7 0
BBX 6 7 0 0
BITMAP
078019
055091
072640
09281B
009179
064647
2806B8
ENDCHAR
STARTCHAR onehalf
ENCODING 189
SWIDTH 741 0
DWIDTH 7 0
BBX 7 7 0 0
BITMAP
1A404600
18119000
09092000
09556930
01900620
09105600
5505C700
ENDCHAR
STARTCHAR threequarters
ENCODING 190
SWIDTH 764 0
DWIDTH 7 0
BBX 7 7 0 0
BITMAP
07A10650
00812900
06809100
57864570
00282A40
00918720
07318C40
ENDCHAR
STARTCHAR questiondown
ENCODING 191
SWIDTH 426 0
DWIDTH 4 0
BBX 4 7 0 -2
BITMAP
0094
0010
0090
1A30
A300
C000
9AA1
ENDCHAR
STARTCHAR Agrave
ENCODING 192
SWIDTH 555 0
DWIDTH 5 0
BBX 6 9 -1 0
BITMAP
000460
000000
0004C0
000AB0
0047A1
00B183
04CAC4
0B1056
480038
ENDCHAR
STARTCHAR Aacute
ENCODING 193
SWIDTH 555 0
DWIDTH 5 0
BBX 6 9 -1 0
BITMAP
000075
000000
0004C0
000AB0
0047A1
00B183
04CAC4
0B1056
480038
ENDCHAR
STARTCHAR Acircumflex
ENCODING 194
SWIDTH 555 0
DWIDTH 5 0
BBX 6 9 -1 0
BITMAP
0005A6
000000
0004C0
000AB0
0047A1
00B183
04CAC4
0B1056
480038
ENDCHAR
STARTCHAR Atilde
ENCODING 195
SWIDTH 555 0
DWIDTH 5 0
BBX 7 10 -1 0
BITMAP
00086610
00066800
00000000
0004C000
000AB000
0047A100
00B18300
04CAC400
0B105600
48003800
ENDCHAR
STARTCHAR Adieresis
ENCODING 196
SWIDTH 555 0
DWIDTH 5 0
BBX 6 9 -1 0
BITMAP
000818
000000
0004C0
000AB0
0047A1
00B183
04CAC4
0B1056
480038
ENDCHAR
STARTCHAR Aring
ENCODING 197
SWIDTH 555 0
DWIDTH 5 0
BBX 6 9 -1 0
BITMAP
000583
000583
0004C0
000AB0
0047A1
00B183
04CAC4
0B1056
480038
ENDCHAR
STARTCHAR AE
ENCODING 198
SWIDTH 816 0
DWIDTH 7 0
BBX 9 7 -1 0
BITMAP
0000ADAA70
00047B0000
000B1B0000
00753CA900
01CAD60000
0930930000
3900CAA400
ENDCHAR
STARTCHAR Ccedilla
ENCODING 199
SWIDTH 584 0
DWIDTH 5 0
BBX 6 9 0 -2
BITMAP
007BA6
077000
1C0000
480000
570000
2B0000
07BA50
008100
029300
ENDCHAR
STARTCHAR Egrave
ENCODING 200
SWIDTH 511 0
DWIDTH 5 0
BBX 5 9 0 0
BITMAP
002800
000000
05CA90
083000
0B0000
0DAA20
290000
560000
8CA700
ENDCHAR
STARTCHAR Eacute
ENCODING 201
SWIDTH 511 0
DWIDTH 5 0
BBX 5 9 0 0
BITMAP
000740
000000
05CA90
083000
0B0000
0DAA20
290000
560000
8CA700
ENDCHAR
STARTCHAR Ecircumflex
ENCODING 202
SWIDTH 511 0
DWIDTH 5 0
BBX 5 9 0 0
BITMAP
005A60
000000
05CA90
083000
0B0000
0DAA20
290000
560000
8CA700
ENDCHAR
STARTCHAR Edieresis
ENCODING 203
SWIDTH 511 0
DWIDTH 5 0
BBX 5 9 0 0
BITMAP
008180
000000
05CA90
083000
0B0000
0DAA20
290000
560000
8CA700
ENDCHAR
STARTCHAR Igrave
ENCODING 204
SWIDTH 272 0
DWIDTH 2 0
BBX 3 9 0 0
BITMAP
0640
0000
0560
0830
0B00
0B00
2900
5600
8300
ENDCHAR
STARTCHAR Iacute
ENCODING 205
SWIDTH 272 0
DWIDTH 2 0
BBX 4 9 0 0
BITMAP
0083
0000
0560
0830
0B00
0B00
2900
5600
8300
ENDCHAR
STARTCHAR Icircumflex
ENCODING 206
SWIDTH 272 0
DWIDTH 2 0
BBX 4 9 0 0
BITMAP
07B3
0000
0560
0830
0B00
0B00
2900
5600
8300
ENDCHAR
STARTCHAR Idieresis
ENCODING 207
SWIDTH 272 0
DWIDTH 2 0
BBX 4 9 0 0
BITMAP
0826
0000
0560
0830
0B00
0B00
2900
5600
8300
ENDCHAR
STARTCHAR Eth
ENCODING 208
SWIDTH 666 0
DWIDTH 6 0
BBX 6 7 0 0
BITMAP
06BAA1
093067
0B002A
6DA22A
390066
5602C1
8BAA20
ENDCHAR
STARTCHAR Ntilde
ENCODING 209
SWIDTH 702 0
DWIDTH 6 0
BBX 7 10 0 0
BITMAP
001A3600
00428500
00000000
05A00740
08B10A10
0A560B00
0B1A1A00
290A5700
5605C400
8300E100
ENDCHAR
STARTCHAR Ograve
ENCODING 210
SWIDTH 720 0
DWIDTH 6 0
BBX 7 9 0 0
BITMAP
00082000
00000000
009AB500
09500C00
1B000920
48000A20
57000C00
2B007800
06BA8000
ENDCHAR
STARTCHAR Oacute
ENCODING 211
SWIDTH 720 0
DWIDTH 6 0
BBX 7 9 0 0
BITMAP
00018200
00000000
009AB500
09500C00
1B000920
48000A20
57000C00
2B007800
06BA8000
ENDCHAR
STARTCHAR Ocircumflex
ENCODING 212
SWIDTH 720 0
DWIDTH 6 0
BBX 7 9 0 0
BITMAP
0018A200
00000000
009AB500
09500C00
1B000920
48000A20
57000C00
2B007800
06BA8000
ENDCHAR
STARTCHAR Otilde
ENCODING 213
SWIDTH 720 0
DWIDTH 6 0
BBX 7 10 0 0
BITMAP
002B2600
0061A400
00000000
009AB500
09500C00
1B000920
48000A20
57000C00
2B007800
06BA8000
ENDCHAR
STARTCHAR Odieresis
ENCODING 214
SWIDTH 720 0
DWIDTH 6 0
BBX 7 9 0 0
BITMAP
00085300
00000000
009AB500
09500C00
1B000920
48000A20
57000C00
2B007800
06BA8000
ENDCHAR
STARTCHAR multiply
ENCODING 215
SWIDTH 550 0
DWIDTH 5 0
BBX 5 4 0 1
BITMAP
190730
05B700
05B700
190730
ENDCHAR
STARTCHAR Oslash
ENCODING 216
SWIDTH 720 0
DWIDTH 6 0
BBX 7 9 0 -1
BITMAP
00000100
009ABB30
09507D10
1B039A30
481B1A20
57A30C00
2E607800
3BBA8000
10000000
ENDCHAR
STARTCHAR Ugrave
ENCODING 217
SWIDTH 675 0
DWIDTH 6 0
BBX 7 9 0 0
BITMAP
00092000
00000000
07500A10
0A200B00
0B001A00
1B004700
38007400
3800B000
0AAA4000
ENDCHAR
STARTCHAR Uacute
ENCODING 218
SWIDTH 675 0
DWIDTH 6 0
BBX 7 9 0 0
BITMAP
00018200
00000000
07500A10
0A200B00
0B001A00
1B004700
38007400
3800B000
0AAA4000
ENDCHAR
STARTCHAR Ucircumflex
ENCODING 219
SWIDTH 675 0
DWIDTH 6 0
BBX 7 9 0 0
BITMAP
0018A100
00000000
07500A10
0A200B00
0B001A00
1B004700
38007400
3800B000
0AAA4000
ENDCHAR
STARTCHAR Udieresis
ENCODING 220
SWIDTH 675 0
DWIDTH 6 0
BBX 7 9 0 0
BITMAP
00177200
00000000
07500A10
0A200B00
0B001A00
1B004700
38007400
3800B000
0AAA4000
ENDCHAR
STARTCHAR Yacute
ENCODING 221
SWIDTH 502 0
DWIDTH 5 0
BBX 6 9 0 0
BITMAP
001820
000000
1A00B2
0B0660
093B00
05D300
039000
056000
083000
ENDCHAR
STARTCHAR Thorn
ENCODING 222
SWIDTH 565 0
DWIDTH 5 0
BBX 5 7 0 0
BITMAP
056000
08AB50
0B00B0
0B00B0
2A1860
5C9500
840000
ENDCHAR
STARTCHAR germandbls
ENCODING 223
SWIDTH 577 0
DWIDTH 5 0
BBX 7 9 -2 -2
BITMAP
0002AA80
000931B0
000B1A20
001A6600
00470A40
00740380
00A59B20
00B00000
1A600000
ENDCHAR
STARTCHAR agrave
ENCODING 224
SWIDTH 564 0
DWIDTH 5 0
BBX 5 7 0 0
BITMAP
006400
000000
06A8A0
2A0590
750660
840D30
3B8A00
ENDCHAR
STARTCHAR aacute
ENCODING 225
SWIDTH 564 0
DWIDTH 5 0
BBX 5 7 0 0
BITMAP
001820
000000
06A8A0
2A0590
750660
840D30
3B8A00
ENDCHAR
STARTCHAR acircumflex
ENCODING 226
SWIDTH 564 0
DWIDTH 5 0
BBX 5 7 0 0
BITMAP
018B20
000000
06A8A0
2A0590
750660
840D30
3B8A00
ENDCHAR
STARTCHAR atilde
ENCODING 227
SWIDTH 564 0
DWIDTH 5 0
BBX 5 8 0 0
BITMAP
01B260
051950
000000
06A8A0
2A0590
750660
840D30
3B8A00
ENDCHAR
STARTCHAR adieresis
ENCODING 228
SWIDTH 564 0
DWIDTH 5 0
BBX 5 7 0 0
BITMAP
008440
000000
06A8A0
2A0590
750660
840D30
3B8A00
ENDCHAR
STARTCHAR aring
ENCODING 229
SWIDTH 564 0
DWIDTH 5 0
BBX 5 8 0 0
BITMAP
007910
006910
000000
06A8A0
2A0590
750660
840D30
3B8A00
ENDCHAR
STARTCHAR ae
ENCODING 230
SWIDTH 814 0
DWIDTH 7 0
BBX 8 5 0 0
BITMAP
06A7B9B1
2A0782B1
7508A720
842E3000
4B7AB960
ENDCHAR
STARTCHAR ccedilla
ENCODING 231
SWIDTH 450 0
DWIDTH 4 0
BBX 4 7 0 -2
BITMAP
06AA
3A00
7500
8400
2B94
0540
0760
ENDCHAR
STARTCHAR egrave
ENCODING 232
SWIDTH 493 0
DWIDTH 4 0
BBX 5 7 0 0
BITMAP
008200
000000
06AB10
392B10
7A7200
840000
2B9600
ENDCHAR
STARTCHAR eacute
ENCODING 233
SWIDTH 493 0
DWIDTH 4 0
BBX 5 7 0 0
BITMAP
002810
000000
06AB10
392B10
7A7200
840000
2B9600
ENDCHAR
STARTCHAR ecircumflex
ENCODING 234
SWIDTH 493 0
DWIDTH 4 0
BBX 5 7 0 0
BITMAP
028A10
000000
06AB10
392B10
7A7200
840000
2B9600
ENDCHAR
STARTCHAR edieresis
ENCODING 235
SWIDTH 493 0
DWIDTH 4 0
BBX 5 7 0 0
BITMAP
017720
000000
06AB10
392B10
7A7200
840000
2B9600
ENDCHAR
STARTCHAR igrave
ENCODING 236
SWIDTH 253 0
DWIDTH 2 0
BBX 2 7 0 0
BITMAP
19
00
0B
1B
38
65
A2
ENDCHAR
STARTCHAR iacute
ENCODING 237
SWIDTH 253 0
DWIDTH 2 0
BBX 4 7 0 0
BITMAP
0381
0000
0B00
1B00
3800
6500
A200
ENDCHAR
STARTCHAR icircumflex
ENCODING 238
SWIDTH 253 0
DWIDTH 2 0
BBX 3 7 0 0
BITMAP
2990
0000
0B00
1B00
3800
6500
A200
ENDCHAR
STARTCHAR idieresis
ENCODING 239
SWIDTH 253 0
DWIDTH 2 0
BBX 4 7 0 0
BITMAP
3681
0000
0B00
1B00
3800
6500
A200
ENDCHAR
STARTCHAR eth
ENCODING 240
SWIDTH 568 0
DWIDTH 5 0
BBX 5 7 0 0
BITMAP
006880
008B30
000280
08A9A0
660480
940840
3BA700
ENDCHAR
STARTCHAR ntilde
ENCODING 241
SWIDTH 577 0
DWIDTH 5 0
BBX 5 8 0 0
BITMAP
01A360
042950
000000
0A7A60
1E22A0
390470
650740
A20A10
ENDCHAR
STARTCHAR ograve
ENCODING 242
SWIDTH 561 0
DWIDTH 5 0
BBX 5 7 0 0
BITMAP
007300
000000
07AB20
390380
740480
840840
2AA700
ENDCHAR
STARTCHAR oacute
ENCODING 243
SWIDTH 561 0
DWIDTH 5 0
BBX 5 7 0 0
BITMAP
002820
000000
07AB20
390380
740480
840840
2AA700
ENDCHAR
STARTCHAR ocircumflex
ENCODING 244
SWIDTH 561 0
DWIDTH 5 0
BBX 5 7 0 0
BITMAP
018A20
000000
07AB20
390380
740480
840840
2AA700
ENDCHAR
STARTCHAR otilde
ENCODING 245
SWIDTH 561 0
DWIDTH 5 0
BBX 5 8 0 0
BITMAP
02B260
061940
000000
07AB20
390380
740480
840840
2AA700
ENDCHAR
STARTCHAR odieresis
ENCODING 246
SWIDTH 561 0
DWIDTH 5 0
BBX 5 7 0 0
BITMAP
008630
000000
07AB20
390380
740480
840840
2AA700
ENDCHAR
STARTCHAR divide
ENCODING 247
SWIDTH 550 0
DWIDTH 5 0
BBX 5 4 0 1
BITMAP
00B000
000000
49A960
00B000
ENDCHAR
STARTCHAR oslash
ENCODING 248
SWIDTH 561 0
DWIDTH 5 0
BBX 5 5 0 0
BITMAP
07AB70
392B80
74A480
7B3830
6CA700
ENDCHAR
STARTCHAR ugrave
ENCODING 249
SWIDTH 577 0
DWIDTH 5 0
BBX 5 7 0 0
BITMAP
007300
000000
0B00B0
1A0290
470660
740C30
4B8A00
ENDCHAR
STARTCHAR uacute
ENCODING 250
SWIDTH 577 0
DWIDTH 5 0
BBX 5 7 0 0
BITMAP
000830
000000
0B00B0
1A0290
470660
740C30
4B8A00
ENDCHAR
STARTCHAR ucircumflex
ENCODING 251
SWIDTH 577 0
DWIDTH 5 0
BBX 5 7 0 0
BITMAP
007B30
000000
0B00B0
1A0290
470660
740C30
4B8A00
ENDCHAR
STARTCHAR udieresis
ENCODING 252
SWIDTH 577 0
DWIDTH 5 0
BBX 5 7 0 0
BITMAP
008440
000000
0B00B0
1A0290
470660
740C30
4B8A00
ENDCHAR
STARTCHAR yacute
ENCODING 253
SWIDTH 461 0
DWIDTH 4 0
BBX 6 9 -1 -2
BITMAP
000570
000000
074075
0561A0
038830
01AA00
00D200
039000
8A1000
ENDCHAR
STARTCHAR thorn
ENCODING 254
SWIDTH 577 0
DWIDTH 5 0
BBX 6 9 -1 -2
BITMAP
006500
009200
00B7B6
01E21B
04902A
077075
0A8A90
0B0000
1A0000
ENDCHAR
STARTCHAR ydieresis
ENCODING 255
SWIDTH 461 0
DWIDTH 4 0
BBX 6 9 -1 -2
BITMAP
006290
000000
074075
0561A0
038830
01AA00
00D200
039000
8A1000
ENDCHAR
STARTCHAR Amacron
ENCODING 256
SWIDTH 555 0
DWIDTH 5 0
BBX 6 9 -1 0
BITMAP
000796
000000
0004C0
000AB0
0047A1
00B183
04CAC4
0B1056
480038
ENDCHAR
STARTCHAR amacron
ENCODING 257
SWIDTH 564 0
DWIDTH 5 0
BBX 5 7 0 0
BITMAP
009940
000000
06A8A0
2A0590
750660
840D30
3B8A00
ENDCHAR
STARTCHAR Abreve
ENCODING 258
SWIDTH 555 0
DWIDTH 5 0
BBX 6 10 -1 0
BITMAP
000707
0005A4
000000
0004C0
000AB0
0047A1
00B183
04CAC4
0B1056
480038
ENDCHAR
STARTCHAR abreve
ENCODING 259
SWIDTH 564 0
DWIDTH 5 0
BBX 5 8 0 0
BITMAP
007070
007A20
000000
06A8A0
2A0590
750660
840D30
3B8A00
ENDCHAR
STARTCHAR Aogonek
ENCODING 260
SWIDTH 555 0
DWIDTH 5 0
BBX 6 9 -1 -2
BITMAP
0004C0
000AB0
0047A1
00B183
04CAC4
0B1056
480038
000081
0000A1
ENDCHAR
STARTCHAR aogonek
ENCODING 261
SWIDTH 564 0
DWIDTH 5 0
BBX 5 7 0 -2
BITMAP
06A8A0
2A0590
750660
840D30
3B8A00
004400
007500
ENDCHAR
STARTCHAR Cacute
ENCODING 262
SWIDTH 584 0
DWIDTH 5 0
BBX 6 9 0 0
BITMAP
000182
000000
007BA6
077000
1C0000
480000
570000
2B0000
07BA50
ENDCHAR
STARTCHAR cacute
ENCODING 263
SWIDTH 450 0
DWIDTH 4 0
BBX 5 7 0 0
BITMAP
001820
000000
06AA00
3A0000
750000
840000
2B9400
ENDCHAR
STARTCHAR Ccircumflex
ENCODING 264
SWIDTH 584 0
DWIDTH 5 0
BBX 6 9 0 0
BITMAP
0018A2
000000
007BA6
077000
1C0000
480000
570000
2B0000
07BA50
ENDCHAR
STARTCHAR ccircumflex
ENCODING 265
SWIDTH 450 0
DWIDTH 4 0
BBX 5 7 0 0
BITMAP
028A10
000000
06AA00
3A0000
750000
840000
2B9400
ENDCHAR
STARTCHAR Cdot
ENCODING 266
SWIDTH 584 0
DWIDTH 5 0
BBX 6 9 0 0
BITMAP
000460
000000
007BA6
077000
1C0000
480000
570000
2B0000
07BA50
ENDCHAR
STARTCHAR cdot
ENCODING 267
SWIDTH 450 0
DWIDTH 4 0
BBX 4 7 0 0
BITMAP
0036
0000
06AA
3A00
7500
8400
2B94
ENDCHAR
STARTCHAR Ccaron
ENCODING 268
SWIDTH 584 0
DWIDTH 5 0
BBX 6 9 0 0
BITMAP
001A92
000000
007BA6
077000
1C0000
480000
570000
2B0000
07BA50
ENDCHAR
STARTCHAR ccaron
ENCODING 269
SWIDTH 450 0
DWIDTH 4 0
BBX 5 7 0 0
BITMAP
01A920
000000
06AA00
3A0000
750000
840000
2B9400
ENDCHAR
STARTCHAR Dcaron
ENCODING 270
SWIDTH 666 0
DWIDTH 6 0
BBX 6 9 0 0
BITMAP
003B70
000000
05BAA1
083067
0B002A
0B002A
290066
5602C1
8BAA20
ENDCHAR
STARTCHAR dcaron
ENCODING 271
SWIDTH 577 0
DWIDTH 5 0
BBX 7 7 0 0
BITMAP
00007760
0000A100
06A8B000
2A049000
75056000
840D3000
4B8B0000
ENDCHAR
STARTCHAR Dcroat
ENCODING 272
SWIDTH 666 0
DWIDTH 6 0
BBX 6 7 0 0
BITMAP
06BAA1
093067
0B002A
6DA22A
390066
5602C1
8BAA20
ENDCHAR
STARTCHAR dcroat
ENCODING 273
SWIDTH 577 0
DWIDTH 5 0
BBX 6 7 0 0
BITMAP
000074
0028D7
06A8B0
3A04A0
750670
840D30
4B8B00
ENDCHAR
STARTCHAR Emacron
ENCODING 274
SWIDTH 511 0
DWIDTH 5 0
BBX 5 9 0 0
BITMAP
007960
000000
05CA90
083000
0B0000
0DAA20
290000
560000
8CA700
ENDCHAR
STARTCHAR emacron
ENCODING 275
SWIDTH 493 0
DWIDTH 4 0
BBX 5 7 0 0
BITMAP
019920
000000
06AB10
392B10
7A7200
840000
2B9600
ENDCHAR
STARTCHAR Ebreve
ENCODING 276
SWIDTH 511 0
DWIDTH 5 0
BBX 5 10 0 0
BITMAP
007070
005A50
000000
05CA90
083000
0B0000
0DAA20
290000
560000
8CA700
ENDCHAR
STARTCHAR ebreve
ENCODING 277
SWIDTH 493 0
DWIDTH 4 0
BBX 5 8 0 0
BITMAP
016250
009900
000000
06AB10
392B10
7A7200
840000
2B9600
ENDCHAR
STARTCHAR Edotaccent
ENCODING 278
SWIDTH 511 0
DWIDTH 5 0
BBX 5 9 0 0
BITMAP
000900
000000
05CA90
083000
0B0000
0DAA20
290000
560000
8CA700
ENDCHAR
STARTCHAR edotaccent
ENCODING 279
SWIDTH 493 0
DWIDTH 4 0
BBX 5 7 0 0
BITMAP
005500
000000
06AB10
392B10
7A7200
840000
2B9600
ENDCHAR
STARTCHAR Eogonek
ENCODING 280
SWIDTH 511 0
DWIDTH 5 0
BBX 5 9 0 -2
BITMAP
05CA90
083000
0B0000
0DAA20
290000
560000
8CA700
008100
00A100
ENDCHAR
STARTCHAR eogonek
ENCODING 281
SWIDTH 493 0
DWIDTH 4 0
BBX 5 7 0 -2
BITMAP
06AB10
392B10
7A7200
840000
2B9600
018000
02A000
ENDCHAR
STARTCHAR Ecaron
ENCODING 282
SWIDTH 511 0
DWIDTH 5 0
BBX 5 9 0 0
BITMAP
006A50
000000
05CA90
083000
0B0000
0DAA20
290000
560000
8CA700
ENDCHAR
STARTCHAR ecaron
ENCODING 283
SWIDTH 493 0
DWIDTH 4 0
BBX 5 7 0 0
BITMAP
01A920
000000
06AB10
392B10
7A7200
840000
2B9600
ENDCHAR
STARTCHAR Gcircumflex
ENCODING 284
SWIDTH 676 0
DWIDTH 6 0
BBX 6 9 0 0
BITMAP
0018A1
000000
007BA9
077000
1C0000
4805C8
570065
2B0092
06BAB0
ENDCHAR
STARTCHAR gcircumflex
ENCODING 285
SWIDTH 500 0
DWIDTH 5 0
BBX 6 9 -1 -2
BITMAP
0029A0
000000
0099E6
0470B0
02B960
054000
07B820
5614A0
4A9A30
ENDCHAR
STARTCHAR Gbreve
ENCODING 286
SWIDTH 676 0
DWIDTH 6 0
BBX 6 10 0 0
BITMAP
001625
000990
000000
007BA9
077000
1C0000
4805C8
570065
2B0092
06BAB0
ENDCHAR
STARTCHAR gbreve
ENCODING 287
SWIDTH 500 0
DWIDTH 5 0
BBX 6 10 -1 -2
BITMAP
003443
000A90
000000
0099E6
0470B0
02B960
054000
07B820
5614A0
4A9A30
ENDCHAR
STARTCHAR Gdot
ENCODING 288
SWIDTH 676 0
DWIDTH 6 0
BBX 6 9 0 0
BITMAP
000360
000000
007BA9
077000
1C0000
4805C8
570065
2B0092
06BAB0
ENDCHAR
STARTCHAR gdot
ENCODING 289
SWIDTH 500 0
DWIDTH 5 0
BBX 6 9 -1 -2
BITMAP
000370
000000
0099E6
0470B0
02B960
054000
07B820
5614A0
4A9A30
ENDCHAR
STARTCHAR Gcommaaccent
ENCODING 290
SWIDTH 676 0
DWIDTH 6 0
BBX 6 9 0 -2
BITMAP
007BA9
077000
1C0000
4805C8
570065
2B0092
06BAB0
000000
008100
ENDCHAR
STARTCHAR gcommaaccent
ENCODING 291
SWIDTH 500 0
DWIDTH 5 0
BBX 6 9 -1 -2
BITMAP
000180
000000
0099E6
0470B0
02B960
054000
07B820
5614A0
4A9A30
ENDCHAR
STARTCHAR Hcircumflex
ENCODING 292
SWIDTH 678 0
DWIDTH 6 0
BBX 7 9 0 0
BITMAP
0018A100
00000000
05600A10
08300B00
0B001A00
0DAAC700
29008400
5600A100
8300B000
ENDCHAR
STARTCHAR hcircumflex
ENCODING 293
SWIDTH 577 0
DWIDTH 5 0
BBX 5 7 0 0
BITMAP
06AA50
092000
0B7A60
1E22A0
390470
650740
A20A10
ENDCHAR
STARTCHAR Hbar
ENCODING 294
SWIDTH 678 0
DWIDTH 6 0
BBX 7 7 0 0
BITMAP
06600B10
4DA99E60
0C002900
0DAAC700
39008400
5600A100
8300B000
ENDCHAR
STARTCHAR hbar
ENCODING 295
SWIDTH 577 0
DWIDTH 5 0
BBX 5 7 0 0
BITMAP
065000
1D9600
0A8B60
0D2290
380470
640740
910A10
ENDCHAR
STARTCHAR Itilde
ENCODING 296
SWIDTH 272 0
DWIDTH 2 0
BBX 4 10 0 0
BITMAP
0A46
4386
0000
0560
0830
0B00
0B00
2900
5600
8300
ENDCHAR
STARTCHAR itilde
ENCODING 297
SWIDTH 253 0
DWIDTH 2 0
BBX 4 8 0 0
BITMAP
4A16
72A2
0000
0B00
1B00
3800
6500
A200
ENDCHAR
STARTCHAR Imacron
ENCODING 298
SWIDTH 272 0
DWIDTH 2 0
BBX 4 9 0 0
BITMAP
0994
0000
0560
0830
0B00
0B00
2900
5600
8300
ENDCHAR
STARTCHAR imacron
ENCODING 299
SWIDTH 253 0
DWIDTH 2 0
BBX 3 7 0 0
BITMAP
3990
0000
0B00
1B00
3800
6500
A200
ENDCHAR
STARTCHAR Ibreve
ENCODING 300
SWIDTH 272 0
DWIDTH 2 0
BBX 4 10 0 0
BITMAP
0707
07A2
0000
0560
0830
0B00
0B00
2900
5600
8300
ENDCHAR
STARTCHAR ibreve
ENCODING 301
SWIDTH 253 0
DWIDTH 2 0
BBX 4 8 0 0
BITMAP
5261
1A80
0000
0B00
1B00
3800
6500
A200
ENDCHAR
STARTCHAR Iogonek
ENCODING 302
SWIDTH 272 0
DWIDTH 2 0
BBX 4 9 -1 -2
BITMAP
0056
0083
00B0
00B0
0290
0560
0830
1700
3900
ENDCHAR
STARTCHAR iogonek
ENCODING 303
SWIDTH 253 0
DWIDTH 2 0
BBX 4 9 -1 -2
BITMAP
0054
0000
00B0
01B0
0380
0650
0A20
2600
5700
ENDCHAR
STARTCHAR Idotaccent
ENCODING 304
SWIDTH 272 0
DWIDTH 2 0
BBX 3 9 0 0
BITMAP
0190
0000
0560
0830
0B00
0B00
2900
5600
8300
ENDCHAR
STARTCHAR dotlessi
ENCODING 305
SWIDTH 253 0
DWIDTH 2 0
BBX 2 5 0 0
BITMAP
0B
1B
38
65
A2
ENDCHAR
STARTCHAR IJ
ENCODING 306
SWIDTH 540 0
DWIDTH 5 0
BBX 5 9 0 -2
BITMAP
0560B0
0831A0
0B0470
0B0740
290A10
560B00
831A00
004700
09B100
ENDCHAR
STARTCHAR ij
ENCODING 307
SWIDTH 507 0
DWIDTH 5 0
BBX 5 9 0 -2
BITMAP
054270
000000
0B0830
1B0B00
380B00
653800
A26500
009200
089000
ENDCHAR
STARTCHAR Jcircumflex
ENCODING 308
SWIDTH 267 0
DWIDTH 2 0
BBX 6 11 -2 -2
BITMAP
0007B3
000000
000560
000830
000B00
000B00
002900
005700
007400
00B100
4B7000
ENDCHAR
STARTCHAR jcircumflex
ENCODING 309
SWIDTH 253 0
DWIDTH 2 0
BBX 5 9 -2 -2
BITMAP
003990
000000
000B00
001A00
004700
007400
00A100
00B000
1A6000
ENDCHAR
STARTCHAR Kcommaaccent
ENCODING 310
SWIDTH 557 0
DWIDTH 5 0
BBX 6 9 0 -2
BITMAP
056085
083760
0B6800
0DC300
293900
560B00
830750
000000
054000
ENDCHAR
STARTCHAR kcommaaccent
ENCODING 311
SWIDTH 487 0
DWIDTH 4 0
BBX 5 9 0 -2
BITMAP
065000
092000
0B0930
1A9300
3DB000
759300
A12A00
000000
081000
ENDCHAR
STARTCHAR kgreenlandic
ENCODING 312
SWIDTH 487 0
DWIDTH 4 0
BBX 5 5 0 0
BITMAP
0B0930
1A9300
4DB000
759300
A12A00
ENDCHAR
STARTCHAR Lacute
ENCODING 313
SWIDTH 474 0
DWIDTH 4 0
BBX 4 9 0 0
BITMAP
0074
0000
0560
0830
0B00
0B00
2900
5600
8CA7
ENDCHAR
STARTCHAR lacute
ENCODING 314
SWIDTH 253 0
DWIDTH 2 0
BBX 4 7 0 0
BITMAP
07D3
0920
0B00
1B00
3800
7400
A100
ENDCHAR
STARTCHAR Lcommaaccent
ENCODING 315
SWIDTH 474 0
DWIDTH 4 0
BBX 4 9 0 -2
BITMAP
0560
0830
0B00
0B00
2900
5600
8CA7
0000
0450
ENDCHAR
STARTCHAR lcommaaccent
ENCODING 316
SWIDTH 253 0
DWIDTH 2 0
BBX 4 9 -1 -2
BITMAP
0065
0092
00B0
01B0
0380
0740
0A10
0000
2700
ENDCHAR
STARTCHAR Lcaron
ENCODING 317
SWIDTH 474 0
DWIDTH 4 0
BBX 5 7 0 0
BITMAP
056540
083000
0B0000
0B0000
290000
560000
8CA700
ENDCHAR
STARTCHAR lcaron
ENCODING 318
SWIDTH 253 0
DWIDTH 2 0
BBX 4 7 0 0
BITMAP
0687
0920
0B00
1B00
3800
7400
A100
ENDCHAR
STARTCHAR Ldot
ENCODING 319
SWIDTH 474 0
DWIDTH 4 0
BBX 4 7 0 0
BITMAP
0560
0830
0B00
0B0A
2900
5600
8CA7
ENDCHAR
STARTCHAR ldot
ENCODING 320
SWIDTH 283 0
DWIDTH 3 0
BBX 3 7 0 0
BITMAP
0650
0920
0B00
1B90
3800
7400
A100
ENDCHAR
STARTCHAR Lslash
ENCODING 321
SWIDTH 474 0
DWIDTH 4 0
BBX 4 7 0 0
BITMAP
0560
0830
0B10
0D90
8A00
5700
8CA7
ENDCHAR
STARTCHAR lslash
ENCODING 322
SWIDTH 250 0
DWIDTH 2 0
BBX 3 7 0 0
BITMAP
0650
0920
0B00
0E40
A800
6500
A100
ENDCHAR
STARTCHAR Nacute
ENCODING 323
SWIDTH 702 0
DWIDTH 6 0
BBX 7 9 0 0
BITMAP
00018200
00000000
05A00740
08B10A10
0A560B00
0B1A1A00
290A5700
5605C400
8300E100
ENDCHAR
STARTCHAR nacute
ENCODING 324
SWIDTH 577 0
DWIDTH 5 0
BBX 5 7 0 0
BITMAP
000830
000000
0A7A60
1E22A0
390470
650740
A20A10
ENDCHAR
STARTCHAR Ncommaaccent
ENCODING 325
SWIDTH 702 0
DWIDTH 6 0
BBX 7 9 0 -2
BITMAP
05A00740
08B10A10
0A560B00
0B1A1A00
290A5700
5605C400
8300E100
00000000
01800000
ENDCHAR
STARTCHAR ncommaaccent
ENCODING 326
SWIDTH 577 0
DWIDTH 5 0
BBX 5 7 0 -2
BITMAP
0A7A60
1E22A0
390470
650740
A20A10
000000
082000
ENDCHAR
STARTCHAR Ncaron
ENCODING 327
SWIDTH 702 0
DWIDTH 6 0
BBX 7 9 0 0
BITMAP
000A9200
00000000
05A00740
08B10A10
0A560B00
0B1A1A00
290A5700
5605C400
8300E100
ENDCHAR
STARTCHAR ncaron
ENCODING 328
SWIDTH 577 0
DWIDTH 5 0
BBX 5 7 0 0
BITMAP
008930
000000
0A7A60
1E22A0
390470
650740
A20A10
ENDCHAR
STARTCHAR napostrophe
ENCODING 329
SWIDTH 645 0
DWIDTH 6 0
BBX 6 7 0 0
BITMAP
0C1000
550000
0398C2
06A074
0930A1
0B00B0
1A01A0
ENDCHAR
STARTCHAR Eng
ENCODING 330
SWIDTH 702 0
DWIDTH 6 0
BBX 7 9 0 -2
BITMAP
05B00740
08C10A10
0B560B00
0B1A1A00
290A5700
5605C500
8300E200
0000B000
005B5000
ENDCHAR
STARTCHAR eng
ENCODING 331
SWIDTH 577 0
DWIDTH 5 0
BBX 5 7 0 -2
BITMAP
0A7A60
1E22A0
390470
650840
A20B10
000B00
02B600
ENDCHAR
STARTCHAR Omacron
ENCODING 332
SWIDTH 720 0
DWIDTH 6 0
BBX 7 9 0 0
BITMAP
00199200
00000000
009AB500
09500C00
1B000920
48000A20
57000C00
2B007800
06BA8000
ENDCHAR
STARTCHAR omacron
ENCODING 333
SWIDTH 561 0
DWIDTH 5 0
BBX 5 7 0 0
BITMAP
019920
000000
07AB20
390380
740480
840840
2AA700
ENDCHAR
STARTCHAR Obreve
ENCODING 334
SWIDTH 720 0
DWIDTH 6 0
BBX 7 10 0 0
BITMAP
00253400
000A9000
00000000
009AB500
09500C00
1B000920
48000A20
57000C00
2B007800
06BA8000
ENDCHAR
STARTCHAR obreve
ENCODING 335
SWIDTH 561 0
DWIDTH 5 0
BBX 5 8 0 0
BITMAP
016250
009900
000000
07AB20
390380
740480
840840
2AA700
ENDCHAR
STARTCHAR Ohungarumlaut
ENCODING 336
SWIDTH 720 0
DWIDTH 6 0
BBX 7 9 0 0
BITMAP
00066710
00000000
009AB500
09500C00
1B000920
48000A20
57000C00
2B007800
06BA8000
ENDCHAR
STARTCHAR ohungarumlaut
ENCODING 337
SWIDTH 561 0
DWIDTH 5 0
BBX 5 7 0 0
BITMAP
007670
000000
07AB20
390380
740480
840840
2AA700
ENDCHAR
STARTCHAR OE
ENCODING 338
SWIDTH 854 0
DWIDTH 8 0
BBX 8 7 0 0
BITMAP
009ACCAA
09507400
1B00A100
4800CAA2
5701A000
2B048000
06BCDB90
ENDCHAR
STARTCHAR oe
ENCODING 339
SWIDTH 863 0
DWIDTH 8 0
BBX 8 5 0 0
BITMAP
07AA4AB4
3903D185
7403C840
84089000
2A969990
ENDCHAR
STARTCHAR Racute
ENCODING 340
SWIDTH 568 0
DWIDTH 5 0
BBX 6 9 0 0
BITMAP
000750
000000
05BA90
0820B1
0A03B0
0CAB10
280B00
560A10
830660
ENDCHAR
STARTCHAR racute
ENCODING 341
SWIDTH 395 0
DWIDTH 4 0
BBX 4 7 0 0
BITMAP
0047
0000
0A87
1E10
3800
6500
A200
ENDCHAR
STARTCHAR Rcommaaccent
ENCODING 342
SWIDTH 568 0
DWIDTH 5 0
BBX 6 9 0 -2
BITMAP
05BA90
0820B1
0A03B0
0CAB10
280B00
560A10
830660
000000
045000
ENDCHAR
STARTCHAR rcommaaccent
ENCODING 343
SWIDTH 395 0
DWIDTH 4 0
BBX 5 7 -1 -2
BITMAP
00A870
01E100
038000
065000
0A2000
000000
370000
ENDCHAR
STARTCHAR Rcaron
ENCODING 344
SWIDTH 568 0
DWIDTH 5 0
BBX 6 9 0 0
BITMAP
005A50
000000
05BA90
0820B1
0A03B0
0CAB10
280B00
560A10
830660
ENDCHAR
STARTCHAR rcaron
ENCODING 345
SWIDTH 395 0
DWIDTH 4 0
BBX 4 7 0 0
BITMAP
03B7
0000
0A87
1E10
3800
6500
A200
ENDCHAR
STARTCHAR Sacute
ENCODING 346
SWIDTH 501 0
DWIDTH 5 0
BBX 5 9 0 0
BITMAP
000830
000000
05BA60
0C0000
0C1000
04C400
001D00
000C00
9AB500
ENDCHAR
STARTCHAR sacute
ENCODING 347
SWIDTH 428 0
DWIDTH 4 0
BBX 4 7 0 0
BITMAP
0056
0000
2BA6
5700
0990
00A3
A9A0
ENDCHAR
STARTCHAR Scircumflex
ENCODING 348
SWIDTH 501 0
DWIDTH 5 0
BBX 5 9 0 0
BITMAP
017B20
000000
05BA60
0C0000
0C1000
04C400
001D00
000C00
9AB500
ENDCHAR
STARTCHAR scircumflex
ENCODING 349
SWIDTH 428 0
DWIDTH 4 0
BBX 4 7 0 0
BITMAP
05A6
0000
2BA6
5700
0990
00A3
A9A0
ENDCHAR
STARTCHAR Scedilla
ENCODING 350
SWIDTH 501 0
DWIDTH 5 0
BBX 5 9 0 -2
BITMAP
05BA60
0C0000
0C1000
04C400
001D00
000C00
9AB500
081000
293000
ENDCHAR
STARTCHAR scedilla
ENCODING 351
SWIDTH 428 0
DWIDTH 4 0
BBX 4 7 0 -2
BITMAP
2BA6
5700
0990
00A3
A9A0
0900
4900
ENDCHAR
STARTCHAR Scaron
ENCODING 352
SWIDTH 501 0
DWIDTH 5 0
BBX 5 9 0 0
BITMAP
00A920
000000
05BA60
0C0000
0C1000
04C400
001D00
000C00
9AB500
ENDCHAR
STARTCHAR scaron
ENCODING 353
SWIDTH 428 0
DWIDTH 4 0
BBX 4 7 0 0
BITMAP
06A5
0000
2BA6
5700
0990
00A3
A9A0
ENDCHAR
STARTCHAR Tcedilla
ENCODING 354
SWIDTH 498 0
DWIDTH 4 0
BBX 6 9 0 -2
BITMAP
1ACCA2
008300
00B000
00B000
029000
056000
084000
081000
293000
ENDCHAR
STARTCHAR tcedilla
ENCODING 355
SWIDTH 324 0
DWIDTH 3 0
BBX 4 8 0 -2
BITMAP
0820
4D81
1A00
4700
6500
4B30
2800
5800
ENDCHAR
STARTCHAR Tcaron
ENCODING 356
SWIDTH 498 0
DWIDTH 4 0
BBX 6 9 0 0
BITMAP
008A40
000000
1ACCA2
008300
00B000
00B000
029000
056000
084000
ENDCHAR
STARTCHAR tcaron
ENCODING 357
SWIDTH 324 0
DWIDTH 3 0
BBX 5 7 0 0
BITMAP
000910
082000
4D8100
1A0000
470000
650000
4B3000
ENDCHAR
STARTCHAR Tbar
ENCODING 358
SWIDTH 498 0
DWIDTH 4 0
BBX 6 7 0 0
BITMAP
1ACCA2
009300
00B000
29D910
029000
056000
083000
ENDCHAR
STARTCHAR tbar
ENCODING 359
SWIDTH 324 0
DWIDTH 3 0
BBX 4 6 0 0
BITMAP
0820
4D81
0B00
8C60
6500
5B30
ENDCHAR
STARTCHAR Utilde
ENCODING 360
SWIDTH 675 0
DWIDTH 6 0
BBX 7 10 0 0
BITMAP
002B1600
0061A300
00000000
07500A10
0A200B00
0B001A00
1B004700
38007400
3800B000
0AAA4000
ENDCHAR
STARTCHAR utilde
ENCODING 361
SWIDTH 577 0
DWIDTH 5 0
BBX 5 8 0 0
BITMAP
00A460
033860
000000
0B00B0
1A0290
470660
740C30
4B8A00
ENDCHAR
STARTCHAR Umacron
ENCODING 362
SWIDTH 675 0
DWIDTH 6 0
BBX 7 9 0 0
BITMAP
00299200
00000000
07500A10
0A200B00
0B001A00
1B004700
38007400
3800B000
0AAA4000
ENDCHAR
STARTCHAR umacron
ENCODING 363
SWIDTH 577 0
DWIDTH 5 0
BBX 5 7 0 0
BITMAP
009940
000000
0B00B0
1A0290
470660
740C30
4B8A00
ENDCHAR
STARTCHAR Ubreve
ENCODING 364
SWIDTH 675 0
DWIDTH 6 0
BBX 7 10 0 0
BITMAP
00253400
000A9000
00000000
07500A10
0A200B00
0B001A00
1B004700
38007400
3800B000
0AAA4000
ENDCHAR
STARTCHAR ubreve
ENCODING 365
SWIDTH 577 0
DWIDTH 5 0
BBX 5 8 0 0
BITMAP
007160
008A10
000000
0B00B0
1A0290
470660
740C30
4B8A00
ENDCHAR
STARTCHAR Uring
ENCODING 366
SWIDTH 675 0
DWIDTH 6 0
BBX 7 10 0 0
BITMAP
00088000
00088000
00000000
07500A10
0A200B00
0B001A00
1B004700
38007400
3800B000
0AAA4000
ENDCHAR
STARTCHAR uring
ENCODING 367
SWIDTH 577 0
DWIDTH 5 0
BBX 5 8 0 0
BITMAP
007910
006910
000000
0B00B0
1A0290
470660
740C30
4B8A00
ENDCHAR
STARTCHAR Uhungarumlaut
ENCODING 368
SWIDTH 675 0
DWIDTH 6 0
BBX 7 9 0 0
BITMAP
00076700
00000000
07500A10
0A200B00
0B001A00
1B004700
38007400
3800B000
0AAA4000
ENDCHAR
STARTCHAR uhungarumlaut
ENCODING 369
SWIDTH 577 0
DWIDTH 5 0
BBX 6 7 0 0
BITMAP
006671
000000
0B00B0
1A0290
470660
740C30
4B8A00
ENDCHAR
STARTCHAR Uogonek
ENCODING 370
SWIDTH 675 0
DWIDTH 6 0
BBX 7 9 0 -2
BITMAP
07500A10
0A200B00
0B001A00
1B004700
38007400
3800B000
0AAA4000
00620000
00930000
ENDCHAR
STARTCHAR uogonek
ENCODING 371
SWIDTH 577 0
DWIDTH 5 0
BBX 5 7 0 -2
BITMAP
0B00B0
1A0290
470660
740C30
4B8A00
004400
007500
ENDCHAR
STARTCHAR Wcircumflex
ENCODING 372
SWIDTH 852 0
DWIDTH 8 0
BBX 8 9 1 0
BITMAP
00399000
00000000
B00D2083
B05C30B0
B0A73560
B3864A10
B9257800
A904C200
C304B000
ENDCHAR
STARTCHAR wcircumflex
ENCODING 373
SWIDTH 716 0
DWIDTH 6 0
BBX 7 7 0 0
BITMAP
00398000
00000000
741E0380
647A1A20
65974A00
5A46A300
5C06B000
ENDCHAR
STARTCHAR Ycircumflex
ENCODING 374
SWIDTH 502 0
DWIDTH 5 0
BBX 6 9 0 0
BITMAP
018A10
000000
1A00B2
0B0660
093B00
05D300
039000
056000
083000
ENDCHAR
STARTCHAR ycircumflex
ENCODING 375
SWIDTH 461 0
DWIDTH 4 0
BBX 6 9 -1 -2
BITMAP
004A60
000000
074075
0561A0
038830
01AA00
00D200
039000
8A1000
ENDCHAR
STARTCHAR Ydieresis
ENCODING 376
SWIDTH 502 0
DWIDTH 5 0
BBX 6 9 0 0
BITMAP
008440
000000
1A00B2
0B0660
093B00
05D300
039000
056000
083000
ENDCHAR
STARTCHAR Zacute
ENCODING 377
SWIDTH 530 0
DWIDTH 5 0
BBX 6 9 0 0
BITMAP
000750
000000
07AAE1
000760
003A00
01B100
094000
580000
EBAA00
ENDCHAR
STARTCHAR zacute
ENCODING 378
SWIDTH 443 0
DWIDTH 4 0
BBX 5 7 -1 0
BITMAP
000470
000000
0089C0
000A20
007500
048000
1E8810
ENDCHAR
STARTCHAR Zdotaccent
ENCODING 379
SWIDTH 530 0
DWIDTH 5 0
BBX 6 9 0 0
BITMAP
000900
000000
07AAE1
000760
003A00
01B100
094000
580000
EBAA00
ENDCHAR
STARTCHAR zdotaccent
ENCODING 380
SWIDTH 443 0
DWIDTH 4 0
BBX 5 7 -1 0
BITMAP
000900
000000
0089C0
000A20
007500
048000
1E8810
ENDCHAR
STARTCHAR Zcaron
ENCODING 381
SWIDTH 530 0
DWIDTH 5 0
BBX 6 9 0 0
BITMAP
006A50
000000
07AAE1
000760
003A00
01B100
094000
580000
EBAA00
ENDCHAR
STARTCHAR zcaron
ENCODING 382
SWIDTH 443 0
DWIDTH 4 0
BBX 5 7 -1 0
BITMAP
003B70
000000
0089C0
000A20
007500
048000
1E8810
ENDCHAR
STARTCHAR longs
ENCODING 383
SWIDTH 274 0
DWIDTH 2 0
BBX 6 9 -2 -2
BITMAP
0003B7
000920
000B00
001A00
004700
007400
00A100
00B000
1A6000
ENDCHAR
STARTCHAR florin
ENCODING 402
SWIDTH 550 0
DWIDTH 5 0
BBX 5 9 0 -2
BITMAP
003B80
009200
03D800
00B000
038000
065000
083000
0B0000
970000
ENDCHAR
STARTCHAR Ohorn
ENCODING 416
SWIDTH 713 0
DWIDTH 6 0
BBX 8 7 0 0
BITMAP
009AB593
09500D40
1B000920
48000A20
57000C00
2B007700
06BA8000
ENDCHAR
STARTCHAR ohorn
ENCODING 417
SWIDTH 561 0
DWIDTH 5 0
BBX 6 6 0 0
BITMAP
00001B
07AA93
390380
740480
840840
2AA700
ENDCHAR
STARTCHAR Uhorn
ENCODING 431
SWIDTH 722 0
DWIDTH 7 0
BBX 8 7 0 0
BITMAP
07500A88
0A200C40
0B001A00
1B004700
38007400
3800B000
09AB4000
ENDCHAR
STARTCHAR uhorn
ENCODING 432
SWIDTH 617 0
DWIDTH 6 0
BBX 7 6 0 0
BITMAP
00000660
0B00D900
1A029000
47066000
740C3000
4B8A0000
ENDCHAR
STARTCHAR uni01F0
ENCODING 496
SWIDTH 253 0
DWIDTH 2 0
BBX 6 9 -2 -2
BITMAP
001A81
000000
000B00
001A00
004700
007400
00A100
00B000
1A6000
ENDCHAR
STARTCHAR Aringacute
ENCODING 506
SWIDTH 555 0
DWIDTH 5 0
BBX 6 9 -1 0
BITMAP
000076
000592
000753
0009C0
0039A1
00A182
03CAC4
0A1056
480038
ENDCHAR
STARTCHAR aringacute
ENCODING 507
SWIDTH 564 0
DWIDTH 5 0
BBX 5 9 0 0
BITMAP
000850
000000
008910
003500
06A8A0
2A0590
750660
840D30
3B8A00
ENDCHAR
STARTCHAR AEacute
ENCODING 508
SWIDTH 816 0
DWIDTH 7 0
BBX 9 9 -1 0
BITMAP
0000007500
0000000000
0000ADAA70
00047B0000
000B1B0000
00753CA900
01CAD60000
0930930000
3900CAA400
ENDCHAR
STARTCHAR aeacute
ENCODING 509
SWIDTH 814 0
DWIDTH 7 0
BBX 8 7 0 0
BITMAP
00006500
00000000
06A7B9B1
2A0782B1
7508A720
842E3000
4B7AB960
ENDCHAR
STARTCHAR Oslashacute
ENCODING 510
SWIDTH 720 0
DWIDTH 6 0
BBX 7 10 0 -1
BITMAP
00028100
00000100
009ABB30
09507D10
1B039A30
481B1A20
57A30C00
2E607800
3BBA8000
10000000
ENDCHAR
STARTCHAR oslashacute
ENCODING 511
SWIDTH 561 0
DWIDTH 5 0
BBX 5 7 0 0
BITMAP
002820
000000
07AB70
392B80
74A480
7B3830
6CA700
ENDCHAR
STARTCHAR Scommaaccent
ENCODING 536
SWIDTH 501 0
DWIDTH 5 0
BBX 5 9 0 -2
BITMAP
05BA60
0C0000
0C1000
04C400
001D00
000C00
9AB500
000000
190000
ENDCHAR
STARTCHAR scommaaccent
ENCODING 537
SWIDTH 428 0
DWIDTH 4 0
BBX 4 7 0 -2
BITMAP
2BA6
5700
0990
00A3
A9A0
0000
4600
ENDCHAR
STARTCHAR Tcommaaccent
ENCODING 538
SWIDTH 498 0
DWIDTH 4 0
BBX 6 9 0 -2
BITMAP
1ACCA2
008300
00B000
00B000
029000
056000
084000
000000
280000
ENDCHAR
STARTCHAR tcommaaccent
ENCODING 539
SWIDTH 324 0
DWIDTH 3 0
BBX 4 8 0 -2
BITMAP
0820
4D81
1A00
4700
6500
4B30
0000
6400
ENDCHAR
STARTCHAR dotlessj
ENCODING 567
SWIDTH 253 0
DWIDTH 2 0
BBX 4 7 -2 -2
BITMAP
000B
001A
0047
0074
00A1
00B0
1A60
ENDCHAR
STARTCHAR uni02BC
ENCODING 700
SWIDTH 169 0
DWIDTH 2 0
BBX 3 2 0 5
BITMAP
0B20
3700
ENDCHAR
STARTCHAR circumflex
ENCODING 710
SWIDTH 554 0
DWIDTH 5 0
BBX 4 1 1 5
BITMAP
17B2
ENDCHAR
STARTCHAR caron
ENCODING 711
SWIDTH 554 0
DWIDTH 5 0
BBX 3 1 2 5
BITMAP
8930
ENDCHAR
STARTCHAR macron
ENCODING 713
SWIDTH 535 0
DWIDTH 5 0
BBX 4 1 1 5
BITMAP
1992
ENDCHAR
STARTCHAR breve
ENCODING 728
SWIDTH 554 0
DWIDTH 5 0
BBX 3 2 2 5
BITMAP
7070
8A20
ENDCHAR
STARTCHAR dotaccent
ENCODING 729
SWIDTH 243 0
DWIDTH 2 0
BBX 2 1 1 6
BITMAP
73
ENDCHAR
STARTCHAR ring
ENCODING 730
SWIDTH 577 0
DWIDTH 5 0
BBX 3 2 2 5
BITMAP
5830
5830
ENDCHAR
STARTCHAR ogonek
ENCODING 731
SWIDTH 182 0
DWIDTH 2 0
BBX 2 2 -1 -2
BITMAP
44
75
ENDCHAR
STARTCHAR tilde
ENCODING 732
SWIDTH 554 0
DWIDTH 5 0
BBX 4 2 1 5
BITMAP
2B26
61A4
ENDCHAR
STARTCHAR hungarumlaut
ENCODING 733
SWIDTH 554 0
DWIDTH 5 0
BBX 4 1 1 5
BITMAP
1766
ENDCHAR
STARTCHAR uni02F3
ENCODING 755
SWIDTH 333 0
DWIDTH 3 0
BBX 3 2 -1 -3
BITMAP
2860
2860
ENDCHAR
STARTCHAR uni0300
ENCODING 768
SWIDTH 0 0
DWIDTH 0 0
BBX 2 1 -3 5
BITMAP
91
ENDCHAR
STARTCHAR uni0301
ENCODING 769
SWIDTH 0 0
DWIDTH 0 0
BBX 3 1 -3 5
BITMAP
1820
ENDCHAR
STARTCHAR uni0303
ENCODING 771
SWIDTH 0 0
DWIDTH 0 0
BBX 4 2 -4 5
BITMAP
4A16
72A2
ENDCHAR
STARTCHAR hook
ENCODING 777
SWIDTH 0 0
DWIDTH 0 0
BBX 2 2 -3 5
BITMAP
49
64
ENDCHAR
STARTCHAR uni030F
ENCODING 783
SWIDTH 0 0
DWIDTH 0 0
BBX 4 1 -5 5
BITMAP
2883
ENDCHAR
STARTCHAR dotbelow
ENCODING 803
SWIDTH 0 0
DWIDTH 0 0
BBX 2 1 -4 -2
BITMAP
91
ENDCHAR
STARTCHAR tonos
ENCODING 900
SWIDTH 562 0
DWIDTH 5 0
BBX 3 2 2 5
BITMAP
0A20
2800
ENDCHAR
STARTCHAR dieresistonos
ENCODING 901
SWIDTH 562 0
DWIDTH 5 0
BBX 3 2 2 6
BITMAP
0840
9A60
ENDCHAR
STARTCHAR Alphatonos
ENCODING 902
SWIDTH 555 0
DWIDTH 5 0
BBX 6 7 -1 0
BITMAP
00B5C0
036AB0
0047A1
00B183
04CAC4
0B1056
480038
ENDCHAR
STARTCHAR anoteleia
ENCODING 903
SWIDTH 252 0
DWIDTH 2 0
BBX 2 2 0 3
BITMAP
01
2A
ENDCHAR
STARTCHAR Epsilontonos
ENCODING 904
SWIDTH 567 0
DWIDTH 5 0
BBX 6 7 0 0
BITMAP
2ACAA4
73A000
048000
06BA70
092000
0B0000
0EAA20
ENDCHAR
STARTCHAR Etatonos
ENCODING 905
SWIDTH 753 0
DWIDTH 7 0
BBX 7 7 0 0
BITMAP
2AA101A0
72B00380
01A00650
04CAAE20
07400B00
0A100B00
0B003800
ENDCHAR
STARTCHAR Iotatonos
ENCODING 906
SWIDTH 363 0
DWIDTH 3 0
BBX 4 7 0 0
BITMAP
1B83
63B0
00B0
0290
0560
0830
0B10
ENDCHAR
STARTCHAR Omicrontonos
ENCODING 908
SWIDTH 756 0
DWIDTH 7 0
BBX 7 7 0 0
BITMAP
1B5BA900
67A00840
0B200470
0C000570
0C000940
0B202C00
03BAA200
ENDCHAR
STARTCHAR Upsilontonos
ENCODING 910
SWIDTH 640 0
DWIDTH 6 0
BBX 7 7 0 0
BITMAP
2AB00840
72923A00
0055A100
002D6000
000C0000
00290000
00570000
ENDCHAR
STARTCHAR Omegatonos
ENCODING 911
SWIDTH 782 0
DWIDTH 7 0
BBX 7 7 0 0
BITMAP
0B5BAA10
58A00670
0A2002A0
0C000390
0B100840
07504900
6AC3EA30
ENDCHAR
STARTCHAR iotadieresistonos
ENCODING 912
SWIDTH 305 0
DWIDTH 3 0
BBX 4 8 0 0
BITMAP
00C0
49B1
0000
0B00
1A00
4700
7400
5B20
ENDCHAR
STARTCHAR Alpha
ENCODING 913
SWIDTH 555 0
DWIDTH 5 0
BBX 6 7 -1 0
BITMAP
0004C0
000AB0
0047A1
00B183
04CAC4
0B1056
480038
ENDCHAR
STARTCHAR Beta
ENCODING 914
SWIDTH 598 0
DWIDTH 5 0
BBX 6 7 0 0
BITMAP
05BAA1
083084
0B02B1
0DAC40
2901C0
5602B0
8BAA20
ENDCHAR
STARTCHAR Gamma
ENCODING 915
SWIDTH 476 0
DWIDTH 4 0
BBX 5 7 0 0
BITMAP
05CA90
083000
0B0000
0B0000
290000
560000
840000
ENDCHAR
STARTCHAR uni0394
ENCODING 916
SWIDTH 558 0
DWIDTH 5 0
BBX 6 7 -1 0
BITMAP
0003C0
000AB0
0039A0
00A292
039083
0A2065
2EAAC6
ENDCHAR
STARTCHAR Epsilon
ENCODING 917
SWIDTH 511 0
DWIDTH 5 0
BBX 5 7 0 0
BITMAP
05CA90
083000
0B0000
0DAA20
290000
560000
8CA700
ENDCHAR
STARTCHAR Zeta
ENCODING 918
SWIDTH 530 0
DWIDTH 5 0
BBX 6 7 0 0
BITMAP
07AAE1
000760
003A00
01B100
094000
580000
EBAA00
ENDCHAR
STARTCHAR Eta
ENCODING 919
SWIDTH 678 0
DWIDTH 6 0
BBX 7 7 0 0
BITMAP
05600A10
08300B00
0B001A00
0DAAC700
29008400
5600A100
8300B000
ENDCHAR
STARTCHAR Theta
ENCODING 920
SWIDTH 720 0
DWIDTH 6 0
BBX 7 7 0 0
BITMAP
009AB500
09500C00
1B000920
488A6A20
57000C00
2B007800
06BA8000
ENDCHAR
STARTCHAR Iota
ENCODING 921
SWIDTH 272 0
DWIDTH 2 0
BBX 3 7 0 0
BITMAP
0560
0830
0B00
0B00
2900
5600
8300
ENDCHAR
STARTCHAR Kappa
ENCODING 922
SWIDTH 557 0
DWIDTH 5 0
BBX 6 7 0 0
BITMAP
056085
083760
0B6800
0DC300
293900
560B00
830750
ENDCHAR
STARTCHAR Lambda
ENCODING 923
SWIDTH 558 0
DWIDTH 5 0
BBX 6 7 -1 0
BITMAP
0004C0
000AA0
004791
00B183
048065
0B1046
480038
ENDCHAR
STARTCHAR Mu
ENCODING 924
SWIDTH 836 0
DWIDTH 8 0
BBX 8 7 0 0
BITMAP
05D000D7
08B005C4
0B910AA1
0B7365B0
2955A1B0
563C5480
831C0750
ENDCHAR
STARTCHAR Nu
ENCODING 925
SWIDTH 702 0
DWIDTH 6 0
BBX 7 7 0 0
BITMAP
05A00740
08B10A10
0A560B00
0B1A1A00
290A5700
5605C400
8300E100
ENDCHAR
STARTCHAR Xi
ENCODING 926
SWIDTH 517 0
DWIDTH 5 0
BBX 6 7 -1 0
BITMAP
007AA9
000000
000000
008A90
000000
000000
1AAA90
ENDCHAR
STARTCHAR Omicron
ENCODING 927
SWIDTH 720 0
DWIDTH 6 0
BBX 7 7 0 0
BITMAP
009AB500
09500C00
1B000920
48000A20
57000C00
2B007800
06BA8000
ENDCHAR
STARTCHAR Pi
ENCODING 928
SWIDTH 679 0
DWIDTH 6 0
BBX 7 7 0 0
BITMAP
05BAAE10
08300C00
0B002A00
0B004700
29007400
5600A100
8300C000
ENDCHAR
STARTCHAR Rho
ENCODING 929
SWIDTH 565 0
DWIDTH 5 0
BBX 5 7 0 0
BITMAP
05BA70
0830C0
0B10B0
0C05A0
2D9600
570000
840000
ENDCHAR
STARTCHAR Sigma
ENCODING 931
SWIDTH 520 0
DWIDTH 5 0
BBX 6 7 -1 0
BITMAP
00CAAA
007400
001A00
000B00
008400
058000
1EAAA0
ENDCHAR
STARTCHAR Tau
ENCODING 932
SWIDTH 498 0
DWIDTH 4 0
BBX 6 7 0 0
BITMAP
1ACCA2
008300
00B000
00B000
029000
056000
084000
ENDCHAR
STARTCHAR Upsilon
ENCODING 933
SWIDTH 502 0
DWIDTH 5 0
BBX 6 7 0 0
BITMAP
1A00B2
0B0660
093B00
05D300
039000
056000
083000
ENDCHAR
STARTCHAR Phi
ENCODING 934
SWIDTH 744 0
DWIDTH 7 0
BBX 7 7 0 0
BITMAP
00048000
04ACBA00
1B1A2750
470C0750
2B3A4B10
04BB7100
00740000
ENDCHAR
STARTCHAR Chi
ENCODING 935
SWIDTH 519 0
DWIDTH 5 0
BBX 7 7 -1 0
BITMAP
00B00A20
00747500
002B9000
001E1000
00A76000
0661A000
2A00B100
ENDCHAR
STARTCHAR Psi
ENCODING 936
SWIDTH 734 0
DWIDTH 7 0
BBX 7 7 0 0
BITMAP
0B1470C0
0C0741B0
1A0A1480
0C1C2B20
03AD8200
00470000
00750000
ENDCHAR
STARTCHAR uni03A9
ENCODING 937
SWIDTH 732 0
DWIDTH 7 0
BBX 7 7 0 0
BITMAP
019AB500
0A400C10
1B000930
48000A20
39001C00
0B009300
AD5AD900
ENDCHAR
STARTCHAR Iotadieresis
ENCODING 938
SWIDTH 272 0
DWIDTH 2 0
BBX 4 9 0 0
BITMAP
0836
0000
0560
0830
0B00
0B00
2900
5600
8300
ENDCHAR
STARTCHAR Upsilondieresis
ENCODING 939
SWIDTH 502 0
DWIDTH 5 0
BBX 6 9 0 0
BITMAP
008440
000000
1A00B2
0B0660
093B00
05D300
039000
056000
083000
ENDCHAR
STARTCHAR alphatonos
ENCODING 940
SWIDTH 568 0
DWIDTH 5 0
BBX 5 8 0 0
BITMAP
000930
001800
000000
06A8A0
3A0590
750650
841D20
3B8960
ENDCHAR
STARTCHAR epsilontonos
ENCODING 941
SWIDTH 444 0
DWIDTH 4 0
BBX 4 8 0 0
BITMAP
001B
0063
0000
09A9
0B00
2A90
A100
6B94
ENDCHAR
STARTCHAR etatonos
ENCODING 942
SWIDTH 577 0
DWIDTH 5 0
BBX 5 10 0 -2
BITMAP
000930
001800
000000
0A7A60
1E22A0
390470
650840
A20A10
000B00
002900
ENDCHAR
STARTCHAR iotatonos
ENCODING 943
SWIDTH 305 0
DWIDTH 3 0
BBX 3 8 0 0
BITMAP
01B0
0630
0000
0B00
1A00
4700
7400
5B20
ENDCHAR
STARTCHAR upsilondieresistonos
ENCODING 944
SWIDTH 576 0
DWIDTH 5 0
BBX 5 8 0 0
BITMAP
000A20
019B50
000000
0B00B0
1A00B0
470290
650840
2BA800
ENDCHAR
STARTCHAR alpha
ENCODING 945
SWIDTH 568 0
DWIDTH 5 0
BBX 5 5 0 0
BITMAP
06A8A0
3A0590
750650
841D20
3B8960
ENDCHAR
STARTCHAR beta
ENCODING 946
SWIDTH 577 0
DWIDTH 5 0
BBX 6 9 -1 -2
BITMAP
001999
00830B
00B03A
01B6C2
048029
075048
0A99A1
0B0000
1A0000
ENDCHAR
STARTCHAR gamma
ENCODING 947
SWIDTH 458 0
DWIDTH 4 0
BBX 5 7 0 -2
BITMAP
740740
561A00
388300
1A9000
0D2000
290000
740000
ENDCHAR
STARTCHAR delta
ENCODING 948
SWIDTH 553 0
DWIDTH 5 0
BBX 5 7 0 0
BITMAP
00A980
019000
00B500
1A3920
830560
920840
3BA700
ENDCHAR
STARTCHAR epsilon
ENCODING 949
SWIDTH 444 0
DWIDTH 4 0
BBX 4 5 0 0
BITMAP
09A9
0B00
2A90
A100
6B94
ENDCHAR
STARTCHAR zeta
ENCODING 950
SWIDTH 453 0
DWIDTH 4 0
BBX 5 9 0 -2
BITMAP
02AC80
004900
049000
1B0000
650000
840000
3C5000
01B200
01A000
ENDCHAR
STARTCHAR eta
ENCODING 951
SWIDTH 577 0
DWIDTH 5 0
BBX 5 7 0 -2
BITMAP
0A7A60
1E22A0
390470
650840
A20A10
000B00
002900
ENDCHAR
STARTCHAR theta
ENCODING 952
SWIDTH 542 0
DWIDTH 5 0
BBX 5 7 0 0
BITMAP
02AB40
0A11A0
2901A0
6BAB80
830840
831B00
3BA300
ENDCHAR
STARTCHAR iota
ENCODING 953
SWIDTH 305 0
DWIDTH 3 0
BBX 3 5 0 0
BITMAP
0B00
1A00
4700
7400
5B20
ENDCHAR
STARTCHAR kappa
ENCODING 954
SWIDTH 487 0
DWIDTH 4 0
BBX 5 5 0 0
BITMAP
0B0930
1A9300
4DB000
759300
A12A00
ENDCHAR
STARTCHAR lambda
ENCODING 955
SWIDTH 482 0
DWIDTH 4 0
BBX 5 7 -1 0
BITMAP
00A700
000A00
001D00
008B10
029830
092640
4803A0
ENDCHAR
STARTCHAR uni03BC
ENCODING 956
SWIDTH 583 0
DWIDTH 5 0
BBX 6 7 -1 -2
BITMAP
00B00B
01B01A
048057
0750C4
0AA8A1
0B0000
190000
ENDCHAR
STARTCHAR nu
ENCODING 957
SWIDTH 488 0
DWIDTH 4 0
BBX 5 5 0 0
BITMAP
830650
650A10
472A00
289200
0E4000
ENDCHAR
STARTCHAR xi
ENCODING 958
SWIDTH 444 0
DWIDTH 4 0
BBX 5 9 0 -2
BITMAP
03DB30
074000
084000
06A600
660000
930000
4C5000
01B100
01A000
ENDCHAR
STARTCHAR omicron
ENCODING 959
SWIDTH 561 0
DWIDTH 5 0
BBX 5 5 0 0
BITMAP
07AB20
390380
740480
840840
2AA700
ENDCHAR
STARTCHAR pi
ENCODING 960
SWIDTH 600 0
DWIDTH 5 0
BBX 6 5 0 0
BITMAP
4DABC5
0B0650
1A0920
470B00
740A50
ENDCHAR
STARTCHAR rho
ENCODING 961
SWIDTH 570 0
DWIDTH 5 0
BBX 6 7 -1 -2
BITMAP
005AB3
00B02A
03802A
074075
0A9A90
0B0000
1A0000
ENDCHAR
STARTCHAR sigma1
ENCODING 962
SWIDTH 453 0
DWIDTH 4 0
BBX 4 7 0 -2
BITMAP
06A9
3900
7400
8400
2C50
01A2
01A1
ENDCHAR
STARTCHAR sigma
ENCODING 963
SWIDTH 581 0
DWIDTH 5 0
BBX 6 5 0 0
BITMAP
07ACA3
490560
740470
740830
2BA800
ENDCHAR
STARTCHAR tau
ENCODING 964
SWIDTH 417 0
DWIDTH 4 0
BBX 4 5 0 0
BITMAP
4BC9
0740
0A10
0B00
0A90
ENDCHAR
STARTCHAR upsilon
ENCODING 965
SWIDTH 576 0
DWIDTH 5 0
BBX 5 5 0 0
BITMAP
0B00B0
1A00B0
470290
650840
2BA800
ENDCHAR
STARTCHAR phi
ENCODING 966
SWIDTH 669 0
DWIDTH 6 0
BBX 6 7 0 -2
BITMAP
0829B4
393838
736547
7492A2
2ADA50
01A000
047000
ENDCHAR
STARTCHAR chi
ENCODING 967
SWIDTH 502 0
DWIDTH 5 0
BBX 6 7 -1 -2
BITMAP
04B047
0083A0
007C20
007800
03A800
1A1A00
930A60
ENDCHAR
STARTCHAR psi
ENCODING 968
SWIDTH 713 0
DWIDTH 6 0
BBX 7 9 0 -2
BITMAP
00056000
00083000
0B0B0B10
1A0B0B00
47290B00
57556600
1ACB8000
00B00000
00A00000
ENDCHAR
STARTCHAR omega
ENCODING 969
SWIDTH 729 0
DWIDTH 7 0
BBX 7 5 0 0
BITMAP
0A200A10
29000A20
741A0B10
83581B00
4B8AA300
ENDCHAR
STARTCHAR iotadieresis
ENCODING 970
SWIDTH 305 0
DWIDTH 3 0
BBX 3 7 0 0
BITMAP
4490
0000
0B00
1A00
4700
7400
5B20
ENDCHAR
STARTCHAR upsilondieresis
ENCODING 971
SWIDTH 576 0
DWIDTH 5 0
BBX 5 7 0 0
BITMAP
008540
000000
0B00B0
1A00B0
470290
650840
2BA800
ENDCHAR
STARTCHAR omicrontonos
ENCODING 972
SWIDTH 561 0
DWIDTH 5 0
BBX 5 8 0 0
BITMAP
000A20
002800
000000
07AB20
390380
740480
840840
2AA700
ENDCHAR
STARTCHAR upsilontonos
ENCODING 973
SWIDTH 576 0
DWIDTH 5 0
BBX 5 8 0 0
BITMAP
000A10
002700
000000
0B00B0
1A00B0
470290
650840
2BA800
ENDCHAR
STARTCHAR omegatonos
ENCODING 974
SWIDTH 729 0
DWIDTH 7 0
BBX 7 8 0 0
BITMAP
0000B000
00054000
00000000
0A200A10
29000A20
741A0B10
83581B00
4B8AA300
ENDCHAR
STARTCHAR uni03D1
ENCODING 977
SWIDTH 569 0
DWIDTH 5 0
BBX 6 7 0 0
BITMAP
01AA30
056290
0391B0
7749C2
560650
830B10
5BA400
ENDCHAR
STARTCHAR uni03D2
ENCODING 978
SWIDTH 509 0
DWIDTH 5 0
BBX 6 7 0 0
BITMAP
1A01A4
0B0840
093900
05D200
039000
056000
083000
ENDCHAR
STARTCHAR uni03D6
ENCODING 982
SWIDTH 791 0
DWIDTH 7 0
BBX 8 5 0 0
BITMAP
3CBAACB3
0B100740
290B0840
472B0C10
1C98A600
ENDCHAR
STARTCHAR uni0400
ENCODING 1024
SWIDTH 511 0
DWIDTH 5 0
BBX 5 9 0 0
BITMAP
002800
000000
05CA90
083000
0B0000
0DAA20
290000
560000
8CA700
ENDCHAR
STARTCHAR afii10023
ENCODING 1025
SWIDTH 511 0
DWIDTH 5 0
BBX 5 9 0 0
BITMAP
008180
000000
05CA90
083000
0B0000
0DAA20
290000
560000
8CA700
ENDCHAR
STARTCHAR afii10051
ENCODING 1026
SWIDTH 666 0
DWIDTH 6 0
BBX 6 7 0 0
BITMAP
1AEA80
00C000
02A000
05CAB2
084075
0B1093
0C1A90
ENDCHAR
STARTCHAR afii10052
ENCODING 1027
SWIDTH 476 0
DWIDTH 4 0
BBX 5 9 0 0
BITMAP
000740
000000
05CA90
083000
0B0000
0B0000
290000
560000
840000
ENDCHAR
STARTCHAR afii10053
ENCODING 1028
SWIDTH 584 0
DWIDTH 5 0
BBX 6 7 0 0
BITMAP
007BA6
077000
1C0000
4DAA30
570000
2B0000
07BA50
ENDCHAR
STARTCHAR afii10054
ENCODING 1029
SWIDTH 501 0
DWIDTH 5 0
BBX 5 7 0 0
BITMAP
05BA60
0C0000
0C1000
04C400
001D00
000C00
9AB500
ENDCHAR
STARTCHAR afii10055
ENCODING 1030
SWIDTH 272 0
DWIDTH 2 0
BBX 3 7 0 0
BITMAP
0560
0830
0B00
0B00
2900
5600
8300
ENDCHAR
STARTCHAR afii10056
ENCODING 1031
SWIDTH 272 0
DWIDTH 2 0
BBX 4 9 0 0
BITMAP
0836
0000
0560
0830
0B00
0B00
2900
5600
8300
ENDCHAR
STARTCHAR afii10057
ENCODING 1032
SWIDTH 267 0
DWIDTH 2 0
BBX 5 9 -2 -2
BITMAP
000560
000830
000B00
000B00
002900
005700
007400
00B100
4B7000
ENDCHAR
STARTCHAR afii10058
ENCODING 1033
SWIDTH 889 0
DWIDTH 8 0
BBX 9 7 -1 0
BITMAP
0006BC8000
000A165000
000B092000
00380CAB20
00740B0560
00B0390750
3B506CA800
ENDCHAR
STARTCHAR afii10059
ENCODING 1034
SWIDTH 901 0
DWIDTH 8 0
BBX 8 7 0 0
BITMAP
05601A00
08304700
0B007400
0DAAEAB3
2900C048
5601A056
8304D990
ENDCHAR
STARTCHAR afii10060
ENCODING 1035
SWIDTH 666 0
DWIDTH 6 0
BBX 6 7 0 0
BITMAP
1AEA80
00C000
02A000
05CAB2
084075
0B1083
0C00B0
ENDCHAR
STARTCHAR afii10061
ENCODING 1036
SWIDTH 559 0
DWIDTH 5 0
BBX 6 9 0 0
BITMAP
000570
000000
056086
083770
0B6800
0CC000
29A300
562B00
830760
ENDCHAR
STARTCHAR uni040D
ENCODING 1037
SWIDTH 696 0
DWIDTH 6 0
BBX 7 9 0 0
BITMAP
00082000
00000000
05501D30
08209C10
0B056B00
0B2A1900
29A14700
5C507400
8900A100
ENDCHAR
STARTCHAR afii10062
ENCODING 1038
SWIDTH 571 0
DWIDTH 5 0
BBX 6 9 0 0
BITMAP
00A8A1
000000
0B002A
0A10A2
065480
029A10
00C600
02B000
BB2000
ENDCHAR
STARTCHAR afii10145
ENCODING 1039
SWIDTH 679 0
DWIDTH 6 0
BBX 7 9 0 -2
BITMAP
05600A10
08300B00
0B001A00
0B004700
29007400
5700A100
8CAAC000
00B00000
01A00000
ENDCHAR
STARTCHAR afii10017
ENCODING 1040
SWIDTH 555 0
DWIDTH 5 0
BBX 6 7 -1 0
BITMAP
0004C0
000AB0
0047A1
00B183
04CAC4
0B1056
480038
ENDCHAR
STARTCHAR afii10018
ENCODING 1041
SWIDTH 563 0
DWIDTH 5 0
BBX 5 7 0 0
BITMAP
05CA90
083000
0B0000
0DAB20
2A0570
570660
8B9900
ENDCHAR
STARTCHAR afii10019
ENCODING 1042
SWIDTH 598 0
DWIDTH 5 0
BBX 6 7 0 0
BITMAP
05BAA1
083084
0B02B1
0DAC40
2901C0
5602B0
8BAA20
ENDCHAR
STARTCHAR afii10020
ENCODING 1043
SWIDTH 476 0
DWIDTH 4 0
BBX 5 7 0 0
BITMAP
05CA90
083000
0B0000
0B0000
290000
560000
840000
ENDCHAR
STARTCHAR afii10021
ENCODING 1044
SWIDTH 621 0
DWIDTH 6 0
BBX 7 9 -1 -2
BITMAP
0002DC70
00074840
000B0B10
00470C00
00B11A00
04804700
3EBACC10
73000B00
A1000A00
ENDCHAR
STARTCHAR afii10022
ENCODING 1045
SWIDTH 511 0
DWIDTH 5 0
BBX 5 7 0 0
BITMAP
05CA90
083000
0B0000
0DAA20
290000
560000
8CA700
ENDCHAR
STARTCHAR afii10024
ENCODING 1046
SWIDTH 775 0
DWIDTH 7 0
BBX 9 7 -1 0
BITMAP
00B11A0860
0057476800
000B87A000
000ADD1000
0068B75000
04A1A1B000
2B14709400
ENDCHAR
STARTCHAR afii10025
ENCODING 1047
SWIDTH 532 0
DWIDTH 5 0
BBX 5 7 0 0
BITMAP
089B40
000290
001850
08B900
000930
000B20
AAA600
ENDCHAR
STARTCHAR afii10026
ENCODING 1048
SWIDTH 696 0
DWIDTH 6 0
BBX 7 7 0 0
BITMAP
05501D30
08209C10
0B056B00
0B2A1900
29A14700
5C507400
8900A100
ENDCHAR
STARTCHAR afii10027
ENCODING 1049
SWIDTH 696 0
DWIDTH 6 0
BBX 7 9 0 0
BITMAP
004A9700
00000000
05501D30
08209C10
0B056B00
0B2A1900
29A14700
5C507400
8900A100
ENDCHAR
STARTCHAR afii10028
ENCODING 1050
SWIDTH 559 0
DWIDTH 5 0
BBX 6 7 0 0
BITMAP
056086
083770
0B6800
0CC000
29A300
562B00
830760
ENDCHAR
STARTCHAR afii10029
ENCODING 1051
SWIDTH 644 0
DWIDTH 6 0
BBX 7 7 -1 0
BITMAP
0006BBB0
000A1380
000B0650
00380920
00740B00
00B00B00
3B503900
ENDCHAR
STARTCHAR afii10030
ENCODING 1052
SWIDTH 836 0
DWIDTH 8 0
BBX 8 7 0 0
BITMAP
05D000D7
08B005C4
0B910AA1
0B7365B0
2955A1B0
563C5480
831C0750
ENDCHAR
STARTCHAR afii10031
ENCODING 1053
SWIDTH 678 0
DWIDTH 6 0
BBX 7 7 0 0
BITMAP
05600A10
08300B00
0B001A00
0DAAC700
29008400
5600A100
8300B000
ENDCHAR
STARTCHAR afii10032
ENCODING 1054
SWIDTH 720 0
DWIDTH 6 0
BBX 7 7 0 0
BITMAP
009AB500
09500C00
1B000920
48000A20
57000C00
2B007800
06BA8000
ENDCHAR
STARTCHAR afii10033
ENCODING 1055
SWIDTH 679 0
DWIDTH 6 0
BBX 7 7 0 0
BITMAP
05BAAE10
08300C00
0B002A00
0B004700
29007400
5600A100
8300C000
ENDCHAR
STARTCHAR afii10034
ENCODING 1056
SWIDTH 565 0
DWIDTH 5 0
BBX 5 7 0 0
BITMAP
05BA70
0830C0
0B10B0
0C05A0
2D9600
570000
840000
ENDCHAR
STARTCHAR afii10035
ENCODING 1057
SWIDTH 584 0
DWIDTH 5 0
BBX 6 7 0 0
BITMAP
007BA6
077000
1C0000
480000
570000
2B0000
07BA50
ENDCHAR
STARTCHAR afii10036
ENCODING 1058
SWIDTH 498 0
DWIDTH 4 0
BBX 6 7 0 0
BITMAP
1ACCA2
008300
00B000
00B000
029000
056000
084000
ENDCHAR
STARTCHAR afii10037
ENCODING 1059
SWIDTH 571 0
DWIDTH 5 0
BBX 6 7 0 0
BITMAP
0B002A
0A10A2
065480
029A10
00C600
02B000
BB2000
ENDCHAR
STARTCHAR afii10038
ENCODING 1060
SWIDTH 744 0
DWIDTH 7 0
BBX 7 7 0 0
BITMAP
00048000
04ACBA00
1B1A2750
470C0750
2B3A4B10
04BB7100
00740000
ENDCHAR
STARTCHAR afii10039
ENCODING 1061
SWIDTH 519 0
DWIDTH 5 0
BBX 7 7 -1 0
BITMAP
00B00A20
00747500
002B9000
001E1000
00A76000
0661A000
2A00B100
ENDCHAR
STARTCHAR afii10040
ENCODING 1062
SWIDTH 665 0
DWIDTH 6 0
BBX 6 9 0 -2
BITMAP
05600B
08301B
0B0038
0B0065
290092
5600B0
8CAAE5
000065
000092
ENDCHAR
STARTCHAR afii10041
ENCODING 1063
SWIDTH 639 0
DWIDTH 6 0
BBX 5 7 1 0
BITMAP
6501A0
920480
B00650
C12B20
5A7C00
000B00
003800
ENDCHAR
STARTCHAR afii10042
ENCODING 1064
SWIDTH 955 0
DWIDTH 9 0
BBX 9 7 0 0
BITMAP
0560470380
0830740650
0B00A10920
0B00B00B00
2901A00B00
5604802900
8CACCAB600
ENDCHAR
STARTCHAR afii10043
ENCODING 1065
SWIDTH 957 0
DWIDTH 9 0
BBX 9 9 0 -2
BITMAP
0560470380
0830740650
0B00A10920
0B00B00B00
2901A00B00
5604802900
8CACCABC10
0000000B00
0000000B00
ENDCHAR
STARTCHAR afii10044
ENCODING 1066
SWIDTH 625 0
DWIDTH 6 0
BBX 6 7 0 0
BITMAP
1AE100
00C000
02A000
05CA80
0840B1
0A10C0
0DAA40
ENDCHAR
STARTCHAR afii10045
ENCODING 1067
SWIDTH 786 0
DWIDTH 7 0
BBX 8 7 0 0
BITMAP
056000B1
083000B0
0B0002A0
0DAB1570
29066840
56074A10
8BA80B00
ENDCHAR
STARTCHAR afii10046
ENCODING 1068
SWIDTH 554 0
DWIDTH 5 0
BBX 5 7 0 0
BITMAP
056000
083000
0B0000
0DAB10
290660
560740
8BA800
ENDCHAR
STARTCHAR afii10047
ENCODING 1069
SWIDTH 584 0
DWIDTH 5 0
BBX 5 7 0 0
BITMAP
09AB30
0002B0
0000C0
06AAD0
0002B0
000A40
AAB500
ENDCHAR
STARTCHAR afii10048
ENCODING 1070
SWIDTH 979 0
DWIDTH 9 0
BBX 9 7 0 0
BITMAP
05604AA900
0832B00850
0B08400470
0DAE100570
290C000840
5609302C00
8302AAA200
ENDCHAR
STARTCHAR afii10049
ENCODING 1071
SWIDTH 568 0
DWIDTH 5 0
BBX 7 7 -1 0
BITMAP
004AAE10
00B10C00
00B22A00
004CC700
00B28400
0670A200
1C00B000
ENDCHAR
STARTCHAR afii10065
ENCODING 1072
SWIDTH 564 0
DWIDTH 5 0
BBX 5 5 0 0
BITMAP
06A8A0
2A0590
750660
840D30
3B8A00
ENDCHAR
STARTCHAR afii10066
ENCODING 1073
SWIDTH 541 0
DWIDTH 5 0
BBX 6 7 0 0
BITMAP
006881
084000
1B9B10
680660
830750
740A20
2BA600
ENDCHAR
STARTCHAR afii10067
ENCODING 1074
SWIDTH 538 0
DWIDTH 5 0
BBX 5 5 0 0
BITMAP
07AB50
480660
8A9B00
750830
2B9900
ENDCHAR
STARTCHAR afii10068
ENCODING 1075
SWIDTH 457 0
DWIDTH 4 0
BBX 4 5 0 0
BITMAP
0AA9
002B
2981
A200
7BA2
ENDCHAR
STARTCHAR afii10069
ENCODING 1076
SWIDTH 562 0
DWIDTH 5 0
BBX 5 7 0 0
BITMAP
029B20
000390
0797B0
3904A0
740570
840B20
2BA500
ENDCHAR
STARTCHAR afii10070
ENCODING 1077
SWIDTH 493 0
DWIDTH 4 0
BBX 5 5 0 0
BITMAP
06AB10
392B10
7A7200
840000
2B9600
ENDCHAR
STARTCHAR afii10072
ENCODING 1078
SWIDTH 833 0
DWIDTH 8 0
BBX 9 5 -1 0
BITMAP
03B6283A70
000B65C100
001CDAA000
0065A29000
1980A0A900
ENDCHAR
STARTCHAR afii10073
ENCODING 1079
SWIDTH 436 0
DWIDTH 4 0
BBX 4 5 0 0
BITMAP
1AB6
0048
08C1
0064
A9A1
ENDCHAR
STARTCHAR afii10074
ENCODING 1080
SWIDTH 577 0
DWIDTH 5 0
BBX 5 5 0 0
BITMAP
0B00B0
1A0290
470660
740C30
4B8A00
ENDCHAR
STARTCHAR afii10075
ENCODING 1081
SWIDTH 577 0
DWIDTH 5 0
BBX 5 7 0 0
BITMAP
02B880
000000
0B00B0
1A0290
470660
740C30
4B8A00
ENDCHAR
STARTCHAR afii10076
ENCODING 1082
SWIDTH 477 0
DWIDTH 4 0
BBX 5 5 0 0
BITMAP
0B0A40
1A9400
3D8000
65B100
A14900
ENDCHAR
STARTCHAR afii10077
ENCODING 1083
SWIDTH 537 0
DWIDTH 5 0
BBX 6 5 -1 0
BITMAP
0019B6
007574
00B0A1
0380B0
4B12A0
ENDCHAR
STARTCHAR afii10078
ENCODING 1084
SWIDTH 689 0
DWIDTH 6 0
BBX 6 5 0 0
BITMAP
0C303C
1C5099
387576
639973
90B290
ENDCHAR
STARTCHAR afii10079
ENCODING 1085
SWIDTH 599 0
DWIDTH 5 0
BBX 5 5 0 0
BITMAP
0B00B0
1A00B0
3C9B90
640560
A10830
ENDCHAR
STARTCHAR afii10080
ENCODING 1086
SWIDTH 561 0
DWIDTH 5 0
BBX 5 5 0 0
BITMAP
07AB20
390380
740480
840840
2AA700
ENDCHAR
STARTCHAR afii10081
ENCODING 1087
SWIDTH 577 0
DWIDTH 5 0
BBX 5 5 0 0
BITMAP
0A7A60
1E22A0
390470
650740
A20A10
ENDCHAR
STARTCHAR afii10082
ENCODING 1088
SWIDTH 577 0
DWIDTH 5 0
BBX 6 7 -1 -2
BITMAP
00A7B6
01E21B
04902A
077075
0A8A90
0B0000
1A0000
ENDCHAR
STARTCHAR afii10083
ENCODING 1089
SWIDTH 450 0
DWIDTH 4 0
BBX 4 5 0 0
BITMAP
06AA
3A00
7500
8400
2B94
ENDCHAR
STARTCHAR afii10084
ENCODING 1090
SWIDTH 872 0
DWIDTH 8 0
BBX 8 5 0 0
BITMAP
0A7B59C2
1E14B075
39065092
650920B0
A20B01B0
ENDCHAR
STARTCHAR afii10085
ENCODING 1091
SWIDTH 461 0
DWIDTH 4 0
BBX 6 7 -1 -2
BITMAP
074075
0561A0
038830
01AA00
00D200
039000
8A1000
ENDCHAR
STARTCHAR afii10086
ENCODING 1092
SWIDTH 663 0
DWIDTH 6 0
BBX 6 9 0 -2
BITMAP
000820
000A00
06ADA1
3A2857
845548
7492A3
1ADA60
00A000
037000
ENDCHAR
STARTCHAR afii10087
ENCODING 1093
SWIDTH 478 0
DWIDTH 4 0
BBX 6 5 -1 0
BITMAP
0190A3
009850
006A00
029A10
1B1560
ENDCHAR
STARTCHAR afii10088
ENCODING 1094
SWIDTH 595 0
DWIDTH 5 0
BBX 5 7 0 -2
BITMAP
0B00B0
1A0290
470660
740C30
4B8880
000390
000560
ENDCHAR
STARTCHAR afii10089
ENCODING 1095
SWIDTH 555 0
DWIDTH 5 0
BBX 5 5 0 0
BITMAP
1A0290
380660
482C30
087B00
000B00
ENDCHAR
STARTCHAR afii10090
ENCODING 1096
SWIDTH 872 0
DWIDTH 8 0
BBX 8 5 0 0
BITMAP
0B01A047
1A047074
570840B1
741D13D0
4B96A7A0
ENDCHAR
STARTCHAR afii10091
ENCODING 1097
SWIDTH 890 0
DWIDTH 8 0
BBX 8 7 0 -2
BITMAP
0B01A047
1A047074
570840B1
741D13D0
4B96A6B4
00000084
000000A1
ENDCHAR
STARTCHAR afii10092
ENCODING 1098
SWIDTH 591 0
DWIDTH 5 0
BBX 5 5 0 0
BITMAP
5AA000
047000
07AA60
0921B0
05BA40
ENDCHAR
STARTCHAR afii10093
ENCODING 1099
SWIDTH 721 0
DWIDTH 6 0
BBX 7 5 0 0
BITMAP
0B000A20
1A000B00
4B991A00
650B4700
2BA67400
ENDCHAR
STARTCHAR afii10094
ENCODING 1100
SWIDTH 519 0
DWIDTH 5 0
BBX 5 5 0 0
BITMAP
0B0000
1A0000
4BAA00
650A10
2B9700
ENDCHAR
STARTCHAR afii10095
ENCODING 1101
SWIDTH 456 0
DWIDTH 4 0
BBX 4 5 0 0
BITMAP
4AA3
0029
2AB9
0075
9A90
ENDCHAR
STARTCHAR afii10096
ENCODING 1102
SWIDTH 780 0
DWIDTH 7 0
BBX 7 5 0 0
BITMAP
0B06AB20
1A2A0480
3CC60480
64560840
A11A9800
ENDCHAR
STARTCHAR afii10097
ENCODING 1103
SWIDTH 526 0
DWIDTH 5 0
BBX 6 5 -1 0
BITMAP
01AAC5
039092
00BAE0
0481B0
2B1380
ENDCHAR
STARTCHAR uni0450
ENCODING 1104
SWIDTH 493 0
DWIDTH 4 0
BBX 5 7 0 0
BITMAP
019100
000000
06AB10
392B10
7A7200
840000
2B9600
ENDCHAR
STARTCHAR afii10071
ENCODING 1105
SWIDTH 493 0
DWIDTH 4 0
BBX 5 7 0 0
BITMAP
017720
000000
06AB10
392B10
7A7200
840000
2B9600
ENDCHAR
STARTCHAR afii10099
ENCODING 1106
SWIDTH 577 0
DWIDTH 5 0
BBX 5 9 0 -2
BITMAP
065000
1D9600
0B8B60
0D1290
380570
640830
910B00
000B00
02B500
ENDCHAR
STARTCHAR afii10100
ENCODING 1107
SWIDTH 457 0
DWIDTH 4 0
BBX 5 7 0 0
BITMAP
003810
000000
0AA900
002B00
298100
A20000
7BA200
ENDCHAR
STARTCHAR afii10101
ENCODING 1108
SWIDTH 450 0
DWIDTH 4 0
BBX 4 5 0 0
BITMAP
06AA
3900
7BA3
8400
2B94
ENDCHAR
STARTCHAR afii10102
ENCODING 1109
SWIDTH 428 0
DWIDTH 4 0
BBX 4 5 0 0
BITMAP
2BA6
5700
0990
00A3
A9A0
ENDCHAR
STARTCHAR afii10103
ENCODING 1110
SWIDTH 253 0
DWIDTH 2 0
BBX 3 7 0 0
BITMAP
0540
0000
0B00
1B00
3800
6500
A200
ENDCHAR
STARTCHAR afii10104
ENCODING 1111
SWIDTH 253 0
DWIDTH 2 0
BBX 4 7 0 0
BITMAP
3681
0000
0B00
1B00
3800
6500
A200
ENDCHAR
STARTCHAR afii10105
ENCODING 1112
SWIDTH 253 0
DWIDTH 2 0
BBX 5 9 -2 -2
BITMAP
000540
000000
000B00
001A00
004700
007400
00A100
00B000
1A6000
ENDCHAR
STARTCHAR afii10106
ENCODING 1113
SWIDTH 762 0
DWIDTH 7 0
BBX 8 5 -1 0
BITMAP
001AC200
0074B000
00B0D9B1
0381A084
4B10BAA0
ENDCHAR
STARTCHAR afii10107
ENCODING 1114
SWIDTH 812 0
DWIDTH 7 0
BBX 7 5 0 0
BITMAP
0B01A000
1A056000
4C9DAA60
740921A0
A105BA40
ENDCHAR
STARTCHAR afii10108
ENCODING 1115
SWIDTH 577 0
DWIDTH 5 0
BBX 5 7 0 0
BITMAP
065000
1D9600
0A8B60
0D2290
380470
640740
910A10
ENDCHAR
STARTCHAR afii10109
ENCODING 1116
SWIDTH 477 0
DWIDTH 4 0
BBX 5 7 0 0
BITMAP
001820
000000
0B0A40
1A9400
3D8000
65B100
A14900
ENDCHAR
STARTCHAR uni045D
ENCODING 1117
SWIDTH 577 0
DWIDTH 5 0
BBX 5 7 0 0
BITMAP
008300
000000
0B00B0
1A0290
470660
740C30
4B8A00
ENDCHAR
STARTCHAR afii10110
ENCODING 1118
SWIDTH 461 0
DWIDTH 4 0
BBX 6 9 -1 -2
BITMAP
0088A3
000000
074075
0561A0
038830
01AA00
00D200
039000
8A1000
ENDCHAR
STARTCHAR afii10193
ENCODING 1119
SWIDTH 577 0
DWIDTH 5 0
BBX 5 7 0 -2
BITMAP
0B00B0
1A0290
470660
740C30
4B8A00
046000
083000
ENDCHAR
STARTCHAR uni0460
ENCODING 1120
SWIDTH 953 0
DWIDTH 9 0
BBX 9 7 0 0
BITMAP
01AA55AA00
0940000930
0C00000840
3900000A20
5702A00B00
4906807600
0AA8AA9000
ENDCHAR
STARTCHAR uni0461
ENCODING 1121
SWIDTH 717 0
DWIDTH 6 0
BBX 7 5 0 0
BITMAP
74380470
651A0830
473C0B00
29AA7500
0E3A8000
ENDCHAR
STARTCHAR uni0462
ENCODING 1122
SWIDTH 619 0
DWIDTH 6 0
BBX 5 7 0 0
BITMAP
00A100
3AEA50
029000
05CB80
0830C0
0B11C0
0D9A30
ENDCHAR
STARTCHAR uni0463
ENCODING 1123
SWIDTH 551 0
DWIDTH 5 0
BBX 5 6 0 0
BITMAP
066000
5DA400
0B0000
0D9B20
2A0650
0AAA10
ENDCHAR
STARTCHAR uni0464
ENCODING 1124
SWIDTH 860 0
DWIDTH 8 0
BBX 8 7 0 0
BITMAP
05603BAA
0831C100
0B075000
0DAEAA80
290C0000
560A3000
8302BAA0
ENDCHAR
STARTCHAR uni0465
ENCODING 1125
SWIDTH 687 0
DWIDTH 6 0
BBX 7 5 0 0
BITMAP
0B05AA10
1A2B0000
3CCBA400
64660000
A11B9500
ENDCHAR
STARTCHAR uni0466
ENCODING 1126
SWIDTH 601 0
DWIDTH 5 0
BBX 6 7 -1 0
BITMAP
0001E0
0008A2
002A64
009CC7
039939
0A1A0B
480A0B
ENDCHAR
STARTCHAR uni0467
ENCODING 1127
SWIDTH 528 0
DWIDTH 5 0
BBX 6 5 -1 0
BITMAP
000C60
007590
01BDB0
0858B0
2955A1
ENDCHAR
STARTCHAR uni0468
ENCODING 1128
SWIDTH 840 0
DWIDTH 8 0
BBX 8 7 0 0
BITMAP
05600D20
08306A40
0B00B470
0DADCC90
291A74B0
5683A1B0
85A0B0A1
ENDCHAR
STARTCHAR uni0469
ENCODING 1129
SWIDTH 721 0
DWIDTH 6 0
BBX 6 5 0 0
BITMAP
0B03E2
1B0A65
3CCCC7
65B74A
A8591B
ENDCHAR
STARTCHAR uni046A
ENCODING 1130
SWIDTH 660 0
DWIDTH 6 0
BBX 8 7 -1 0
BITMAP
007CAAE1
00290940
000A8600
008ACB00
04865830
0A192740
290B0650
ENDCHAR
STARTCHAR uni046B
ENCODING 1131
SWIDTH 603 0
DWIDTH 5 0
BBX 7 5 -1 0
BITMAP
00CAAE10
00479200
029DA400
0A1A2900
38190B00
ENDCHAR
STARTCHAR uni046C
ENCODING 1132
SWIDTH 915 0
DWIDTH 8 0
BBX 9 7 0 0
BITMAP
0564DAAE40
0830B05800
0B00789000
0DADCDB200
291B294700
5675563800
84B0832900
ENDCHAR
STARTCHAR uni046D
ENCODING 1133
SWIDTH 800 0
DWIDTH 7 0
BBX 7 5 0 0
BITMAP
0B1EABC0
1B076A10
3CCBDA20
65B19470
A8646290
ENDCHAR
STARTCHAR uni046E
ENCODING 1134
SWIDTH 532 0
DWIDTH 5 0
BBX 6 12 -1 -3
BITMAP
000946
000890
008AC4
000029
000185
008A90
000093
0000B2
059A60
3A1000
2CAA40
000010
ENDCHAR
STARTCHAR uni046F
ENCODING 1135
SWIDTH 446 0
DWIDTH 4 0
BBX 5 9 -1 -2
BITMAP
008290
003C20
019A70
0002A0
007C20
000560
059910
570000
189A00
ENDCHAR
STARTCHAR uni0470
ENCODING 1136
SWIDTH 734 0
DWIDTH 7 0
BBX 7 7 0 0
BITMAP
0B1470C0
0C0741B0
1A0A1480
0C1C2B20
03AD8200
00470000
00750000
ENDCHAR
STARTCHAR uni0471
ENCODING 1137
SWIDTH 713 0
DWIDTH 6 0
BBX 7 9 0 -2
BITMAP
00056000
00083000
0B0B0B10
1A0B0B00
47290B00
57556600
1ACB8000
00B00000
00A00000
ENDCHAR
STARTCHAR uni0472
ENCODING 1138
SWIDTH 720 0
DWIDTH 6 0
BBX 7 7 0 0
BITMAP
009AB500
09500C00
1B000920
4CAAAE20
57000D00
2B008800
06BB8000
ENDCHAR
STARTCHAR uni0473
ENCODING 1139
SWIDTH 561 0
DWIDTH 5 0
BBX 5 5 0 0
BITMAP
07AA20
390390
7BAB80
840830
2AA700
ENDCHAR
STARTCHAR uni0474
ENCODING 1140
SWIDTH 559 0
DWIDTH 5 0
BBX 7 7 0 0
BITMAP
29006A10
0B01B000
0B065000
0B0B0000
0B470000
09A10000
08800000
ENDCHAR
STARTCHAR uni0475
ENCODING 1141
SWIDTH 439 0
DWIDTH 4 0
BBX 5 5 0 0
BITMAP
830850
652900
469200
389000
1E3000
ENDCHAR
STARTCHAR uni0476
ENCODING 1142
SWIDTH 559 0
DWIDTH 5 0
BBX 7 9 0 0
BITMAP
04791000
00000000
29006A10
0B01B000
0B065000
0B0B0000
0B470000
09A10000
08800000
ENDCHAR
STARTCHAR uni0477
ENCODING 1143
SWIDTH 439 0
DWIDTH 4 0
BBX 5 7 0 0
BITMAP
297400
000000
830850
652900
469200
389000
1E3000
ENDCHAR
STARTCHAR uni0478
ENCODING 1144
SWIDTH 1184 0
DWIDTH 11 0
BBX 11 9 0 -2
BITMAP
009AB5000000
09500C000000
1B00093B01B0
48000A2B0740
57000C0A1A00
2B0078089300
06BA80069000
0000000A2000
000003A60000
ENDCHAR
STARTCHAR uni0479
ENCODING 1145
SWIDTH 1003 0
DWIDTH 9 0
BBX 10 7 0 -2
BITMAP
07AB292093
3903874290
7404856920
8408439800
2AA701E100
0000057000
00009A0000
ENDCHAR
STARTCHAR uni047A
ENCODING 1146
SWIDTH 738 0
DWIDTH 7 0
BBX 7 9 0 -1
BITMAP
00059000
019AB800
09400A20
1B000750
48000850
57000B20
2A004A00
07B9A100
00850000
ENDCHAR
STARTCHAR uni047B
ENCODING 1147
SWIDTH 578 0
DWIDTH 5 0
BBX 5 7 0 -1
BITMAP
007600
078A40
3901B0
7401A0
840560
2B8900
02A000
ENDCHAR
STARTCHAR uni047C
ENCODING 1148
SWIDTH 953 0
DWIDTH 9 0
BBX 9 10 0 0
BITMAP
0000780000
00009A8100
0000362100
01AA55AA00
0940000930
0C00000840
3900000A20
5700000B00
4901007600
0AAABA8000
ENDCHAR
STARTCHAR uni047D
ENCODING 1149
SWIDTH 758 0
DWIDTH 7 0
BBX 7 8 0 0
BITMAP
00298700
00038000
00024000
08A48C20
48000660
74000750
84000B10
2BABB600
ENDCHAR
STARTCHAR uni047E
ENCODING 1150
SWIDTH 953 0
DWIDTH 9 0
BBX 9 8 0 0
BITMAP
0007699000
01AA55AA00
0940000930
0C00000840
3900000A20
5702A00B00
4906807600
0AA89A9000
ENDCHAR
STARTCHAR uni047F
ENCODING 1151
SWIDTH 717 0
DWIDTH 6 0
BBX 7 7 0 0
BITMAP
02998400
00000000
74380470
651A0830
473C0B00
29AA7500
0E3A8000
ENDCHAR
STARTCHAR uni0480
ENCODING 1152
SWIDTH 584 0
DWIDTH 5 0
BBX 6 9 0 -2
BITMAP
007BA6
077000
1C0000
480000
570000
2B0000
07B600
005600
009300
ENDCHAR
STARTCHAR uni0481
ENCODING 1153
SWIDTH 450 0
DWIDTH 4 0
BBX 4 7 0 -2
BITMAP
06AA
3A00
7500
8400
2BB0
00B0
0290
ENDCHAR
STARTCHAR uni0482
ENCODING 1154
SWIDTH 608 0
DWIDTH 5 0
BBX 5 6 0 0
BITMAP
001360
01AC10
005AA0
3AB000
07B700
090200
ENDCHAR
STARTCHAR uni0483
ENCODING 1155
SWIDTH 560 0
DWIDTH 5 0
BBX 4 1 1 5
BITMAP
6875
ENDCHAR
STARTCHAR uni0484
ENCODING 1156
SWIDTH 580 0
DWIDTH 5 0
BBX 4 1 1 6
BITMAP
2889
ENDCHAR
STARTCHAR uni0485
ENCODING 1157
SWIDTH 580 0
DWIDTH 5 0
BBX 2 2 2 5
BITMAP
29
16
ENDCHAR
STARTCHAR uni0486
ENCODING 1158
SWIDTH 580 0
DWIDTH 5 0
BBX 1 2 3 5
BITMAP
B0
50
ENDCHAR
STARTCHAR uni0488
ENCODING 1160
SWIDTH 988 0
DWIDTH 9 0
BBX 9 7 0 -1
BITMAP
0002610000
0640005400
0000000000
4500000630
0000000000
0640005400
0002610000
ENDCHAR
STARTCHAR uni0489
ENCODING 1161
SWIDTH 956 0
DWIDTH 9 0
BBX 9 9 0 -2
BITMAP
0000800000
0611806500
0260019000
0000000000
6700001930
0000000000
0000008000
0650906100
0001600000
ENDCHAR
STARTCHAR uni048A
ENCODING 1162
SWIDTH 703 0
DWIDTH 6 0
BBX 7 11 0 -2
BITMAP
004A9700
00000000
05501D30
08209C10
0B056B00
0B2A1A00
29A14700
5C507400
8900A800
00005600
0000C100
ENDCHAR
STARTCHAR uni048B
ENCODING 1163
SWIDTH 579 0
DWIDTH 5 0
BBX 5 9 0 -2
BITMAP
02B880
000000
0B00B0
1A0290
470660
740C30
4B8B60
000550
000A00
ENDCHAR
STARTCHAR uni048C
ENCODING 1164
SWIDTH 553 0
DWIDTH 5 0
BBX 5 7 0 0
BITMAP
056000
2DB600
0B0000
0DAB10
290660
560840
8BA700
ENDCHAR
STARTCHAR uni048D
ENCODING 1165
SWIDTH 519 0
DWIDTH 5 0
BBX 5 7 0 0
BITMAP
074000
2D9200
0B0000
1A0000
4BAA00
650B10
2BA700
ENDCHAR
STARTCHAR uni048E
ENCODING 1166
SWIDTH 565 0
DWIDTH 5 0
BBX 6 7 0 0
BITMAP
05BA90
0830B1
0B29C0
0C2E30
2D8620
570000
840000
ENDCHAR
STARTCHAR uni048F
ENCODING 1167
SWIDTH 577 0
DWIDTH 5 0
BBX 6 7 -1 -2
BITMAP
00A7A6
01E21B
049029
077894
0A8B90
0B0080
1A0000
ENDCHAR
STARTCHAR afii10050
ENCODING 1168
SWIDTH 476 0
DWIDTH 4 0
BBX 6 8 0 0
BITMAP
0000A1
05CA90
083000
0B0000
0B0000
290000
560000
840000
ENDCHAR
STARTCHAR afii10098
ENCODING 1169
SWIDTH 382 0
DWIDTH 3 0
BBX 4 6 0 0
BITMAP
000B
0B86
1A00
3800
6500
A200
ENDCHAR
STARTCHAR uni0492
ENCODING 1170
SWIDTH 471 0
DWIDTH 4 0
BBX 5 7 0 0
BITMAP
06CA90
093000
0B0000
6DA200
390000
560000
830000
ENDCHAR
STARTCHAR uni0493
ENCODING 1171
SWIDTH 382 0
DWIDTH 3 0
BBX 4 5 0 0
BITMAP
0CA7
1A00
AB60
7400
A100
ENDCHAR
STARTCHAR uni0494
ENCODING 1172
SWIDTH 603 0
DWIDTH 5 0
BBX 5 9 0 -2
BITMAP
05CA90
083000
0B0000
0DAA10
290580
5602A0
830480
000B30
4AB500
ENDCHAR
STARTCHAR uni0495
ENCODING 1173
SWIDTH 491 0
DWIDTH 4 0
BBX 4 7 0 -2
BITMAP
0CA7
1A00
3CB4
641B
A10B
0058
5AA1
ENDCHAR
STARTCHAR uni0496
ENCODING 1174
SWIDTH 821 0
DWIDTH 7 0
BBX 9 9 -1 -2
BITMAP
00B11A0860
0057476800
000B87A000
000ADD1000
0068B74000
04A1A1B000
2B14709900
0000000A00
0000003800
ENDCHAR
STARTCHAR uni0497
ENCODING 1175
SWIDTH 837 0
DWIDTH 8 0
BBX 9 7 -1 -2
BITMAP
03B6283A70
000B65C100
001CDAA000
0065A29000
1980A0A900
0000000B00
0000001A00
ENDCHAR
STARTCHAR uni0498
ENCODING 1176
SWIDTH 532 0
DWIDTH 5 0
BBX 5 9 0 -2
BITMAP
089B40
000290
001850
08B900
000930
000B20
AAA600
044000
1A3000
ENDCHAR
STARTCHAR uni0499
ENCODING 1177
SWIDTH 436 0
DWIDTH 4 0
BBX 4 7 0 -2
BITMAP
1AB6
0048
08C1
0064
A9A1
0900
4A00
ENDCHAR
STARTCHAR uni049A
ENCODING 1178
SWIDTH 600 0
DWIDTH 5 0
BBX 6 9 0 -2
BITMAP
056086
083770
0B6800
0CC000
299300
562B00
830790
0000A0
000380
ENDCHAR
STARTCHAR uni049B
ENCODING 1179
SWIDTH 520 0
DWIDTH 5 0
BBX 5 7 0 -2
BITMAP
0B0930
1A9300
3D6000
65B100
A14B20
000A10
000B00
ENDCHAR
STARTCHAR uni049C
ENCODING 1180
SWIDTH 559 0
DWIDTH 5 0
BBX 6 7 0 0
BITMAP
056096
088B70
0B9900
0EE100
2AD600
579C00
830850
ENDCHAR
STARTCHAR uni049D
ENCODING 1181
SWIDTH 475 0
DWIDTH 4 0
BBX 5 5 0 0
BITMAP
0B9940
1AD400
4D7000
78C000
A87800
ENDCHAR
STARTCHAR uni049E
ENCODING 1182
SWIDTH 557 0
DWIDTH 5 0
BBX 6 7 0 0
BITMAP
056085
2DB860
0B6800
0DC300
293900
560B00
830750
ENDCHAR
STARTCHAR uni049F
ENCODING 1183
SWIDTH 478 0
DWIDTH 4 0
BBX 5 7 0 0
BITMAP
065000
2D9300
0B0930
0A9300
3DB000
659300
A12A00
ENDCHAR
STARTCHAR uni04A0
ENCODING 1184
SWIDTH 631 0
DWIDTH 6 0
BBX 7 7 0 0
BITMAP
1AE11B20
00B0A300
02AA3000
04D70000
075B0000
0A167000
0B00B100
ENDCHAR
STARTCHAR uni04A1
ENCODING 1185
SWIDTH 560 0
DWIDTH 5 0
BBX 6 5 0 0
BITMAP
6AA1A1
048A10
08D300
0A3A00
0B0850
ENDCHAR
STARTCHAR uni04A2
ENCODING 1186
SWIDTH 676 0
DWIDTH 6 0
BBX 7 9 0 -2
BITMAP
05600A10
08300B00
0B001A00
0DAAC700
29008400
5600A100
8300D600
00005600
00008300
ENDCHAR
STARTCHAR uni04A3
ENCODING 1187
SWIDTH 599 0
DWIDTH 5 0
BBX 5 7 0 -2
BITMAP
0B00B0
1A00B0
3C9B90
640560
A10890
0002A0
000570
ENDCHAR
STARTCHAR uni04A4
ENCODING 1188
SWIDTH 754 0
DWIDTH 7 0
BBX 8 7 0 0
BITMAP
05600AA5
08300B00
0B001A00
0DAAC700
29008400
5600A100
8300B000
ENDCHAR
STARTCHAR uni04A5
ENCODING 1189
SWIDTH 687 0
DWIDTH 6 0
BBX 7 5 0 0
BITMAP
0B00BA60
1A00B000
3C9B9000
64056000
A1083000
ENDCHAR
STARTCHAR uni04A6
ENCODING 1190
SWIDTH 996 0
DWIDTH 9 0
BBX 9 9 0 -2
BITMAP
05BAAD0000
08301B0000
0B00380000
0B006BB600
2900920C10
5600B00930
8300B00B10
0000003B00
00008AA100
ENDCHAR
STARTCHAR uni04A7
ENCODING 1191
SWIDTH 817 0
DWIDTH 7 0
BBX 7 7 0 -2
BITMAP
0BAAC000
1A029000
3805CB30
640832A0
A10B02A0
00000670
0005AA00
ENDCHAR
STARTCHAR uni04A8
ENCODING 1192
SWIDTH 720 0
DWIDTH 6 0
BBX 7 7 0 0
BITMAP
008A9000
09503200
1B06AD10
480C1A20
570C0C00
2B0C6800
06BDE800
ENDCHAR
STARTCHAR uni04A9
ENCODING 1193
SWIDTH 599 0
DWIDTH 5 0
BBX 5 5 0 0
BITMAP
07A500
482BA0
8493C0
74A690
2BBD60
ENDCHAR
STARTCHAR uni04AA
ENCODING 1194
SWIDTH 584 0
DWIDTH 5 0
BBX 6 9 0 -2
BITMAP
007BA6
077000
1C0000
480000
570000
2B0000
07BA50
005300
02A200
ENDCHAR
STARTCHAR uni04AB
ENCODING 1195
SWIDTH 450 0
DWIDTH 4 0
BBX 4 7 0 -2
BITMAP
06AA
3A00
7500
8400
2B94
0360
0940
ENDCHAR
STARTCHAR uni04AC
ENCODING 1196
SWIDTH 498 0
DWIDTH 4 0
BBX 6 9 0 -2
BITMAP
1ACCA2
008300
00B000
00B000
029000
057000
08B000
00B000
028000
ENDCHAR
STARTCHAR uni04AD
ENCODING 1197
SWIDTH 884 0
DWIDTH 8 0
BBX 8 7 0 -2
BITMAP
0A7B59C2
1E14B075
39065092
650920B0
A20B00B4
00000075
000000A2
ENDCHAR
STARTCHAR uni04AE
ENCODING 1198
SWIDTH 502 0
DWIDTH 5 0
BBX 6 7 0 0
BITMAP
1A00B2
0B0660
093B00
05D300
039000
056000
083000
ENDCHAR
STARTCHAR uni04AF
ENCODING 1199
SWIDTH 461 0
DWIDTH 4 0
BBX 5 7 0 -2
BITMAP
740740
651A00
479200
2B8000
0E1000
1A0000
470000
ENDCHAR
STARTCHAR uni04B0
ENCODING 1200
SWIDTH 502 0
DWIDTH 5 0
BBX 6 7 0 0
BITMAP
1A00B2
0B0680
093C10
06D500
03C000
4CC800
083000
ENDCHAR
STARTCHAR uni04B1
ENCODING 1201
SWIDTH 461 0
DWIDTH 4 0
BBX 5 7 0 -2
BITMAP
840750
651B00
479300
2BA000
0E2000
9D7000
470000
ENDCHAR
STARTCHAR uni04B2
ENCODING 1202
SWIDTH 568 0
DWIDTH 5 0
BBX 7 9 -1 -2
BITMAP
00B00A20
00747500
002B9000
001E1000
00A75000
0661A000
2A00B600
00004700
00007400
ENDCHAR
STARTCHAR uni04B3
ENCODING 1203
SWIDTH 520 0
DWIDTH 5 0
BBX 5 7 0 -2
BITMAP
0B0760
068800
02E000
1A8300
931C20
000A10
000B00
ENDCHAR
STARTCHAR uni04B4
ENCODING 1204
SWIDTH 776 0
DWIDTH 7 0
BBX 7 9 0 -2
BITMAP
1ACCA2B0
008301B0
00B00380
00B00650
02900920
05700B00
08CAAE50
00000650
00000920
ENDCHAR
STARTCHAR uni04B5
ENCODING 1205
SWIDTH 657 0
DWIDTH 6 0
BBX 6 7 0 -2
BITMAP
5BC947
065074
0920B1
0B03D0
0896B4
000084
0000A1
ENDCHAR
STARTCHAR uni04B6
ENCODING 1206
SWIDTH 636 0
DWIDTH 6 0
BBX 5 9 1 -2
BITMAP
6501A0
920480
B00650
C12B20
4A7C00
000B00
003D20
000A10
000B00
ENDCHAR
STARTCHAR uni04B7
ENCODING 1207
SWIDTH 543 0
DWIDTH 5 0
BBX 5 7 0 -2
BITMAP
1A0290
480660
482C30
087A00
000D40
000840
000A10
ENDCHAR
STARTCHAR uni04B8
ENCODING 1208
SWIDTH 639 0
DWIDTH 6 0
BBX 5 7 1 0
BITMAP
6501A0
920480
B18650
C47B20
4C8C00
091B00
003800
ENDCHAR
STARTCHAR uni04B9
ENCODING 1209
SWIDTH 554 0
DWIDTH 5 0
BBX 5 5 0 0
BITMAP
1A0290
488660
48AC30
099B00
000B00
ENDCHAR
STARTCHAR uni04BA
ENCODING 1210
SWIDTH 639 0
DWIDTH 6 0
BBX 6 7 0 0
BITMAP
056000
082000
0B9AA0
0A00B1
2800B0
5600B0
830290
ENDCHAR
STARTCHAR uni04BB
ENCODING 1211
SWIDTH 576 0
DWIDTH 5 0
BBX 5 5 0 0
BITMAP
0B0000
1B0000
3B8C20
680740
A20A10
ENDCHAR
STARTCHAR uni04BC
ENCODING 1212
SWIDTH 765 0
DWIDTH 7 0
BBX 7 7 0 0
BITMAP
0008BB50
009501C0
67A02880
2BC98400
06500000
03900000
008BA800
ENDCHAR
STARTCHAR uni04BD
ENCODING 1213
SWIDTH 592 0
DWIDTH 5 0
BBX 5 5 0 0
BITMAP
008AB0
9672B0
3DA720
093000
03B950
ENDCHAR
STARTCHAR uni04BE
ENCODING 1214
SWIDTH 765 0
DWIDTH 7 0
BBX 7 9 0 -2
BITMAP
0008BB50
009501C0
67A02880
2BC98400
06500000
04900000
009BA800
000A1000
000B0000
ENDCHAR
STARTCHAR uni04BF
ENCODING 1215
SWIDTH 592 0
DWIDTH 5 0
BBX 5 7 0 -2
BITMAP
008AB0
9672B0
3DA720
093000
03B950
008300
00B100
ENDCHAR
STARTCHAR uni04C0
ENCODING 1216
SWIDTH 272 0
DWIDTH 2 0
BBX 3 7 0 0
BITMAP
0560
0830
0B00
0B00
2900
5600
8300
ENDCHAR
STARTCHAR uni04C1
ENCODING 1217
SWIDTH 775 0
DWIDTH 7 0
BBX 9 9 -1 0
BITMAP
0000A8A100
0000000000
00B11A0860
0057476800
000B87A000
000ADD1000
0068B75000
04A1A1B000
2B14709400
ENDCHAR
STARTCHAR uni04C2
ENCODING 1218
SWIDTH 833 0
DWIDTH 8 0
BBX 9 7 -1 0
BITMAP
0000B8A100
0000000000
03B6283A70
000B65C100
001CDAA000
0065A29000
1980A0A900
ENDCHAR
STARTCHAR uni04C3
ENCODING 1219
SWIDTH 628 0
DWIDTH 6 0
BBX 6 9 0 -2
BITMAP
056095
082850
0A8500
0DAB30
2802B0
5600C0
8301B0
000860
1AB800
ENDCHAR
STARTCHAR uni04C4
ENCODING 1220
SWIDTH 514 0
DWIDTH 5 0
BBX 5 7 0 -2
BITMAP
0B0930
1B9200
3B9600
640C00
A10B00
002A00
3AB200
ENDCHAR
STARTCHAR uni04C5
ENCODING 1221
SWIDTH 649 0
DWIDTH 6 0
BBX 7 9 -1 -2
BITMAP
0006BBB0
000A1380
000B0650
00380930
00740B00
00B00B00
3B503D20
00000A00
00005700
ENDCHAR
STARTCHAR uni04C6
ENCODING 1222
SWIDTH 536 0
DWIDTH 5 0
BBX 6 7 -1 -2
BITMAP
0019B6
007574
00B0A1
0380B0
4B12D2
000090
000280
ENDCHAR
STARTCHAR uni04C7
ENCODING 1223
SWIDTH 678 0
DWIDTH 6 0
BBX 7 9 0 -2
BITMAP
05600A10
08300B00
0B001900
0DAAC600
29008300
5600A000
8300B000
00066000
1BB80000
ENDCHAR
STARTCHAR uni04C8
ENCODING 1224
SWIDTH 599 0
DWIDTH 5 0
BBX 5 7 0 -2
BITMAP
0B00B0
1A00B0
3C9B90
640660
A10920
000B00
09B400
ENDCHAR
STARTCHAR uni04C9
ENCODING 1225
SWIDTH 684 0
DWIDTH 6 0
BBX 7 9 0 -2
BITMAP
05600A10
08300B00
0B001A00
0DAAC700
29008400
5600A100
8300D600
00007300
0001B000
ENDCHAR
STARTCHAR uni04CA
ENCODING 1226
SWIDTH 599 0
DWIDTH 5 0
BBX 5 7 0 -2
BITMAP
0B00B0
1A00B0
3C9B90
640560
A10890
000280
000820
ENDCHAR
STARTCHAR uni04CB
ENCODING 1227
SWIDTH 639 0
DWIDTH 6 0
BBX 5 9 1 -2
BITMAP
6501A0
920480
B00650
C12B20
4A8C00
000B00
00A800
019000
047000
ENDCHAR
STARTCHAR uni04CC
ENCODING 1228
SWIDTH 578 0
DWIDTH 5 0
BBX 5 7 0 -2
BITMAP
0B00B0
1B0390
1B1A60
068930
004D00
008300
00A100
ENDCHAR
STARTCHAR uni04CD
ENCODING 1229
SWIDTH 841 0
DWIDTH 8 0
BBX 8 9 0 -2
BITMAP
05D000D7
08B005C4
0B910AA1
0B7365B0
2955A1A0
563C5480
831C07C0
00000190
00000940
ENDCHAR
STARTCHAR uni04CE
ENCODING 1230
SWIDTH 688 0
DWIDTH 6 0
BBX 6 7 0 -2
BITMAP
0C303C
1C5099
387576
639973
90B2A7
000055
0000A0
ENDCHAR
STARTCHAR uni04CF
ENCODING 1231
SWIDTH 272 0
DWIDTH 2 0
BBX 3 7 0 0
BITMAP
0560
0830
0B00
0B00
2900
5600
8300
ENDCHAR
STARTCHAR uni04D0
ENCODING 1232
SWIDTH 555 0
DWIDTH 5 0
BBX 7 9 -1 0
BITMAP
000A8A10
00000000
0004C000
000AB000
0047A100
00B18300
04CAC400
0B105600
48003800
ENDCHAR
STARTCHAR uni04D1
ENCODING 1233
SWIDTH 564 0
DWIDTH 5 0
BBX 5 7 0 0
BITMAP
01B890
000000
06A8A0
2A0590
750660
840D30
3B8A00
ENDCHAR
STARTCHAR uni04D2
ENCODING 1234
SWIDTH 555 0
DWIDTH 5 0
BBX 6 9 -1 0
BITMAP
000818
000000
0004C0
000AB0
0047A1
00B183
04CAC4
0B1056
480038
ENDCHAR
STARTCHAR uni04D3
ENCODING 1235
SWIDTH 564 0
DWIDTH 5 0
BBX 5 7 0 0
BITMAP
008440
000000
06A8A0
2A0590
750660
840D30
3B8A00
ENDCHAR
STARTCHAR uni04D4
ENCODING 1236
SWIDTH 816 0
DWIDTH 7 0
BBX 9 7 -1 0
BITMAP
0000ADAA70
00047B0000
000B1B0000
00753CA900
01CAD60000
0930930000
3900CAA400
ENDCHAR
STARTCHAR uni04D5
ENCODING 1237
SWIDTH 814 0
DWIDTH 7 0
BBX 8 5 0 0
BITMAP
06A7B9B1
2A0782B1
7508A720
842E3000
4B7AB960
ENDCHAR
STARTCHAR uni04D6
ENCODING 1238
SWIDTH 511 0
DWIDTH 5 0
BBX 6 9 0 0
BITMAP
00A8A1
000000
05CA90
083000
0B0000
0DAA20
290000
560000
8CA700
ENDCHAR
STARTCHAR uni04D7
ENCODING 1239
SWIDTH 493 0
DWIDTH 4 0
BBX 5 7 0 0
BITMAP
05A950
000000
06AB10
392B10
7A7200
840000
2B9600
ENDCHAR
STARTCHAR uni04D8
ENCODING 1240
SWIDTH 661 0
DWIDTH 6 0
BBX 6 7 0 0
BITMAP
06AAA0
000066
000029
07BAC8
680094
9404B0
3BA910
ENDCHAR
STARTCHAR uni04D9
ENCODING 1241
SWIDTH 493 0
DWIDTH 4 0
BBX 4 5 0 0
BITMAP
29A7
000B
299D
A249
7AA1
ENDCHAR
STARTCHAR uni04DA
ENCODING 1242
SWIDTH 661 0
DWIDTH 6 0
BBX 6 9 0 0
BITMAP
005490
000000
06AAA0
000066
000029
07BAC8
680094
9404B0
3BA910
ENDCHAR
STARTCHAR uni04DB
ENCODING 1243
SWIDTH 493 0
DWIDTH 4 0
BBX 4 7 0 0
BITMAP
0639
0000
29A7
000B
299D
A249
7AA1
ENDCHAR
STARTCHAR uni04DC
ENCODING 1244
SWIDTH 775 0
DWIDTH 7 0
BBX 9 9 -1 0
BITMAP
0000719000
0000000000
00B11A0860
0057476800
000B87A000
000ADD1000
0068B75000
04A1A1B000
2B14709400
ENDCHAR
STARTCHAR uni04DD
ENCODING 1245
SWIDTH 833 0
DWIDTH 8 0
BBX 9 7 -1 0
BITMAP
0000818000
0000000000
03B6283A70
000B65C100
001CDAA000
0065A29000
1980A0A900
ENDCHAR
STARTCHAR uni04DE
ENCODING 1246
SWIDTH 532 0
DWIDTH 5 0
BBX 5 9 0 0
BITMAP
008450
000000
089B40
000290
001850
08B900
000930
000B20
AAA600
ENDCHAR
STARTCHAR uni04DF
ENCODING 1247
SWIDTH 436 0
DWIDTH 4 0
BBX 4 7 0 0
BITMAP
0729
0000
1AB6
0048
08C1
0064
A9A1
ENDCHAR
STARTCHAR uni04E0
ENCODING 1248
SWIDTH 525 0
DWIDTH 5 0
BBX 5 7 0 0
BITMAP
07ACB0
002A10
02A100
05A900
000A20
000C10
9AA500
ENDCHAR
STARTCHAR uni04E1
ENCODING 1249
SWIDTH 456 0
DWIDTH 4 0
BBX 5 7 -1 -2
BITMAP
03AAC0
000A20
009300
029A00
000840
000A20
69A600
ENDCHAR
STARTCHAR uni04E2
ENCODING 1250
SWIDTH 696 0
DWIDTH 6 0
BBX 7 9 0 0
BITMAP
00199300
00000000
05501D30
08209C10
0B056B00
0B2A1900
29A14700
5C507400
8900A100
ENDCHAR
STARTCHAR uni04E3
ENCODING 1251
SWIDTH 577 0
DWIDTH 5 0
BBX 5 7 0 0
BITMAP
009940
000000
0B00B0
1A0290
470660
740C30
4B8A00
ENDCHAR
STARTCHAR uni04E4
ENCODING 1252
SWIDTH 696 0
DWIDTH 6 0
BBX 7 9 0 0
BITMAP
00085300
00000000
05501D30
08209C10
0B056B00
0B2A1900
29A14700
5C507400
8900A100
ENDCHAR
STARTCHAR uni04E5
ENCODING 1253
SWIDTH 577 0
DWIDTH 5 0
BBX 5 7 0 0
BITMAP
008440
000000
0B00B0
1A0290
470660
740C30
4B8A00
ENDCHAR
STARTCHAR uni04E6
ENCODING 1254
SWIDTH 720 0
DWIDTH 6 0
BBX 7 9 0 0
BITMAP
00085300
00000000
009AB500
09500C00
1B000920
48000A20
57000C00
2B007800
06BA8000
ENDCHAR
STARTCHAR uni04E7
ENCODING 1255
SWIDTH 561 0
DWIDTH 5 0
BBX 5 7 0 0
BITMAP
008630
000000
07AB20
390380
740480
840840
2AA700
ENDCHAR
STARTCHAR uni04E8
ENCODING 1256
SWIDTH 720 0
DWIDTH 6 0
BBX 7 7 0 0
BITMAP
009AB500
09500C00
1B000920
4CAAAE20
57000D00
2B008800
06BB8000
ENDCHAR
STARTCHAR uni04E9
ENCODING 1257
SWIDTH 561 0
DWIDTH 5 0
BBX 5 5 0 0
BITMAP
07AA20
390390
7BAB80
840830
2AA700
ENDCHAR
STARTCHAR uni04EA
ENCODING 1258
SWIDTH 720 0
DWIDTH 6 0
BBX 7 9 0 0
BITMAP
00085300
00000000
009AB500
09500C00
1B000920
4CAAAE20
57000D00
2B008800
06BB8000
ENDCHAR
STARTCHAR uni04EB
ENCODING 1259
SWIDTH 561 0
DWIDTH 5 0
BBX 5 7 0 0
BITMAP
008630
000000
07AA20
390390
7BAB80
840830
2AA700
ENDCHAR
STARTCHAR uni04EC
ENCODING 1260
SWIDTH 584 0
DWIDTH 5 0
BBX 5 9 0 0
BITMAP
008540
000000
09AB30
0002B0
0000C0
06AAD0
0002B0
000A40
AAB500
ENDCHAR
STARTCHAR uni04ED
ENCODING 1261
SWIDTH 456 0
DWIDTH 4 0
BBX 4 7 0 0
BITMAP
0818
0000
4AA3
0029
2AB9
0075
9A90
ENDCHAR
STARTCHAR uni04EE
ENCODING 1262
SWIDTH 571 0
DWIDTH 5 0
BBX 6 9 0 0
BITMAP
007960
000000
0B002A
0A10A2
065480
029A10
00C600
02B000
BB2000
ENDCHAR
STARTCHAR uni04EF
ENCODING 1263
SWIDTH 461 0
DWIDTH 4 0
BBX 6 9 -1 -2
BITMAP
006970
000000
074075
0561A0
038830
01AA00
00D200
039000
8A1000
ENDCHAR
STARTCHAR uni04F0
ENCODING 1264
SWIDTH 571 0
DWIDTH 5 0
BBX 6 9 0 0
BITMAP
008180
000000
0B002A
0A10A2
065480
029A10
00C600
02B000
BB2000
ENDCHAR
STARTCHAR uni04F1
ENCODING 1265
SWIDTH 461 0
DWIDTH 4 0
BBX 6 9 -1 -2
BITMAP
006290
000000
074075
0561A0
038830
01AA00
00D200
039000
8A1000
ENDCHAR
STARTCHAR uni04F2
ENCODING 1266
SWIDTH 571 0
DWIDTH 5 0
BBX 6 9 0 0
BITMAP
003773
000000
0B002A
0A10A2
065480
029A10
00C600
02B000
BB2000
ENDCHAR
STARTCHAR uni04F3
ENCODING 1267
SWIDTH 461 0
DWIDTH 4 0
BBX 6 9 -1 -2
BITMAP
003773
000000
074075
0561A0
038830
01AA00
00D200
039000
8A1000
ENDCHAR
STARTCHAR uni04F4
ENCODING 1268
SWIDTH 639 0
DWIDTH 6 0
BBX 5 9 1 0
BITMAP
045800
000000
6501A0
920480
B00650
C12B20
5A7C00
000B00
003800
ENDCHAR
STARTCHAR uni04F5
ENCODING 1269
SWIDTH 555 0
DWIDTH 5 0
BBX 5 7 0 0
BITMAP
017720
000000
1A0290
380660
482C30
087B00
000B00
ENDCHAR
STARTCHAR uni04F6
ENCODING 1270
SWIDTH 476 0
DWIDTH 4 0
BBX 5 9 0 -2
BITMAP
05CA90
083000
0B0000
0B0000
290000
570000
8B0000
0B0000
280000
ENDCHAR
STARTCHAR uni04F7
ENCODING 1271
SWIDTH 382 0
DWIDTH 3 0
BBX 4 7 0 -2
BITMAP
0CA7
1B00
3800
6500
A800
3800
6600
ENDCHAR
STARTCHAR uni04F8
ENCODING 1272
SWIDTH 786 0
DWIDTH 7 0
BBX 8 9 0 0
BITMAP
00081800
00000000
056000B1
083000B0
0B0002A0
0DAB1570
29066840
56074A10
8BA80B00
ENDCHAR
STARTCHAR uni04F9
ENCODING 1273
SWIDTH 721 0
DWIDTH 6 0
BBX 7 7 0 0
BITMAP
00449000
00000000
0B000A20
1A000B00
4B991A00
650B4700
2BA67400
ENDCHAR
STARTCHAR uni04FA
ENCODING 1274
SWIDTH 471 0
DWIDTH 4 0
BBX 5 9 0 -2
BITMAP
06CA90
093000
0B0000
6DA200
390000
560000
890000
090000
950000
ENDCHAR
STARTCHAR uni04FB
ENCODING 1275
SWIDTH 382 0
DWIDTH 3 0
BBX 4 7 0 -2
BITMAP
0CA7
1A00
AB60
7400
A700
2800
B300
ENDCHAR
STARTCHAR uni04FC
ENCODING 1276
SWIDTH 508 0
DWIDTH 5 0
BBX 7 9 -1 -2
BITMAP
00B00A20
00747500
002B9000
001E1000
00A75000
0661A000
2A00B500
00004500
0002B100
ENDCHAR
STARTCHAR uni04FD
ENCODING 1277
SWIDTH 469 0
DWIDTH 4 0
BBX 6 7 -1 -2
BITMAP
0190A3
009850
006A00
029A10
1B15A0
0000A0
000860
ENDCHAR
STARTCHAR uni04FE
ENCODING 1278
SWIDTH 519 0
DWIDTH 5 0
BBX 7 7 -1 0
BITMAP
00B00A20
00747500
002B9000
02BFB400
00A75000
0661A000
2A00B100
ENDCHAR
STARTCHAR uni04FF
ENCODING 1279
SWIDTH 478 0
DWIDTH 4 0
BBX 6 5 -1 0
BITMAP
0190A2
008840
04DD70
03AB10
1B1570
ENDCHAR
STARTCHAR uni0500
ENCODING 1280
SWIDTH 565 0
DWIDTH 5 0
BBX 6 7 0 0
BITMAP
0000B1
0000B0
0002A0
099C70
660740
840A10
2BAC00
ENDCHAR
STARTCHAR uni0501
ENCODING 1281
SWIDTH 577 0
DWIDTH 5 0
BBX 6 7 0 0
BITMAP
000074
0000A1
06A8B0
2A0490
750560
840D30
4B8B00
ENDCHAR
STARTCHAR uni0502
ENCODING 1282
SWIDTH 831 0
DWIDTH 7 0
BBX 7 7 0 0
BITMAP
0000A100
0000B000
0001A000
08AC70B0
580750B0
850B3480
3CA7BB20
ENDCHAR
STARTCHAR uni0503
ENCODING 1283
SWIDTH 850 0
DWIDTH 8 0
BBX 7 7 0 0
BITMAP
00007400
0000A100
06A8A000
3A049000
750560B0
840C41A0
4B94BB40
ENDCHAR
STARTCHAR uni0504
ENCODING 1284
SWIDTH 837 0
DWIDTH 8 0
BBX 6 7 1 0
BITMAP
79B500
002A00
017500
7A900B
00A20B
00A339
005BB2
ENDCHAR
STARTCHAR uni0505
ENCODING 1285
SWIDTH 743 0
DWIDTH 7 0
BBX 6 5 0 0
BITMAP
2AB500
005700
09B10B
00741B
003BB4
ENDCHAR
STARTCHAR uni0506
ENCODING 1286
SWIDTH 569 0
DWIDTH 5 0
BBX 4 9 1 -2
BITMAP
7AB5
002A
0185
7A90
0092
00A2
00D6
0056
0073
ENDCHAR
STARTCHAR uni0507
ENCODING 1287
SWIDTH 470 0
DWIDTH 4 0
BBX 4 7 0 -2
BITMAP
2AB5
0057
09C1
0074
0098
0039
0066
ENDCHAR
STARTCHAR uni0508
ENCODING 1288
SWIDTH 895 0
DWIDTH 8 0
BBX 9 7 -1 0
BITMAP
0006BC8000
000A165000
000B092000
00380B0470
00740B0740
00B02A0A10
3B500BB700
ENDCHAR
STARTCHAR uni0509
ENCODING 1289
SWIDTH 806 0
DWIDTH 7 0
BBX 8 5 -1 0
BITMAP
0019B600
00757400
00B0A139
0380B065
4B109AA1
ENDCHAR
STARTCHAR uni050A
ENCODING 1290
SWIDTH 953 0
DWIDTH 9 0
BBX 8 7 0 0
BITMAP
05600B10
08300B00
0B001A00
0DAAC70B
2900740B
56009238
83005BB2
ENDCHAR
STARTCHAR uni050B
ENCODING 1291
SWIDTH 867 0
DWIDTH 8 0
BBX 8 5 0 0
BITMAP
0B00B000
1A00B000
3C9B9092
640570B0
A102BA50
ENDCHAR
STARTCHAR uni050C
ENCODING 1292
SWIDTH 695 0
DWIDTH 6 0
BBX 6 7 0 0
BITMAP
007BA9
087000
1C0000
4805AD
57002A
2B0085
06BA80
ENDCHAR
STARTCHAR uni050D
ENCODING 1293
SWIDTH 588 0
DWIDTH 5 0
BBX 5 5 0 0
BITMAP
06A970
3A0000
843AC0
740470
1A9A10
ENDCHAR
STARTCHAR uni050E
ENCODING 1294
SWIDTH 658 0
DWIDTH 6 0
BBX 6 7 0 0
BITMAP
1ACCA2
008300
00B000
00B065
029092
0480B0
01BB60
ENDCHAR
STARTCHAR uni050F
ENCODING 1295
SWIDTH 586 0
DWIDTH 5 0
BBX 5 5 0 0
BITMAP
5BC800
074000
0A1290
0B0650
08AA10
ENDCHAR
STARTCHAR uni0510
ENCODING 1296
SWIDTH 539 0
DWIDTH 5 0
BBX 5 7 0 0
BITMAP
02A9A0
083000
065000
06A910
580000
660000
1BA930
ENDCHAR
STARTCHAR uni0511
ENCODING 1297
SWIDTH 444 0
DWIDTH 4 0
BBX 4 5 0 0
BITMAP
09A9
0B00
2A90
A100
6B94
ENDCHAR
STARTCHAR uni0512
ENCODING 1298
SWIDTH 633 0
DWIDTH 6 0
BBX 7 9 -1 -2
BITMAP
0006BAB0
000A1380
000B0650
00380920
00740B00
00B00B00
3B503D20
00000900
00005900
ENDCHAR
STARTCHAR uni0513
ENCODING 1299
SWIDTH 526 0
DWIDTH 5 0
BBX 6 7 -1 -2
BITMAP
0019B6
007574
00B0A1
0380B0
4B12D2
000091
0005A0
ENDCHAR
STARTCHAR uni1E00
ENCODING 7680
SWIDTH 555 0
DWIDTH 5 0
BBX 6 10 -1 -3
BITMAP
0004C0
000AB0
0047A1
00B183
04CAC4
0B1056
480038
000000
009800
009800
ENDCHAR
STARTCHAR uni1E01
ENCODING 7681
SWIDTH 564 0
DWIDTH 5 0
BBX 5 8 0 -3
BITMAP
06A8A0
2A0590
750660
840D30
3B8A00
000000
089000
089000
ENDCHAR
STARTCHAR uni1E3E
ENCODING 7742
SWIDTH 836 0
DWIDTH 8 0
BBX 8 9 0 0
BITMAP
00004700
00000000
05D000D7
08B005C4
0B910AA1
0B7365B0
2955A1B0
563C5480
831C0750
ENDCHAR
STARTCHAR uni1E3F
ENCODING 7743
SWIDTH 872 0
DWIDTH 8 0
BBX 8 7 0 0
BITMAP
00005600
00000000
0A7B59C2
1E14B075
39065092
650920B0
A20B01B0
ENDCHAR
STARTCHAR Wgrave
ENCODING 7808
SWIDTH 852 0
DWIDTH 8 0
BBX 8 9 1 0
BITMAP
00190000
00000000
B00D2083
B05C30B0
B0A73560
B3864A10
B9257800
A904C200
C304B000
ENDCHAR
STARTCHAR wgrave
ENCODING 7809
SWIDTH 716 0
DWIDTH 6 0
BBX 7 7 0 0
BITMAP
00190000
00000000
741E0380
647A1A20
65974A00
5A46A300
5C06B000
ENDCHAR
STARTCHAR Wacute
ENCODING 7810
SWIDTH 852 0
DWIDTH 8 0
BBX 8 9 1 0
BITMAP
00038100
00000000
B00D2083
B05C30B0
B0A73560
B3864A10
B9257800
A904C200
C304B000
ENDCHAR
STARTCHAR wacute
ENCODING 7811
SWIDTH 716 0
DWIDTH 6 0
BBX 7 7 0 0
BITMAP
00038100
00000000
741E0380
647A1A20
65974A00
5A46A300
5C06B000
ENDCHAR
STARTCHAR Wdieresis
ENCODING 7812
SWIDTH 852 0
DWIDTH 8 0
BBX 8 9 1 0
BITMAP
00449000
00000000
B00D2083
B05C30B0
B0A73560
B3864A10
B9257800
A904C200
C304B000
ENDCHAR
STARTCHAR wdieresis
ENCODING 7813
SWIDTH 716 0
DWIDTH 6 0
BBX 7 7 0 0
BITMAP
00549000
00000000
741E0380
647A1A20
65974A00
5A46A300
5C06B000
ENDCHAR
STARTCHAR uni1EA0
ENCODING 7840
SWIDTH 555 0
DWIDTH 5 0
BBX 6 9 -1 -2
BITMAP
0004C0
000AB0
0047A1
00B183
04CAC4
0B1056
480038
000000
005400
ENDCHAR
STARTCHAR uni1EA1
ENCODING 7841
SWIDTH 564 0
DWIDTH 5 0
BBX 5 7 0 -2
BITMAP
06A8A0
2A0590
750660
840D30
3B8A00
000000
073000
ENDCHAR
STARTCHAR uni1EA2
ENCODING 7842
SWIDTH 555 0
DWIDTH 5 0
BBX 6 10 -1 0
BITMAP
000077
000082
000000
0004C0
000AB0
0047A1
00B183
04CAC4
0B1056
480038
ENDCHAR
STARTCHAR uni1EA3
ENCODING 7843
SWIDTH 564 0
DWIDTH 5 0
BBX 5 8 0 0
BITMAP
001930
002800
000000
06A8A0
2A0590
750660
840D30
3B8A00
ENDCHAR
STARTCHAR uni1EA4
ENCODING 7844
SWIDTH 555 0
DWIDTH 5 0
BBX 7 10 -1 0
BITMAP
00000380
00059400
00000000
0004C000
000AB000
0047A100
00B18300
04CAC400
0B105600
48003800
ENDCHAR
STARTCHAR uni1EA5
ENCODING 7845
SWIDTH 564 0
DWIDTH 5 0
BBX 6 8 0 0
BITMAP
000065
006920
000000
06A8A0
2A0590
750660
840D30
3B8A00
ENDCHAR
STARTCHAR uni1EA6
ENCODING 7846
SWIDTH 555 0
DWIDTH 5 0
BBX 6 10 -1 0
BITMAP
004400
000594
000000
0004C0
000AB0
0047A1
00B183
04CAC4
0B1056
480038
ENDCHAR
STARTCHAR uni1EA7
ENCODING 7847
SWIDTH 564 0
DWIDTH 5 0
BBX 5 8 0 0
BITMAP
072000
006920
000000
06A8A0
2A0590
750660
840D30
3B8A00
ENDCHAR
STARTCHAR uni1EA8
ENCODING 7848
SWIDTH 555 0
DWIDTH 5 0
BBX 7 10 -1 0
BITMAP
00000450
00059400
00000000
0004C000
000AB000
0047A100
00B18300
04CAC400
0B105600
48003800
ENDCHAR
STARTCHAR uni1EA9
ENCODING 7849
SWIDTH 564 0
DWIDTH 5 0
BBX 6 8 0 0
BITMAP
000063
006920
000000
06A8A0
2A0590
750660
840D30
3B8A00
ENDCHAR
STARTCHAR uni1EAA
ENCODING 7850
SWIDTH 555 0
DWIDTH 5 0
BBX 7 10 -1 0
BITMAP
00048710
00059400
00000000
0004C000
000AB000
0047A100
00B18300
04CAC400
0B105600
48003800
ENDCHAR
STARTCHAR uni1EAB
ENCODING 7851
SWIDTH 564 0
DWIDTH 5 0
BBX 5 8 0 0
BITMAP
006860
006A20
000000
06A8A0
2A0590
750660
840D30
3B8A00
ENDCHAR
STARTCHAR uni1EAC
ENCODING 7852
SWIDTH 555 0
DWIDTH 5 0
BBX 6 11 -1 -2
BITMAP
0005A6
000000
0004C0
000AB0
0047A1
00B183
04CAC4
0B1056
480038
000000
005400
ENDCHAR
STARTCHAR uni1EAD
ENCODING 7853
SWIDTH 564 0
DWIDTH 5 0
BBX 5 9 0 -2
BITMAP
018B20
000000
06A8A0
2A0590
750660
840D30
3B8A00
000000
073000
ENDCHAR
STARTCHAR uni1EAE
ENCODING 7854
SWIDTH 555 0
DWIDTH 5 0
BBX 6 10 -1 0
BITMAP
000046
000796
000000
0004C0
000AB0
0047A1
00B183
04CAC4
0B1056
480038
ENDCHAR
STARTCHAR uni1EAF
ENCODING 7855
SWIDTH 564 0
DWIDTH 5 0
BBX 5 8 0 0
BITMAP
000730
009940
000000
06A8A0
2A0590
750660
840D30
3B8A00
ENDCHAR
STARTCHAR uni1EB0
ENCODING 7856
SWIDTH 555 0
DWIDTH 5 0
BBX 6 10 -1 0
BITMAP
000170
000796
000000
0004C0
000AB0
0047A1
00B183
04CAC4
0B1056
480038
ENDCHAR
STARTCHAR uni1EB1
ENCODING 7857
SWIDTH 564 0
DWIDTH 5 0
BBX 5 8 0 0
BITMAP
004500
009940
000000
06A8A0
2A0590
750660
840D30
3B8A00
ENDCHAR
STARTCHAR uni1EB2
ENCODING 7858
SWIDTH 555 0
DWIDTH 5 0
BBX 6 10 -1 0
BITMAP
000083
000796
000000
0004C0
000AB0
0047A1
00B183
04CAC4
0B1056
480038
ENDCHAR
STARTCHAR uni1EB3
ENCODING 7859
SWIDTH 564 0
DWIDTH 5 0
BBX 5 8 0 0
BITMAP
000A00
009940
000000
06A8A0
2A0590
750660
840D30
3B8A00
ENDCHAR
STARTCHAR uni1EB4
ENCODING 7860
SWIDTH 555 0
DWIDTH 5 0
BBX 7 10 -1 0
BITMAP
00048710
00079600
00000000
0004C000
000AB000
0047A100
00B18300
04CAC400
0B105600
48003800
ENDCHAR
STARTCHAR uni1EB5
ENCODING 7861
SWIDTH 564 0
DWIDTH 5 0
BBX 5 8 0 0
BITMAP
006860
009940
000000
06A8A0
2A0590
750660
840D30
3B8A00
ENDCHAR
STARTCHAR uni1EB6
ENCODING 7862
SWIDTH 555 0
DWIDTH 5 0
BBX 6 12 -1 -2
BITMAP
000707
0005A4
000000
0004C0
000AB0
0047A1
00B183
04CAC4
0B1056
480038
000000
005400
ENDCHAR
STARTCHAR uni1EB7
ENCODING 7863
SWIDTH 564 0
DWIDTH 5 0
BBX 5 10 0 -2
BITMAP
007070
007A20
000000
06A8A0
2A0590
750660
840D30
3B8A00
000000
073000
ENDCHAR
STARTCHAR uni1EB8
ENCODING 7864
SWIDTH 511 0
DWIDTH 5 0
BBX 5 9 0 -2
BITMAP
05CA90
083000
0B0000
0DAA20
290000
560000
8CA700
000000
072000
ENDCHAR
STARTCHAR uni1EB9
ENCODING 7865
SWIDTH 493 0
DWIDTH 4 0
BBX 5 7 0 -2
BITMAP
06AB10
392B10
7A7200
840000
2B9600
000000
081000
ENDCHAR
STARTCHAR uni1EBA
ENCODING 7866
SWIDTH 511 0
DWIDTH 5 0
BBX 5 10 0 0
BITMAP
000860
000910
000000
05CA90
083000
0B0000
0DAA20
290000
560000
8CA700
ENDCHAR
STARTCHAR uni1EBB
ENCODING 7867
SWIDTH 493 0
DWIDTH 4 0
BBX 5 8 0 0
BITMAP
003A00
005500
000000
06AB10
392B10
7A7200
840000
2B9600
ENDCHAR
STARTCHAR uni1EBC
ENCODING 7868
SWIDTH 511 0
DWIDTH 5 0
BBX 5 10 0 0
BITMAP
008660
016670
000000
05CA90
083000
0B0000
0DAA20
290000
560000
8CA700
ENDCHAR
STARTCHAR uni1EBD
ENCODING 7869
SWIDTH 493 0
DWIDTH 4 0
BBX 5 8 0 0
BITMAP
04A160
072A20
000000
06AB10
392B10
7A7200
840000
2B9600
ENDCHAR
STARTCHAR uni1EBE
ENCODING 7870
SWIDTH 511 0
DWIDTH 5 0
BBX 6 10 0 0
BITMAP
000037
005940
000000
05CA90
083000
0B0000
0DAA20
290000
560000
8CA700
ENDCHAR
STARTCHAR uni1EBF
ENCODING 7871
SWIDTH 493 0
DWIDTH 4 0
BBX 6 8 0 0
BITMAP
000083
017910
000000
06AB10
392B10
7A7200
840000
2B9600
ENDCHAR
STARTCHAR uni1EC0
ENCODING 7872
SWIDTH 511 0
DWIDTH 5 0
BBX 5 10 0 0
BITMAP
044000
005940
000000
05CA90
083000
0B0000
0DAA20
290000
560000
8CA700
ENDCHAR
STARTCHAR uni1EC1
ENCODING 7873
SWIDTH 493 0
DWIDTH 4 0
BBX 5 8 0 0
BITMAP
080000
017910
000000
06AB10
392B10
7A7200
840000
2B9600
ENDCHAR
STARTCHAR uni1EC2
ENCODING 7874
SWIDTH 511 0
DWIDTH 5 0
BBX 6 10 0 0
BITMAP
000045
005940
000000
05CA90
083000
0B0000
0DAA20
290000
560000
8CA700
ENDCHAR
STARTCHAR uni1EC3
ENCODING 7875
SWIDTH 493 0
DWIDTH 4 0
BBX 6 8 0 0
BITMAP
000081
017910
000000
06AB10
392B10
7A7200
840000
2B9600
ENDCHAR
STARTCHAR uni1EC4
ENCODING 7876
SWIDTH 511 0
DWIDTH 5 0
BBX 6 10 0 0
BITMAP
004871
005940
000000
05CA90
083000
0B0000
0DAA20
290000
560000
8CA700
ENDCHAR
STARTCHAR uni1EC5
ENCODING 7877
SWIDTH 493 0
DWIDTH 4 0
BBX 5 8 0 0
BITMAP
007850
018910
000000
06AB10
392B10
7A7200
840000
2B9600
ENDCHAR
STARTCHAR uni1EC6
ENCODING 7878
SWIDTH 511 0
DWIDTH 5 0
BBX 5 11 0 -2
BITMAP
005A60
000000
05CA90
083000
0B0000
0DAA20
290000
560000
8CA700
000000
072000
ENDCHAR
STARTCHAR uni1EC7
ENCODING 7879
SWIDTH 493 0
DWIDTH 4 0
BBX 5 9 0 -2
BITMAP
028A10
000000
06AB10
392B10
7A7200
840000
2B9600
000000
081000
ENDCHAR
STARTCHAR uni1EC8
ENCODING 7880
SWIDTH 272 0
DWIDTH 2 0
BBX 4 10 0 0
BITMAP
0184
0091
0000
0560
0830
0B00
0B00
2900
5600
8300
ENDCHAR
STARTCHAR uni1EC9
ENCODING 7881
SWIDTH 253 0
DWIDTH 2 0
BBX 3 8 0 0
BITMAP
0490
0640
0000
0B00
1B00
3800
6500
A200
ENDCHAR
STARTCHAR uni1ECA
ENCODING 7882
SWIDTH 272 0
DWIDTH 2 0
BBX 3 9 0 -2
BITMAP
0560
0830
0B00
0B00
2900
5600
8300
0000
9000
ENDCHAR
STARTCHAR uni1ECB
ENCODING 7883
SWIDTH 253 0
DWIDTH 2 0
BBX 3 9 0 -2
BITMAP
0540
0000
0B00
1B00
3800
6500
A200
0000
9000
ENDCHAR
STARTCHAR uni1ECC
ENCODING 7884
SWIDTH 720 0
DWIDTH 6 0
BBX 7 9 0 -2
BITMAP
009AB500
09500C00
1B000920
48000A20
57000C00
2B007800
06BA8000
00000000
00900000
ENDCHAR
STARTCHAR uni1ECD
ENCODING 7885
SWIDTH 561 0
DWIDTH 5 0
BBX 5 7 0 -2
BITMAP
07AB20
390380
740480
840840
2AA700
000000
054000
ENDCHAR
STARTCHAR uni1ECE
ENCODING 7886
SWIDTH 720 0
DWIDTH 6 0
BBX 7 10 0 0
BITMAP
00019300
00018100
00000000
009AB500
09500C00
1B000920
48000A20
57000C00
2B007800
06BA8000
ENDCHAR
STARTCHAR uni1ECF
ENCODING 7887
SWIDTH 561 0
DWIDTH 5 0
BBX 5 8 0 0
BITMAP
002A10
003700
000000
07AB20
390380
740480
840840
2AA700
ENDCHAR
STARTCHAR uni1ED0
ENCODING 7888
SWIDTH 720 0
DWIDTH 6 0
BBX 7 10 0 0
BITMAP
00000740
00179100
00000000
009AB500
09500C00
1B000920
48000A20
57000C00
2B007800
06BA8000
ENDCHAR
STARTCHAR uni1ED1
ENCODING 7889
SWIDTH 561 0
DWIDTH 5 0
BBX 6 8 0 0
BITMAP
000073
017910
000000
07AB20
390380
740480
840840
2AA700
ENDCHAR
STARTCHAR uni1ED2
ENCODING 7890
SWIDTH 720 0
DWIDTH 6 0
BBX 7 10 0 0
BITMAP
00810000
00179100
00000000
009AB500
09500C00
1B000920
48000A20
57000C00
2B007800
06BA8000
ENDCHAR
STARTCHAR uni1ED3
ENCODING 7891
SWIDTH 561 0
DWIDTH 5 0
BBX 5 8 0 0
BITMAP
081000
017910
000000
07AB20
390380
740480
840840
2AA700
ENDCHAR
STARTCHAR uni1ED4
ENCODING 7892
SWIDTH 720 0
DWIDTH 6 0
BBX 7 10 0 0
BITMAP
00000810
00179100
00000000
009AB500
09500C00
1B000920
48000A20
57000C00
2B007800
06BA8000
ENDCHAR
STARTCHAR uni1ED5
ENCODING 7893
SWIDTH 561 0
DWIDTH 5 0
BBX 6 8 0 0
BITMAP
000081
017910
000000
07AB20
390380
740480
840840
2AA700
ENDCHAR
STARTCHAR uni1ED6
ENCODING 7894
SWIDTH 720 0
DWIDTH 6 0
BBX 7 10 0 0
BITMAP
00078500
00179100
00000000
009AB500
09500C00
1B000920
48000A20
57000C00
2B007800
06BA8000
ENDCHAR
STARTCHAR uni1ED7
ENCODING 7895
SWIDTH 561 0
DWIDTH 5 0
BBX 5 8 0 0
BITMAP
007850
017910
000000
07AB20
390380
740480
840840
2AA700
ENDCHAR
STARTCHAR uni1ED8
ENCODING 7896
SWIDTH 720 0
DWIDTH 6 0
BBX 7 11 0 -2
BITMAP
0018A100
00000000
009AB500
09500C00
1B000920
48000A20
57000C00
2B007800
06BA8000
00000000
00900000
ENDCHAR
STARTCHAR uni1ED9
ENCODING 7897
SWIDTH 561 0
DWIDTH 5 0
BBX 5 9 0 -2
BITMAP
018A20
000000
07AB20
390380
740480
840840
2AA700
000000
054000
ENDCHAR
STARTCHAR uni1EDA
ENCODING 7898
SWIDTH 713 0
DWIDTH 6 0
BBX 8 9 0 0
BITMAP
00028100
00000000
009AB593
09500D40
1B000920
48000A20
57000C00
2B007700
06BA8000
ENDCHAR
STARTCHAR uni1EDB
ENCODING 7899
SWIDTH 561 0
DWIDTH 5 0
BBX 6 7 0 0
BITMAP
002820
00001B
07AA93
390380
740480
840840
2AA700
ENDCHAR
STARTCHAR uni1EDC
ENCODING 7900
SWIDTH 713 0
DWIDTH 6 0
BBX 8 9 0 0
BITMAP
00082000
00000000
009AB593
09500D40
1B000920
48000A20
57000C00
2B007700
06BA8000
ENDCHAR
STARTCHAR uni1EDD
ENCODING 7901
SWIDTH 561 0
DWIDTH 5 0
BBX 6 7 0 0
BITMAP
008200
00001B
07AA93
390380
740480
840840
2AA700
ENDCHAR
STARTCHAR uni1EDE
ENCODING 7902
SWIDTH 713 0
DWIDTH 6 0
BBX 8 10 0 0
BITMAP
00019300
00018100
00000000
009AB593
09500D40
1B000920
48000A20
57000C00
2B007700
06BA8000
ENDCHAR
STARTCHAR uni1EDF
ENCODING 7903
SWIDTH 561 0
DWIDTH 5 0
BBX 6 8 0 0
BITMAP
002A10
003700
00001B
07AA93
390380
740480
840840
2AA700
ENDCHAR
STARTCHAR uni1EE0
ENCODING 7904
SWIDTH 713 0
DWIDTH 6 0
BBX 8 10 0 0
BITMAP
002B2600
0061A400
00000000
009AB593
09500D40
1B000920
48000A20
57000C00
2B007700
06BA8000
ENDCHAR
STARTCHAR uni1EE1
ENCODING 7905
SWIDTH 561 0
DWIDTH 5 0
BBX 6 8 0 0
BITMAP
02B260
061940
00001B
07AA93
390380
740480
840840
2AA700
ENDCHAR
STARTCHAR uni1EE2
ENCODING 7906
SWIDTH 713 0
DWIDTH 6 0
BBX 8 9 0 -2
BITMAP
009AB593
09500D40
1B000920
48000A20
57000C00
2B007700
06BA8000
00000000
00900000
ENDCHAR
STARTCHAR uni1EE3
ENCODING 7907
SWIDTH 561 0
DWIDTH 5 0
BBX 6 8 0 -2
BITMAP
00001B
07AA93
390380
740480
840840
2AA700
000000
054000
ENDCHAR
STARTCHAR uni1EE4
ENCODING 7908
SWIDTH 675 0
DWIDTH 6 0
BBX 7 9 0 -2
BITMAP
07500A10
0A200B00
0B001A00
1B004700
38007400
3800B000
0AAA4000
00000000
00900000
ENDCHAR
STARTCHAR uni1EE5
ENCODING 7909
SWIDTH 577 0
DWIDTH 5 0
BBX 5 7 0 -2
BITMAP
0B00B0
1A0290
470660
740C30
4B8A00
000000
036000
ENDCHAR
STARTCHAR uni1EE6
ENCODING 7910
SWIDTH 675 0
DWIDTH 6 0
BBX 7 10 0 0
BITMAP
0003A000
00056000
00000000
07500A10
0A200B00
0B001A00
1B004700
38007400
3800B000
0AAA4000
ENDCHAR
STARTCHAR uni1EE7
ENCODING 7911
SWIDTH 577 0
DWIDTH 5 0
BBX 5 8 0 0
BITMAP
001930
001810
000000
0B00B0
1A0290
470660
740C30
4B8A00
ENDCHAR
STARTCHAR uni1EE8
ENCODING 7912
SWIDTH 722 0
DWIDTH 7 0
BBX 8 9 0 0
BITMAP
00028100
00000000
07500A88
0A200C40
0B001A00
1B004700
38007400
3800B000
09AB4000
ENDCHAR
STARTCHAR uni1EE9
ENCODING 7913
SWIDTH 617 0
DWIDTH 6 0
BBX 7 7 0 0
BITMAP
00182000
00000660
0B00D900
1A029000
47066000
740C3000
4B8A0000
ENDCHAR
STARTCHAR uni1EEA
ENCODING 7914
SWIDTH 722 0
DWIDTH 7 0
BBX 8 9 0 0
BITMAP
00191000
00000000
07500A88
0A200C40
0B001A00
1B004700
38007400
3800B000
09AB4000
ENDCHAR
STARTCHAR uni1EEB
ENCODING 7915
SWIDTH 617 0
DWIDTH 6 0
BBX 7 7 0 0
BITMAP
00830000
00000660
0B00D900
1A029000
47066000
740C3000
4B8A0000
ENDCHAR
STARTCHAR uni1EEC
ENCODING 7916
SWIDTH 722 0
DWIDTH 7 0
BBX 8 10 0 0
BITMAP
0003A000
00046000
00000000
07500A88
0A200C40
0B001A00
1B004700
38007400
3800B000
09AB4000
ENDCHAR
STARTCHAR uni1EED
ENCODING 7917
SWIDTH 617 0
DWIDTH 6 0
BBX 7 8 0 0
BITMAP
00193000
00191000
00000660
0B00D900
1A029000
47066000
740C3000
4B8A0000
ENDCHAR
STARTCHAR uni1EEE
ENCODING 7918
SWIDTH 722 0
DWIDTH 7 0
BBX 8 10 0 0
BITMAP
002B1600
0061A300
00000000
07500A88
0A200C40
0B001A00
1B004700
38007400
3800B000
09AB4000
ENDCHAR
STARTCHAR uni1EEF
ENCODING 7919
SWIDTH 617 0
DWIDTH 6 0
BBX 7 8 0 0
BITMAP
00A46000
03386000
00000660
0B00D900
1A029000
47066000
740C3000
4B8A0000
ENDCHAR
STARTCHAR uni1EF0
ENCODING 7920
SWIDTH 722 0
DWIDTH 7 0
BBX 8 9 0 -2
BITMAP
07500A88
0A200C40
0B001A00
1B004700
38007400
3800B000
09AB4000
00000000
00900000
ENDCHAR
STARTCHAR uni1EF1
ENCODING 7921
SWIDTH 617 0
DWIDTH 6 0
BBX 7 8 0 -2
BITMAP
00000660
0B00D900
1A029000
47066000
740C3000
4B8A0000
00000000
03600000
ENDCHAR
STARTCHAR Ygrave
ENCODING 7922
SWIDTH 502 0
DWIDTH 5 0
BBX 6 9 0 0
BITMAP
009200
000000
1A00B2
0B0660
093B00
05D300
039000
056000
083000
ENDCHAR
STARTCHAR ygrave
ENCODING 7923
SWIDTH 461 0
DWIDTH 4 0
BBX 6 9 -1 -2
BITMAP
003700
000000
074075
0561A0
038830
01AA00
00D200
039000
8A1000
ENDCHAR
STARTCHAR uni1EF4
ENCODING 7924
SWIDTH 502 0
DWIDTH 5 0
BBX 6 9 0 -2
BITMAP
1A00B2
0B0660
093B00
05D300
039000
056000
083000
000000
090000
ENDCHAR
STARTCHAR uni1EF5
ENCODING 7925
SWIDTH 461 0
DWIDTH 4 0
BBX 6 7 -1 -2
BITMAP
074075
0561A0
038830
01AA00
00D200
039000
8A1730
ENDCHAR
STARTCHAR uni1EF6
ENCODING 7926
SWIDTH 502 0
DWIDTH 5 0
BBX 6 10 0 0
BITMAP
002A20
003700
000000
1A00B2
0B0660
093B00
05D300
039000
056000
083000
ENDCHAR
STARTCHAR uni1EF7
ENCODING 7927
SWIDTH 461 0
DWIDTH 4 0
BBX 6 10 -1 -2
BITMAP
000670
000820
000000
074075
0561A0
038830
01AA00
00D200
039000
8A1000
ENDCHAR
STARTCHAR uni1EF8
ENCODING 7928
SWIDTH 502 0
DWIDTH 5 0
BBX 6 10 0 0
BITMAP
01B260
052950
000000
1A00B2
0B0660
093B00
05D300
039000
056000
083000
ENDCHAR
STARTCHAR uni1EF9
ENCODING 7929
SWIDTH 461 0
DWIDTH 4 0
BBX 6 10 -1 -2
BITMAP
007742
007590
000000
074075
0561A0
038830
01AA00
00D200
039000
8A1000
ENDCHAR
STARTCHAR uni1F4D
ENCODING 8013
SWIDTH 778 0
DWIDTH 7 0
BBX 8 7 -1 0
BITMAP
34B3BAA1
884B1058
0085001A
00B1002A
00C00067
009401C1
001AAB30
ENDCHAR
STARTCHAR uni2000
ENCODING 8192
SWIDTH 500 0
DWIDTH 5 0
BBX 1 1 0 0
BITMAP
00
ENDCHAR
STARTCHAR uni2001
ENCODING 8193
SWIDTH 1000 0
DWIDTH 9 0
BBX 1 1 0 0
BITMAP
00
ENDCHAR
STARTCHAR uni2002
ENCODING 8194
SWIDTH 500 0
DWIDTH 5 0
BBX 1 1 0 0
BITMAP
00
ENDCHAR
STARTCHAR uni2003
ENCODING 8195
SWIDTH 1000 0
DWIDTH 9 0
BBX 1 1 0 0
BITMAP
00
ENDCHAR
STARTCHAR uni2004
ENCODING 8196
SWIDTH 333 0
DWIDTH 3 0
BBX 1 1 0 0
BITMAP
00
ENDCHAR
STARTCHAR uni2005
ENCODING 8197
SWIDTH 250 0
DWIDTH 2 0
BBX 1 1 0 0
BITMAP
00
ENDCHAR
STARTCHAR uni2006
ENCODING 8198
SWIDTH 166 0
DWIDTH 2 0
BBX 1 1 0 0
BITMAP
00
ENDCHAR
STARTCHAR uni2007
ENCODING 8199
SWIDTH 559 0
DWIDTH 5 0
BBX 1 1 0 0
BITMAP
00
ENDCHAR
STARTCHAR uni2008
ENCODING 8200
SWIDTH 266 0
DWIDTH 2 0
BBX 1 1 0 0
BITMAP
00
ENDCHAR
STARTCHAR uni2009
ENCODING 8201
SWIDTH 200 0
DWIDTH 2 0
BBX 1 1 0 0
BITMAP
00
ENDCHAR
STARTCHAR uni200A
ENCODING 8202
SWIDTH 100 0
DWIDTH 1 0
BBX 1 1 0 0
BITMAP
00
ENDCHAR
STARTCHAR uni200B
ENCODING 8203
SWIDTH 0 0
DWIDTH 0 0
BBX 1 1 0 0
BITMAP
00
ENDCHAR
STARTCHAR endash
ENCODING 8211
SWIDTH 479 0
DWIDTH 4 0
BBX 4 1 0 2
BITMAP
7BBA
ENDCHAR
STARTCHAR emdash
ENCODING 8212
SWIDTH 959 0
DWIDTH 9 0
BBX 9 1 0 2
BITMAP
7BBBBBBB30
ENDCHAR
STARTCHAR afii00208
ENCODING 8213
SWIDTH 959 0
DWIDTH 9 0
BBX 9 1 0 2
BITMAP
7BBBBBBB30
ENDCHAR
STARTCHAR underscoredbl
ENCODING 8215
SWIDTH 394 0
DWIDTH 4 0
BBX 4 3 -1 -3
BITMAP
5999
0000
8997
ENDCHAR
STARTCHAR quoteleft
ENCODING 8216
SWIDTH 169 0
DWIDTH 2 0
BBX 3 2 0 5
BITMAP
0910
3900
ENDCHAR
STARTCHAR quoteright
ENCODING 8217
SWIDTH 169 0
DWIDTH 2 0
BBX 3 2 0 5
BITMAP
0B20
3700
ENDCHAR
STARTCHAR quotesinglbase
ENCODING 8218
SWIDTH 240 0
DWIDTH 2 0
BBX 3 2 -1 -1
BITMAP
0B20
3700
ENDCHAR
STARTCHAR quotereversed
ENCODING 8219
SWIDTH 169 0
DWIDTH 2 0
BBX 1 2 1 5
BITMAP
B0
90
ENDCHAR
STARTCHAR quotedblleft
ENCODING 8220
SWIDTH 351 0
DWIDTH 3 0
BBX 4 2 0 5
BITMAP
0929
3994
ENDCHAR
STARTCHAR quotedblright
ENCODING 8221
SWIDTH 351 0
DWIDTH 3 0
BBX 4 2 0 5
BITMAP
0B4A
3782
ENDCHAR
STARTCHAR quotedblbase
ENCODING 8222
SWIDTH 418 0
DWIDTH 4 0
BBX 4 2 -1 -1
BITMAP
0B4A
3782
ENDCHAR
STARTCHAR dagger
ENCODING 8224
SWIDTH 465 0
DWIDTH 4 0
BBX 4 7 1 0
BITMAP
0750
0810
AB92
0800
3600
7400
C100
ENDCHAR
STARTCHAR daggerdbl
ENCODING 8225
SWIDTH 476 0
DWIDTH 4 0
BBX 5 7 0 0
BITMAP
006600
007200
09B930
00B000
018000
6AA700
092000
ENDCHAR
STARTCHAR bullet
ENCODING 8226
SWIDTH 377 0
DWIDTH 3 0
BBX 3 2 0 2
BITMAP
0CB0
1E90
ENDCHAR
STARTCHAR ellipsis
ENCODING 8230
SWIDTH 763 0
DWIDTH 7 0
BBX 6 2 0 0
BITMAP
100101
A2662B
ENDCHAR
STARTCHAR perthousand
ENCODING 8240
SWIDTH 1117 0
DWIDTH 10 0
BBX 10 7 0 0
BITMAP
07A4082000
1836460000
3664900000
1B88697696
0046909909
0190928936
0910A91B91
ENDCHAR
STARTCHAR minute
ENCODING 8242
SWIDTH 216 0
DWIDTH 2 0
BBX 1 2 1 5
BITMAP
B0
80
ENDCHAR
STARTCHAR second
ENCODING 8243
SWIDTH 386 0
DWIDTH 3 0
BBX 3 2 1 5
BITMAP
B480
8620
ENDCHAR
STARTCHAR guilsinglleft
ENCODING 8249
SWIDTH 283 0
DWIDTH 3 0
BBX 3 3 0 1
BITMAP
0720
7500
1800
ENDCHAR
STARTCHAR guilsinglright
ENCODING 8250
SWIDTH 283 0
DWIDTH 3 0
BBX 3 3 0 1
BITMAP
2700
0B10
7300
ENDCHAR
STARTCHAR exclamdbl
ENCODING 8252
SWIDTH 479 0
DWIDTH 4 0
BBX 5 7 0 0
BITMAP
0C1490
0B0660
280920
540900
710800
100100
C06700
ENDCHAR
STARTCHAR fraction
ENCODING 8260
SWIDTH 130 0
DWIDTH 1 0
BBX 6 7 -2 0
BITMAP
000091
000640
002800
009100
064000
280000
900000
ENDCHAR
STARTCHAR zerosuperior
ENCODING 8304
SWIDTH 350 0
DWIDTH 3 0
BBX 4 4 0 3
BITMAP
08A2
2745
5462
2A80
ENDCHAR
STARTCHAR foursuperior
ENCODING 8308
SWIDTH 350 0
DWIDTH 3 0
BBX 4 4 0 3
BITMAP
00B2
06A0
2680
48B1
ENDCHAR
STARTCHAR fivesuperior
ENCODING 8309
SWIDTH 350 0
DWIDTH 3 0
BBX 4 4 0 3
BITMAP
0983
07A0
0090
3770
ENDCHAR
STARTCHAR sixsuperior
ENCODING 8310
SWIDTH 350 0
DWIDTH 3 0
BBX 4 4 0 3
BITMAP
0573
1AA0
3572
2A80
ENDCHAR
STARTCHAR sevensuperior
ENCODING 8311
SWIDTH 350 0
DWIDTH 3 0
BBX 4 4 0 3
BITMAP
06A6
0090
0540
1900
ENDCHAR
STARTCHAR eightsuperior
ENCODING 8312
SWIDTH 350 0
DWIDTH 3 0
BBX 4 4 0 3
BITMAP
0893
0963
28A0
4890
ENDCHAR
STARTCHAR ninesuperior
ENCODING 8313
SWIDTH 350 0
DWIDTH 3 0
BBX 4 4 0 3
BITMAP
0892
1865
06A1
3860
ENDCHAR
STARTCHAR nsuperior
ENCODING 8319
SWIDTH 368 0
DWIDTH 3 0
BBX 4 3 0 4
BITMAP
0976
0925
2662
ENDCHAR
STARTCHAR franc
ENCODING 8355
SWIDTH 550 0
DWIDTH 5 0
BBX 6 7 0 0
BITMAP
01DAA2
037000
064000
09AA40
0A0000
7D8000
380000
ENDCHAR
STARTCHAR afii08941
ENCODING 8356
SWIDTH 550 0
DWIDTH 5 0
BBX 6 7 0 0
BITMAP
009AA1
047000
3CA800
0A1000
5D9500
2A0000
DBAA20
ENDCHAR
STARTCHAR peseta
ENCODING 8359
SWIDTH 725 0
DWIDTH 7 0
BBX 7 7 0 0
BITMAP
07BA0000
0A175000
0C075800
1B2BBB30
4C828300
7500B000
A1009700
ENDCHAR
STARTCHAR uni20AB
ENCODING 8363
SWIDTH 577 0
DWIDTH 5 0
BBX 6 9 0 -2
BITMAP
000074
0028D7
06A8B0
3A04A0
750670
840D30
4B8B00
000000
899600
ENDCHAR
STARTCHAR Euro
ENCODING 8364
SWIDTH 550 0
DWIDTH 5 0
BBX 6 7 0 0
BITMAP
006AB3
057000
3D9800
0B0000
6D9400
0B0000
05BA20
ENDCHAR
STARTCHAR afii61248
ENCODING 8453
SWIDTH 777 0
DWIDTH 7 0
BBX 6 7 1 0
BITMAP
474092
800550
871900
009100
065891
284563
912990
ENDCHAR
STARTCHAR afii61289
ENCODING 8467
SWIDTH 500 0
DWIDTH 5 0
BBX 4 7 0 0
BITMAP
03A6
0638
0756
0890
2930
0643
02B8
ENDCHAR
STARTCHAR afii61352
ENCODING 8470
SWIDTH 950 0
DWIDTH 9 0
BBX 9 7 0 0
BITMAP
07900A0000
09B0280000
0A92559A10
1956865630
461AA45910
730BA06300
9108859500
ENDCHAR
STARTCHAR uni2120
ENCODING 8480
SWIDTH 762 0
DWIDTH 7 0
BBX 6 3 0 4
BITMAP
674B0D
374A6A
5866A8
ENDCHAR
STARTCHAR trademark
ENCODING 8482
SWIDTH 749 0
DWIDTH 7 0
BBX 7 3 0 4
BITMAP
3B5D1940
08097A40
0808A540
ENDCHAR
STARTCHAR Omega
ENCODING 8486
SWIDTH 732 0
DWIDTH 7 0
BBX 7 7 0 0
BITMAP
019AB500
0A400C10
1B000930
48000A20
39001C00
0B009300
AD5AD900
ENDCHAR
STARTCHAR estimated
ENCODING 8494
SWIDTH 619 0
DWIDTH 6 0
BBX 6 5 0 0
BITMAP
056640
4900C1
6B6661
490020
066640
ENDCHAR
STARTCHAR oneeighth
ENCODING 8539
SWIDTH 752 0
DWIDTH 7 0
BBX 7 7 0 0
BITMAP
19603700
0731A000
09082000
09467940
01909540
08218A00
46039910
ENDCHAR
STARTCHAR threeeighths
ENCODING 8540
SWIDTH 812 0
DWIDTH 7 0
BBX 7 7 0 0
BITMAP
07A10730
00813700
06809000
578849A0
00463680
01905960
08208860
ENDCHAR
STARTCHAR fiveeighths
ENCODING 8541
SWIDTH 818 0
DWIDTH 7 0
BBX 7 7 0 0
BITMAP
0B810830
18804700
00919000
586839A0
00462780
01904870
08207870
ENDCHAR
STARTCHAR seveneighths
ENCODING 8542
SWIDTH 750 0
DWIDTH 7 0
BBX 7 7 0 0
BITMAP
18C33700
01919000
08282000
37467940
01909540
08218A00
56039900
ENDCHAR
STARTCHAR partialdiff
ENCODING 8706
SWIDTH 581 0
DWIDTH 5 0
BBX 5 7 0 0
BITMAP
039A30
0001A0
06A9B0
2A03B0
660480
650A20
2BA500
ENDCHAR
STARTCHAR Delta
ENCODING 8710
SWIDTH 558 0
DWIDTH 5 0
BBX 6 7 -1 0
BITMAP
0003C0
000AB0
0039A0
00A292
039083
0A2065
2EAAC6
ENDCHAR
STARTCHAR product
ENCODING 8719
SWIDTH 741 0
DWIDTH 7 0
BBX 5 9 1 -2
BITMAP
DAAAD0
B000B0
B000B0
B000B0
B000B0
B000B0
B000B0
B000B0
B000B0
ENDCHAR
STARTCHAR summation
ENCODING 8721
SWIDTH 630 0
DWIDTH 6 0
BBX 6 9 0 -2
BITMAP
1EBAA7
059000
00A400
001C10
000950
003B00
00B200
076000
1EAAAA
ENDCHAR
STARTCHAR minus
ENCODING 8722
SWIDTH 550 0
DWIDTH 5 0
BBX 5 1 0 2
BITMAP
499960
ENDCHAR
STARTCHAR radical
ENCODING 8730
SWIDTH 548 0
DWIDTH 5 0
BBX 6 7 0 0
BITMAP
000036
000081
000090
5C0540
074900
02A800
00B300
ENDCHAR
STARTCHAR infinity
ENCODING 8734
SWIDTH 707 0
DWIDTH 6 0
BBX 6 3 0 2
BITMAP
199488
442B09
1A9598
ENDCHAR
STARTCHAR integral
ENCODING 8747
SWIDTH 383 0
DWIDTH 3 0
BBX 4 9 0 -2
BITMAP
03A4
0730
0830
0830
0830
0830
0830
0820
7A00
ENDCHAR
STARTCHAR approxequal
ENCODING 8776
SWIDTH 550 0
DWIDTH 5 0
BBX 5 3 0 2
BITMAP
59A970
000000
59A970
ENDCHAR
STARTCHAR notequal
ENCODING 8800
SWIDTH 550 0
DWIDTH 5 0
BBX 5 5 0 1
BITMAP
000900
49CA50
00A000
4CB960
081000
ENDCHAR
STARTCHAR lessequal
ENCODING 8804
SWIDTH 550 0
DWIDTH 5 0
BBX 5 5 0 0
BITMAP
001760
178200
397100
002860
499960
ENDCHAR
STARTCHAR greaterequal
ENCODING 8805
SWIDTH 550 0
DWIDTH 5 0
BBX 5 5 0 0
BITMAP
482000
017820
016940
493000
499960
ENDCHAR
STARTCHAR lozenge
ENCODING 9674
SWIDTH 583 0
DWIDTH 5 0
BBX 5 6 0 0
BITMAP
00A400
057A10
1A0390
1A0390
057A10
00A400
ENDCHAR
STARTCHAR ff
ENCODING 64256
SWIDTH 630 0
DWIDTH 6 0
BBX 8 9 -1 -2
BITMAP
001B83B7
00740920
03D88D80
00B01A00
02904700
05607400
0830A100
0B00B000
A71A5000
ENDCHAR
STARTCHAR uniFB01
ENCODING 64257
SWIDTH 568 0
DWIDTH 5 0
BBX 7 9 -1 -2
BITMAP
001B8820
00740000
03D81B00
00B03800
02906500
05609200
0830B000
0B000000
A7000000
ENDCHAR
STARTCHAR uniFB02
ENCODING 64258
SWIDTH 568 0
DWIDTH 5 0
BBX 7 9 -1 -2
BITMAP
001B8930
00740B00
03D81B00
00B03800
02906500
05609200
0830B000
0B000000
A7000000
ENDCHAR
STARTCHAR uniFB03
ENCODING 64259
SWIDTH 886 0
DWIDTH 8 0
BBX 9 9 -1 -2
BITMAP
001B83B790
0074092000
03D88D8290
00B01A0560
0290470830
0560740B00
0830A10B00
0B00B00000
A71A500000
ENDCHAR
STARTCHAR uniFB04
ENCODING 64260
SWIDTH 886 0
DWIDTH 8 0
BBX 10 9 -1 -2
BITMAP
001B83B7B1
00740920B0
03D88D8290
00B01A0560
0290470830
0560740B00
0830A10B00
0B00B00000
A71A500000
ENDCHAR
STARTCHAR uniFEFF
ENCODING 65279
SWIDTH 0 0
DWIDTH 0 0
BBX 1 1 0 0
BITMAP
00
ENDCHAR
STARTCHAR uniFFFC
ENCODING 65532
SWIDTH 1000 0
DWIDTH 9 0
BBX 9 9 0 -2
BITMAP
8563736490
0000000000
7000000070
0387A82600
7718A92670
7387A86470
7000000070
4000000040
8563736490
ENDCHAR
STARTCHAR uniFFFD
ENCODING 65533
SWIDTH 1000 0
DWIDTH 9 0
BBX 9 8 0 -1
BITMAP
0002B20000
002DFD2000
03E515E200
3EFCC2FE30
3EFE3DFE30
03EFBFE300
002B3D2000
0002B20000
ENDCHAR
STARTCHAR .notdef
ENCODING -1
SWIDTH 600 0
DWIDTH 5 0
BBX 5 6 0 0
BITMAP
297770
250070
250070
250070
250070
297770
ENDCHAR
STARTCHAR null
ENCODING -1
SWIDTH 0 0
DWIDTH 0 0
BBX 1 1 0 0
BITMAP
00
ENDCHAR
STARTCHAR nonmarkingreturn
ENCODING -1
SWIDTH 509 0
DWIDTH 5 0
BBX 1 1 0 0
BITMAP
00
ENDCHAR
STARTCHAR I.alt
ENCODING -1
SWIDTH 317 0
DWIDTH 3 0
BBX 5 7 -1 0
BITMAP
008B20
006500
009200
00B000
00B000
029000
1AB000
ENDCHAR
STARTCHAR Igrave.alt
ENCODING -1
SWIDTH 317 0
DWIDTH 3 0
BBX 5 9 -1 0
BITMAP
004600
000000
008B20
006500
009200
00B000
00B000
029000
1AB000
ENDCHAR
STARTCHAR Iacute.alt
ENCODING -1
SWIDTH 317 0
DWIDTH 3 0
BBX 5 9 -1 0
BITMAP
000750
000000
008B20
006500
009200
00B000
00B000
029000
1AB000
ENDCHAR
STARTCHAR Icircumflex.alt
ENCODING -1
SWIDTH 317 0
DWIDTH 3 0
BBX 5 9 -1 0
BITMAP
005A50
000000
008B20
006500
009200
00B000
00B000
029000
1AB000
ENDCHAR
STARTCHAR Idieresis.alt
ENCODING -1
SWIDTH 317 0
DWIDTH 3 0
BBX 5 9 -1 0
BITMAP
008180
000000
008B20
006500
009200
00B000
00B000
029000
1AB000
ENDCHAR
STARTCHAR Itilde.alt
ENCODING -1
SWIDTH 317 0
DWIDTH 3 0
BBX 5 10 -1 0
BITMAP
008660
016680
000000
008B20
006500
009200
00B000
00B000
029000
1AB000
ENDCHAR
STARTCHAR Imacron.alt
ENCODING -1
SWIDTH 317 0
DWIDTH 3 0
BBX 5 9 -1 0
BITMAP
007960
000000
008B20
006500
009200
00B000
00B000
029000
1AB000
ENDCHAR
STARTCHAR Ibreve.alt
ENCODING -1
SWIDTH 317 0
DWIDTH 3 0
BBX 5 10 -1 0
BITMAP
007070
006A40
000000
008B20
006500
009200
00B000
00B000
029000
1AB000
ENDCHAR
STARTCHAR Iogonek.alt
ENCODING -1
SWIDTH 317 0
DWIDTH 3 0
BBX 5 9 -1 -2
BITMAP
008B20
006500
009200
00B000
00B000
029000
1AB000
072000
0A2000
ENDCHAR
STARTCHAR Idotaccent.alt
ENCODING -1
SWIDTH 317 0
DWIDTH 3 0
BBX 5 9 -1 0
BITMAP
000A00
000000
008B20
006500
009200
00B000
00B000
029000
1AB000
ENDCHAR
STARTCHAR IJ.alt
ENCODING -1
SWIDTH 583 0
DWIDTH 5 0
BBX 7 9 -1 -2
BITMAP
008B2840
00650A10
00920B00
00B01A00
00B04700
02907400
1AB0A200
0000B000
005B5000
ENDCHAR
STARTCHAR Iotatonos.alt
ENCODING -1
SWIDTH 439 0
DWIDTH 4 0
BBX 5 7 0 0
BITMAP
1B7C30
634700
007400
00A100
00B000
01A000
09C100
ENDCHAR
STARTCHAR Iota.alt
ENCODING -1
SWIDTH 317 0
DWIDTH 3 0
BBX 5 7 -1 0
BITMAP
008B20
006500
009200
00B000
00B000
029000
1AB000
ENDCHAR
STARTCHAR Iotadieresis.alt
ENCODING -1
SWIDTH 317 0
DWIDTH 3 0
BBX 5 9 -1 0
BITMAP
008180
000000
008B20
006500
009200
00B000
00B000
029000
1AB000
ENDCHAR
STARTCHAR afii10055.alt
ENCODING -1
SWIDTH 317 0
DWIDTH 3 0
BBX 5 7 -1 0
BITMAP
008B20
006500
009200
00B000
00B000
029000
1AB000
ENDCHAR
STARTCHAR afii10056.alt
ENCODING -1
SWIDTH 317 0
DWIDTH 3 0
BBX 5 9 -1 0
BITMAP
008180
000000
008B20
006500
009200
00B000
00B000
029000
1AB000
ENDCHAR
STARTCHAR cyrillicbreve
ENCODING -1
SWIDTH 562 0
DWIDTH 5 0
BBX 4 1 1 5
BITMAP
5A96
ENDCHAR
STARTCHAR caroncommaaccent
ENCODING -1
SWIDTH 477 0
DWIDTH 4 0
BBX 2 1 2 6
BITMAP
54
ENDCHAR
STARTCHAR commaaccent
ENCODING -1
SWIDTH 477 0
DWIDTH 4 0
BBX 2 1 0 -2
BITMAP
18
ENDCHAR
STARTCHAR commaaccentrotate
ENCODING -1
SWIDTH 477 0
DWIDTH 4 0
BBX 2 1 2 5
BITMAP
64
ENDCHAR
STARTCHAR dasiaoxia
ENCODING -1
SWIDTH 418 0
DWIDTH 4 0
BBX 3 2 1 5
BITMAP
44B0
8820
ENDCHAR
STARTCHAR uni04C0.alt
ENCODING -1
SWIDTH 317 0
DWIDTH 3 0
BBX 5 7 -1 0
BITMAP
008B20
006500
009200
00B000
00B000
029000
1AB000
ENDCHAR
STARTCHAR uni04CF.alt
ENCODING -1
SWIDTH 317 0
DWIDTH 3 0
BBX 5 7 -1 0
BITMAP
008B20
006500
009200
00B000
00B000
029000
1AB000
ENDCHAR
STARTCHAR uni1EC8.alt
ENCODING -1
SWIDTH 317 0
DWIDTH 3 0
BBX 5 10 -1 0
BITMAP
000760
000920
000000
008B20
006500
009200
00B000
00B000
029000
1AB000
ENDCHAR
STARTCHAR uni1ECA.alt
ENCODING -1
SWIDTH 317 0
DWIDTH 3 0
BBX 5 9 -1 -2
BITMAP
008B20
006500
009200
00B000
00B000
029000
1AB000
000000
082000
ENDCHAR
STARTCHAR circumflexacutecomb
ENCODING -1
SWIDTH 0 0
DWIDTH 0 0
BBX 5 2 -4 5
BITMAP
000820
288000
ENDCHAR
STARTCHAR circumflexgravecomb
ENCODING -1
SWIDTH 0 0
DWIDTH 0 0
BBX 3 2 -4 5
BITMAP
8000
2880
ENDCHAR
STARTCHAR circumflexhookcomb
ENCODING -1
SWIDTH 0 0
DWIDTH 0 0
BBX 4 2 -4 5
BITMAP
0009
2880
ENDCHAR
STARTCHAR circumflextildecomb
ENCODING -1
SWIDTH 0 0
DWIDTH 0 0
BBX 4 2 -4 5
BITMAP
1784
2890
ENDCHAR
STARTCHAR breveacutecomb
ENCODING -1
SWIDTH 0 0
DWIDTH 0 0
BBX 4 2 -4 5
BITMAP
0181
2A91
ENDCHAR
STARTCHAR brevegravecomb
ENCODING -1
SWIDTH 0 0
DWIDTH 0 0
BBX 4 2 -4 5
BITMAP
0710
2A91
ENDCHAR
STARTCHAR brevehookcomb
ENCODING -1
SWIDTH 0 0
DWIDTH 0 0
BBX 4 2 -4 5
BITMAP
0370
2A91
ENDCHAR
STARTCHAR brevetildecomb
ENCODING -1
SWIDTH 0 0
DWIDTH 0 0
BBX 4 2 -4 5
BITMAP
1884
2A91
ENDCHAR
STARTCHAR cyrillichookleft
ENCODING -1
SWIDTH 205 0
DWIDTH 2 0
BBX 2 2 -1 -2
BITMAP
09
58
ENDCHAR
STARTCHAR one.pnum
ENCODING -1
SWIDTH 375 0
DWIDTH 3 0
BBX 4 7 0 0
BITMAP
04D2
39B0
01B0
0380
0650
0920
0B00
ENDCHAR
STARTCHAR zero.os
ENCODING -1
SWIDTH 554 0
DWIDTH 5 0
BBX 5 5 0 0
BITMAP
07AB20
390470
840570
840930
2BA700
ENDCHAR
STARTCHAR one.os
ENCODING -1
SWIDTH 358 0
DWIDTH 3 0
BBX 3 5 0 0
BITMAP
07A0
5770
0740
0A10
0B00
ENDCHAR
STARTCHAR two.os
ENCODING -1
SWIDTH 483 0
DWIDTH 4 0
BBX 5 5 -1 0
BITMAP
01AA90
0010B0
000760
019400
1EBA60
ENDCHAR
STARTCHAR three.os
ENCODING -1
SWIDTH 483 0
DWIDTH 4 0
BBX 5 7 -1 -2
BITMAP
04AB70
0000B0
000580
02AB00
000750
000840
6AA900
ENDCHAR
STARTCHAR four.os
ENCODING -1
SWIDTH 540 0
DWIDTH 5 0
BBX 6 7 -1 -2
BITMAP
0001D4
0009B1
0056B0
02A1A0
0A2380
299CA3
000910
ENDCHAR
STARTCHAR five.os
ENCODING -1
SWIDTH 503 0
DWIDTH 5 0
BBX 6 7 -1 -2
BITMAP
00AAA2
00A000
047000
049B50
0000C0
0002B0
2AAA20
ENDCHAR
STARTCHAR six.os
ENCODING -1
SWIDTH 540 0
DWIDTH 5 0
BBX 5 7 0 0
BITMAP
009A70
094000
1A0000
5C9B10
760650
740930
1BA800
ENDCHAR
STARTCHAR seven.os
ENCODING -1
SWIDTH 474 0
DWIDTH 4 0
BBX 5 7 0 -2
BITMAP
7AAE20
002A00
009200
029000
0A2000
380000
A10000
ENDCHAR
STARTCHAR eight.os
ENCODING -1
SWIDTH 534 0
DWIDTH 5 0
BBX 5 7 0 0
BITMAP
03AB50
0B12A0
094850
08B900
840B10
A10A20
4B9700
ENDCHAR
STARTCHAR nine.os
ENCODING -1
SWIDTH 527 0
DWIDTH 5 0
BBX 5 7 0 -2
BITMAP
09AA00
560830
830740
762D20
177B00
005700
AA8000
ENDCHAR
STARTCHAR g.alt
ENCODING -1
SWIDTH 577 0
DWIDTH 5 0
BBX 5 7 0 -2
BITMAP
06A8A0
2A0590
750660
840D30
3B8B00
001A00
89A300
ENDCHAR
STARTCHAR gcircumflex.alt
ENCODING -1
SWIDTH 577 0
DWIDTH 5 0
BBX 5 9 0 -2
BITMAP
006B30
000000
06A8A0
2A0590
750660
840D30
3B8B00
001A00
89A300
ENDCHAR
STARTCHAR gbreve.alt
ENCODING -1
SWIDTH 577 0
DWIDTH 5 0
BBX 5 10 0 -2
BITMAP
007070
007A20
000000
06A8A0
2A0590
750660
840D30
3B8B00
001A00
89A300
ENDCHAR
STARTCHAR gdot.alt
ENCODING -1
SWIDTH 577 0
DWIDTH 5 0
BBX 5 9 0 -2
BITMAP
003700
000000
06A8A0
2A0590
750660
840D30
3B8B00
001A00
89A300
ENDCHAR
STARTCHAR gcommaaccent.alt
ENCODING -1
SWIDTH 577 0
DWIDTH 5 0
BBX 5 9 0 -2
BITMAP
001800
000000
06A8A0
2A0590
750660
840D30
3B8B00
001A00
89A300
ENDCHAR
ENDFONT
